<svg viewBox="0 0 76 12" xmlns="http://www.w3.org/2000/svg" fill-rule="evenodd" clip-rule="evenodd" stroke-linejoin="round" stroke-miterlimit="1.414"><path d="M34.008 4.53h1.037l.911 2.548c.138.363.229.704.275 1.024h.032c.024-.149.069-.33.134-.542.065-.213.408-1.223 1.028-3.03h1.029l-1.915 5.092c-.349.934-.929 1.402-1.741 1.402-.207 0-.414-.023-.616-.069v-.756c.143.033.307.049.491.049.459 0 .781-.267.968-.801l.166-.422-1.798-4.495h-.001zm-2.446.699c-.383 0-.659.113-.828.339-.168.226-.255.605-.261 1.135v.065c0 .547.087.943.259 1.189.173.245.455.367.847.367.337 0 .593-.134.767-.402.175-.268.261-.655.261-1.162 0-1.022-.348-1.532-1.045-1.532v.001zm.248-.78c.559 0 .993.203 1.305.61.312.406.468.976.468 1.71 0 .737-.158 1.311-.474 1.722-.316.41-.754.615-1.316.615-.567 0-1.007-.205-1.32-.614h-.065l-.174.532h-.713V2.702h.952v1.503c0 .111-.006.277-.017.496l-.024.418h.041c.302-.447.748-.67 1.336-.67h.001zm-5.767 4.575h-.955V6.261c0-.346-.07-.605-.209-.775-.138-.171-.36-.257-.662-.257-.399 0-.692.121-.881.36-.187.24-.281.641-.281 1.205v2.231h-.952V2.702h.952v1.606c0 .258-.017.533-.049.825h.06c.13-.217.31-.385.541-.504.231-.119.499-.178.808-.178 1.086 0 1.628.548 1.628 1.646v2.93-.003zm-6.239.082c-.678 0-1.192-.198-1.545-.595-.352-.397-.529-.967-.529-1.709 0-.756.184-1.337.553-1.743.369-.407.901-.61 1.598-.61.472 0 .897.088 1.276.264l-.289.767c-.402-.157-.734-.235-.996-.235-.775 0-1.162.516-1.162 1.548 0 .504.096.883.289 1.135.194.254.476.38.849.38.424 0 .825-.105 1.202-.317v.833c-.169.1-.352.173-.543.216a3.257 3.257 0 0 1-.703.064v.002zm-3.11-4.657c.192 0 .35.014.474.041l-.093.89a1.808 1.808 0 0 0-.421-.049c-.381 0-.689.125-.926.374-.236.249-.354.573-.354.971v2.349h-.952V4.53h.746l.125.793h.049c.148-.268.342-.481.581-.639.238-.157.495-.235.771-.235v-.001.001zm-5.697 3.925c.346 0 .623-.097.832-.291.21-.193.314-.465.314-.814v-.39l-.575.025c-.448.016-.773.091-.977.225-.204.134-.306.339-.306.615 0 .201.059.356.178.465.119.11.296.165.535.165h-.001zm1.417.65l-.19-.625h-.032c-.217.274-.433.46-.652.559-.219.099-.5.148-.843.148-.44 0-.784-.12-1.03-.358-.248-.239-.371-.575-.371-1.011 0-.464.171-.813.514-1.049.343-.235.865-.364 1.567-.385l.773-.025v-.24c0-.287-.067-.501-.201-.644-.133-.142-.34-.213-.621-.213a2.14 2.14 0 0 0-.66.101 4.798 4.798 0 0 0-.608.24l-.307-.683a3.683 3.683 0 0 1 1.616-.39c.569 0 .999.125 1.289.374.29.25.436.641.436 1.174v3.027h-.681.001zM6.616 5.172c-.302 0-.544.097-.727.289-.182.192-.291.472-.326.841h2.032c-.005-.371-.094-.653-.267-.843-.172-.191-.41-.287-.712-.287zm.174 3.934c-.696 0-1.241-.204-1.634-.612-.393-.408-.589-.969-.589-1.685 0-.734.182-1.311.547-1.731.364-.419.865-.629 1.502-.629.591 0 1.058.179 1.401.54.343.361.514.856.514 1.488v.515H5.547c.014.437.131.772.352 1.007.221.234.533.351.935.351.265 0 .512-.025.739-.075a3.91 3.91 0 0 0 .735-.251V8.8c-.233.111-.467.19-.705.236a4.265 4.265 0 0 1-.813.069v.001zm-3-1.694c0 .528-.19.942-.571 1.243-.38.3-.906.451-1.575.451-.67 0-1.218-.103-1.644-.312v-.919c.27.128.557.227.86.3.304.074.587.11.849.11.383 0 .666-.073.848-.219a.715.715 0 0 0 .273-.588.74.74 0 0 0-.251-.566c-.167-.154-.513-.337-1.036-.548-.54-.22-.921-.47-1.142-.752a1.596 1.596 0 0 1-.332-1.016c0-.496.176-.886.526-1.17.351-.285.822-.427 1.413-.427.567 0 1.131.125 1.693.374l-.308.793c-.527-.222-.996-.334-1.409-.334-.313 0-.55.068-.712.205a.675.675 0 0 0-.244.542c0 .155.033.287.098.397.064.109.172.213.319.311.149.098.416.226.803.386.434.18.753.35.955.507.203.157.351.335.446.533a1.6 1.6 0 0 1 .142.699H3.79zm46.062 2.013c-2.41.012-2.41-1.944-2.41-2.255L47.439.233 48.91 0v6.892c0 .176 0 1.296.944 1.299v1.234h-.002zm-5.961-1.197c.452 0 .786-.026 1.019-.072V6.662a3.505 3.505 0 0 0-.865-.109c-.162 0-.327.012-.493.038-.155.02-.306.064-.447.132a.804.804 0 0 0-.32.269.513.513 0 0 0-.121.361c0 .345.121.544.339.676.219.131.515.199.888.199zm-.127-5.33c.485 0 .895.06 1.226.181.331.119.598.289.793.502.2.218.335.507.418.815.089.331.132.673.128 1.017v3.776c-.227.049-.568.105-1.027.173a10.75 10.75 0 0 1-1.545.101 4.686 4.686 0 0 1-1.042-.108 2.2 2.2 0 0 1-.808-.35 1.688 1.688 0 0 1-.523-.623c-.124-.254-.188-.615-.188-.991 0-.36.071-.589.211-.836.143-.249.334-.451.575-.609.244-.157.523-.27.842-.338a4.878 4.878 0 0 1 1.512-.071c.177.019.369.053.573.102v-.24c0-.17-.019-.331-.061-.481a1.01 1.01 0 0 0-.211-.402.971.971 0 0 0-.399-.269 1.724 1.724 0 0 0-.628-.113 5.355 5.355 0 0 0-.929.09 4.449 4.449 0 0 0-.692.169l-.176-1.205c.183-.064.459-.127.812-.191a5.972 5.972 0 0 1 1.14-.098l-.001-.001zm29.041 5.289c.451 0 .786-.026 1.019-.072V6.622a3.466 3.466 0 0 0-1.358-.072c-.155.02-.306.064-.448.132a.805.805 0 0 0-.32.27.508.508 0 0 0-.12.36c0 .346.12.544.339.676.221.135.514.199.887.199h.001zm-.124-5.326c.485 0 .895.06 1.225.181.332.119.599.289.795.502.195.215.334.507.417.814.087.308.128.646.128 1.017v3.777c-.226.049-.568.105-1.027.173a10.76 10.76 0 0 1-1.545.101c-.35.003-.7-.033-1.042-.109a2.193 2.193 0 0 1-.809-.349 1.705 1.705 0 0 1-.523-.623c-.123-.255-.187-.615-.187-.991 0-.36.071-.589.211-.837a1.78 1.78 0 0 1 .575-.608 2.48 2.48 0 0 1 .842-.338 4.878 4.878 0 0 1 1.512-.071c.181.019.369.052.572.101v-.24c0-.169-.018-.33-.06-.48a1.036 1.036 0 0 0-.211-.402.99.99 0 0 0-.399-.27 1.73 1.73 0 0 0-.628-.112c-.338 0-.647.041-.929.09a4.313 4.313 0 0 0-.692.169l-.177-1.205c.184-.065.459-.128.812-.192a6.404 6.404 0 0 1 1.14-.098zm-4.416-.698a.89.89 0 1 0 .004-1.779h-.004a.89.89 0 0 0-.895.885v.004c0 .492.402.89.895.89zm.741 7.262h-1.478V3.09l1.478-.233v6.569-.001zm-2.591 0c-2.411.012-2.411-1.944-2.411-2.255L64.001.233 65.472 0v6.892c0 .176 0 1.296.944 1.299v1.234h-.001zm-4.781-3.243c0-.634-.139-1.164-.409-1.531-.27-.372-.651-.555-1.135-.555-.486 0-.866.183-1.136.555-.271.371-.403.897-.403 1.531 0 .643.136 1.074.407 1.446.271.375.651.56 1.136.56.485 0 .865-.188 1.135-.56.271-.376.407-.803.407-1.446h-.002zm1.505-.003a3.58 3.58 0 0 1-.218 1.28 3.016 3.016 0 0 1-.621 1.047 2.73 2.73 0 0 1-.962.672 3.907 3.907 0 0 1-1.246.248c-.289-.003-.865-.086-1.237-.248a2.81 2.81 0 0 1-.959-.672 3.087 3.087 0 0 1-.623-1.047 3.478 3.478 0 0 1-.227-1.28c0-.495.068-.972.219-1.377.139-.386.354-.74.631-1.04.271-.288.599-.516.963-.669a3.125 3.125 0 0 1 1.226-.233c.444 0 .854.079 1.23.233.376.158.699.379.962.669.268.289.474.634.624 1.04.158.405.237.882.237 1.377h.001zm-11.068 0c0 .615.136 1.299.407 1.584.271.285.62.428 1.049.428.234 0 .455-.034.662-.098.207-.064.372-.14.503-.229V4.219a5.73 5.73 0 0 0-.97-.123 1.466 1.466 0 0 0-1.226.551c-.282.35-.425.961-.425 1.532zm4.088 2.898c0 1.002-.255 1.734-.77 2.2-.516.466-1.302.698-2.363.698-.387 0-1.191-.075-1.835-.218l.237-1.164c.537.113 1.249.143 1.621.143.591 0 1.011-.12 1.264-.36.251-.241.375-.597.375-1.07v-.241a4.33 4.33 0 0 1-.575.218 2.827 2.827 0 0 1-.819.108 3.1 3.1 0 0 1-1.11-.191 2.32 2.32 0 0 1-.861-.563 2.59 2.59 0 0 1-.557-.93c-.132-.372-.199-1.037-.199-1.525 0-.458.072-1.032.211-1.415.133-.37.344-.708.62-.987.271-.274.602-.484.99-.638a3.654 3.654 0 0 1 1.335-.252c.478 0 .918.061 1.347.132.367.057.731.134 1.09.229v5.826h-.001z" fill="#cbcbcb"/></svg>