<?xml version="1.0" encoding="UTF-8" standalone="no"?><!DOCTYPE svg PUBLIC "-//W3C//DTD SVG 1.1//EN" "http://www.w3.org/Graphics/SVG/1.1/DTD/svg11.dtd"><svg width="100%" height="100%" viewBox="0 0 76 12" version="1.1" xmlns="http://www.w3.org/2000/svg" xmlns:xlink="http://www.w3.org/1999/xlink" xml:space="preserve" style="fill-rule:evenodd;clip-rule:evenodd;stroke-linejoin:round;stroke-miterlimit:1.41421;"><path id="Fill.-1" d="M34.008,4.53l1.037,0l0.911,2.548c0.138,0.363 0.229,0.704 0.275,1.024l0.032,0c0.024,-0.149 0.069,-0.33 0.134,-0.542c0.065,-0.213 0.408,-1.223 1.028,-3.03l1.029,0l-1.915,5.092c-0.349,0.934 -0.929,1.402 -1.741,1.402c-0.207,0 -0.414,-0.023 -0.616,-0.069l0,-0.756c0.143,0.033 0.307,0.049 0.491,0.049c0.459,0 0.781,-0.267 0.968,-0.801l0.166,-0.422l-1.798,-4.495l-0.001,0l0,0Zm-2.446,0.699c-0.383,0 -0.659,0.113 -0.828,0.339c-0.168,0.226 -0.255,0.605 -0.261,1.135l0,0.065c0,0.547 0.087,0.943 0.259,1.189c0.173,0.245 0.455,0.367 0.847,0.367c0.337,0 0.593,-0.134 0.767,-0.402c0.175,-0.268 0.261,-0.655 0.261,-1.162c0,-1.022 -0.348,-1.532 -1.045,-1.532l0,0.001Zm0.248,-0.78c0.559,0 0.993,0.203 1.305,0.61c0.312,0.406 0.468,0.976 0.468,1.71c0,0.737 -0.158,1.311 -0.474,1.722c-0.316,0.41 -0.754,0.615 -1.316,0.615c-0.567,0 -1.007,-0.205 -1.32,-0.614l-0.065,0l-0.174,0.532l-0.713,0l0,-6.322l0.952,0l0,1.503c0,0.111 -0.006,0.277 -0.017,0.496l-0.024,0.418l0.041,0c0.302,-0.447 0.748,-0.67 1.336,-0.67l0.001,0Zm-5.767,4.575l-0.955,0l0,-2.763c0,-0.346 -0.07,-0.605 -0.209,-0.775c-0.138,-0.171 -0.36,-0.257 -0.662,-0.257c-0.399,0 -0.692,0.121 -0.881,0.36c-0.187,0.24 -0.281,0.641 -0.281,1.205l0,2.231l-0.952,0l0,-6.323l0.952,0l0,1.606c0,0.258 -0.017,0.533 -0.049,0.825l0.06,0c0.13,-0.217 0.31,-0.385 0.541,-0.504c0.231,-0.119 0.499,-0.178 0.808,-0.178c1.086,0 1.628,0.548 1.628,1.646l0,2.93l0,-0.002l0,-0.001Zm-6.239,0.082c-0.678,0 -1.192,-0.198 -1.545,-0.595c-0.352,-0.397 -0.529,-0.967 -0.529,-1.709c0,-0.756 0.184,-1.337 0.553,-1.743c0.369,-0.407 0.901,-0.61 1.598,-0.61c0.472,0 0.897,0.088 1.276,0.264l-0.289,0.767c-0.402,-0.157 -0.734,-0.235 -0.996,-0.235c-0.775,0 -1.162,0.516 -1.162,1.548c0,0.504 0.096,0.883 0.289,1.135c0.194,0.254 0.476,0.38 0.849,0.38c0.424,0 0.825,-0.105 1.202,-0.317l0,0.833c-0.169,0.1 -0.352,0.173 -0.543,0.216c-0.232,0.047 -0.467,0.068 -0.703,0.064l0,0.002Zm-3.11,-4.657c0.192,0 0.35,0.014 0.474,0.041l-0.093,0.89c-0.138,-0.033 -0.279,-0.049 -0.421,-0.049c-0.381,0 -0.689,0.125 -0.926,0.374c-0.236,0.249 -0.354,0.573 -0.354,0.971l0,2.349l-0.952,0l0,-4.495l0.746,0l0.125,0.793l0.049,0c0.148,-0.268 0.342,-0.481 0.581,-0.639c0.238,-0.157 0.495,-0.235 0.771,-0.235l0,-0.001l0,0.001Zm-5.697,3.925c0.346,0 0.623,-0.097 0.832,-0.291c0.21,-0.193 0.314,-0.465 0.314,-0.814l0,-0.39l-0.575,0.025c-0.448,0.016 -0.773,0.091 -0.977,0.225c-0.204,0.134 -0.306,0.339 -0.306,0.615c0,0.201 0.059,0.356 0.178,0.465c0.119,0.11 0.296,0.165 0.535,0.165l-0.001,0Zm1.417,0.65l-0.19,-0.625l-0.032,0c-0.217,0.274 -0.433,0.46 -0.652,0.559c-0.219,0.099 -0.5,0.148 -0.843,0.148c-0.44,0 -0.784,-0.12 -1.03,-0.358c-0.248,-0.239 -0.371,-0.575 -0.371,-1.011c0,-0.464 0.171,-0.813 0.514,-1.049c0.343,-0.235 0.865,-0.364 1.567,-0.385l0.773,-0.025l0,-0.24c0,-0.287 -0.067,-0.501 -0.201,-0.644c-0.133,-0.142 -0.34,-0.213 -0.621,-0.213c-0.224,-0.001 -0.447,0.033 -0.66,0.101c-0.207,0.066 -0.411,0.146 -0.608,0.24l-0.307,-0.683c0.252,-0.131 0.52,-0.229 0.798,-0.291c0.289,-0.066 0.562,-0.099 0.818,-0.099c0.569,0 0.999,0.125 1.289,0.374c0.29,0.25 0.436,0.641 0.436,1.174l0,3.027l-0.681,0l0.001,0Zm-5.798,-3.852c-0.302,0 -0.544,0.097 -0.727,0.289c-0.182,0.192 -0.291,0.472 -0.326,0.841l2.032,0c-0.005,-0.371 -0.094,-0.653 -0.267,-0.843c-0.172,-0.191 -0.41,-0.287 -0.712,-0.287Zm0.174,3.934c-0.696,0 -1.241,-0.204 -1.634,-0.612c-0.393,-0.408 -0.589,-0.969 -0.589,-1.685c0,-0.734 0.182,-1.311 0.547,-1.731c0.364,-0.419 0.865,-0.629 1.502,-0.629c0.591,0 1.058,0.179 1.401,0.54c0.343,0.361 0.514,0.856 0.514,1.488l0,0.515l-2.984,0c0.014,0.437 0.131,0.772 0.352,1.007c0.221,0.234 0.533,0.351 0.935,0.351c0.265,0 0.512,-0.025 0.739,-0.075c0.252,-0.059 0.499,-0.143 0.735,-0.251l0,0.776c-0.233,0.111 -0.467,0.19 -0.705,0.236c-0.268,0.049 -0.541,0.072 -0.813,0.069l0,0.001Zm-3,-1.694c0,0.528 -0.19,0.942 -0.571,1.243c-0.38,0.3 -0.906,0.451 -1.575,0.451c-0.67,0 -1.218,-0.103 -1.644,-0.312l0,-0.919c0.27,0.128 0.557,0.227 0.86,0.3c0.304,0.074 0.587,0.11 0.849,0.11c0.383,0 0.666,-0.073 0.848,-0.219c0.182,-0.146 0.273,-0.342 0.273,-0.588c0.003,-0.217 -0.089,-0.423 -0.251,-0.566c-0.167,-0.154 -0.513,-0.337 -1.036,-0.548c-0.54,-0.22 -0.921,-0.47 -1.142,-0.752c-0.221,-0.282 -0.332,-0.62 -0.332,-1.016c0,-0.496 0.176,-0.886 0.526,-1.17c0.351,-0.285 0.822,-0.427 1.413,-0.427c0.567,0 1.131,0.125 1.693,0.374l-0.308,0.793c-0.527,-0.222 -0.996,-0.334 -1.409,-0.334c-0.313,0 -0.55,0.068 -0.712,0.205c-0.163,0.138 -0.244,0.318 -0.244,0.542c0,0.155 0.033,0.287 0.098,0.397c0.064,0.109 0.172,0.213 0.319,0.311c0.149,0.098 0.416,0.226 0.803,0.386c0.434,0.18 0.753,0.35 0.955,0.507c0.203,0.157 0.351,0.335 0.446,0.533c0.095,0.198 0.142,0.431 0.142,0.699l-0.001,0Zm46.062,2.013c-2.41,0.012 -2.41,-1.944 -2.41,-2.255l-0.003,-6.937l1.471,-0.233l0,6.892c0,0.176 0,1.296 0.944,1.299l0,1.234l-0.001,0l-0.001,0Zm-5.961,-1.197c0.452,0 0.786,-0.026 1.019,-0.072l0,-1.494c-0.283,-0.072 -0.573,-0.109 -0.865,-0.109c-0.162,0 -0.327,0.012 -0.493,0.038c-0.155,0.02 -0.306,0.064 -0.447,0.132c-0.129,0.06 -0.239,0.153 -0.32,0.269c-0.083,0.117 -0.121,0.185 -0.121,0.361c0,0.345 0.121,0.544 0.339,0.676c0.219,0.131 0.515,0.199 0.888,0.199l0,0Zm-0.127,-5.33c0.485,0 0.895,0.06 1.226,0.181c0.331,0.119 0.598,0.289 0.793,0.502c0.2,0.218 0.335,0.507 0.418,0.815c0.089,0.331 0.132,0.673 0.128,1.017l0,3.776c-0.227,0.049 -0.568,0.105 -1.027,0.173c-0.458,0.067 -0.974,0.101 -1.545,0.101c-0.35,0.003 -0.699,-0.033 -1.042,-0.108c-0.29,-0.061 -0.565,-0.18 -0.808,-0.35c-0.222,-0.162 -0.402,-0.375 -0.523,-0.623c-0.124,-0.254 -0.188,-0.615 -0.188,-0.991c0,-0.36 0.071,-0.589 0.211,-0.836c0.143,-0.249 0.334,-0.451 0.575,-0.609c0.244,-0.157 0.523,-0.27 0.842,-0.338c0.329,-0.068 0.665,-0.102 1.001,-0.101c0.162,0 0.331,0.012 0.511,0.03c0.177,0.019 0.369,0.053 0.573,0.102l0,-0.24c0,-0.17 -0.019,-0.331 -0.061,-0.481c-0.039,-0.148 -0.111,-0.286 -0.211,-0.402c-0.108,-0.122 -0.246,-0.214 -0.399,-0.269c-0.2,-0.076 -0.413,-0.115 -0.628,-0.113c-0.312,0.003 -0.623,0.033 -0.929,0.09c-0.235,0.038 -0.466,0.094 -0.692,0.169l-0.176,-1.205c0.183,-0.064 0.459,-0.127 0.812,-0.191c0.376,-0.069 0.758,-0.102 1.14,-0.098l-0.001,-0.001Zm29.041,5.289c0.451,0 0.786,-0.026 1.019,-0.072l0,-1.493c-0.283,-0.073 -0.574,-0.109 -0.866,-0.109c-0.161,0 -0.327,0.011 -0.492,0.037c-0.155,0.02 -0.306,0.064 -0.448,0.132c-0.128,0.06 -0.239,0.153 -0.32,0.27c-0.083,0.116 -0.12,0.184 -0.12,0.36c0,0.346 0.12,0.544 0.339,0.676c0.221,0.135 0.514,0.199 0.887,0.199l0.001,0Zm-0.124,-5.326c0.485,0 0.895,0.06 1.225,0.181c0.332,0.119 0.599,0.289 0.795,0.502c0.195,0.215 0.334,0.507 0.417,0.814c0.087,0.308 0.128,0.646 0.128,1.017l0,3.777c-0.226,0.049 -0.568,0.105 -1.027,0.173c-0.459,0.067 -0.974,0.101 -1.545,0.101c-0.35,0.003 -0.7,-0.033 -1.042,-0.109c-0.29,-0.06 -0.565,-0.179 -0.809,-0.349c-0.222,-0.162 -0.401,-0.376 -0.523,-0.623c-0.123,-0.255 -0.187,-0.615 -0.187,-0.991c0,-0.36 0.071,-0.589 0.211,-0.837c0.143,-0.248 0.334,-0.45 0.575,-0.608c0.244,-0.158 0.523,-0.27 0.842,-0.338c0.329,-0.068 0.665,-0.102 1.001,-0.101c0.162,0 0.331,0.011 0.511,0.03c0.181,0.019 0.369,0.052 0.572,0.101l0,-0.24c0,-0.169 -0.018,-0.33 -0.06,-0.48c-0.04,-0.148 -0.112,-0.286 -0.211,-0.402c-0.109,-0.122 -0.246,-0.214 -0.399,-0.27c-0.201,-0.076 -0.414,-0.114 -0.628,-0.112c-0.338,0 -0.647,0.041 -0.929,0.09c-0.235,0.037 -0.467,0.094 -0.692,0.169l-0.177,-1.205c0.184,-0.065 0.459,-0.128 0.812,-0.192c0.354,-0.064 0.734,-0.098 1.14,-0.098l0,0Zm-4.416,-0.698c0.493,0 0.895,-0.399 0.895,-0.89c-0.001,-0.492 -0.4,-0.891 -0.891,-0.889l-0.004,0c-0.49,-0.004 -0.891,0.393 -0.895,0.885l0,0.004c0,0.492 0.402,0.89 0.895,0.89l0,0Zm0.741,7.262l-1.478,0l0,-6.335l1.478,-0.233l0,6.569l0,-0.001Zm-2.591,0c-2.411,0.012 -2.411,-1.944 -2.411,-2.255l-0.003,-6.937l1.471,-0.233l0,6.892c0,0.176 0,1.296 0.944,1.299l0,1.234l-0.001,0Zm-4.781,-3.243c0,-0.634 -0.139,-1.164 -0.409,-1.531c-0.27,-0.372 -0.651,-0.555 -1.135,-0.555c-0.486,0 -0.866,0.183 -1.136,0.555c-0.271,0.371 -0.403,0.897 -0.403,1.531c0,0.643 0.136,1.074 0.407,1.446c0.271,0.375 0.651,0.56 1.136,0.56c0.485,0 0.865,-0.188 1.135,-0.56c0.271,-0.376 0.407,-0.803 0.407,-1.446l-0.001,0l-0.001,0Zm1.505,-0.003c0.006,0.437 -0.068,0.87 -0.218,1.28c-0.134,0.388 -0.345,0.744 -0.621,1.047c-0.267,0.29 -0.587,0.514 -0.962,0.672c-0.377,0.158 -0.956,0.248 -1.246,0.248c-0.289,-0.003 -0.865,-0.086 -1.237,-0.248c-0.363,-0.154 -0.69,-0.383 -0.959,-0.672c-0.275,-0.304 -0.487,-0.66 -0.623,-1.047c-0.156,-0.409 -0.232,-0.843 -0.227,-1.28c0,-0.495 0.068,-0.972 0.219,-1.377c0.139,-0.386 0.354,-0.74 0.631,-1.04c0.271,-0.288 0.599,-0.516 0.963,-0.669c0.372,-0.157 0.782,-0.233 1.226,-0.233c0.444,0 0.854,0.079 1.23,0.233c0.376,0.158 0.699,0.379 0.962,0.669c0.268,0.289 0.474,0.634 0.624,1.04c0.158,0.405 0.237,0.882 0.237,1.377l0.001,0Zm-11.068,0c0,0.615 0.136,1.299 0.407,1.584c0.271,0.285 0.62,0.428 1.049,0.428c0.234,0 0.455,-0.034 0.662,-0.098c0.207,-0.064 0.372,-0.14 0.503,-0.229l0,-3.645c-0.104,-0.023 -0.544,-0.112 -0.97,-0.123c-0.534,-0.016 -0.939,0.202 -1.226,0.551c-0.282,0.35 -0.425,0.961 -0.425,1.532Zm4.088,2.898c0,1.002 -0.255,1.734 -0.77,2.2c-0.516,0.466 -1.302,0.698 -2.363,0.698c-0.387,0 -1.191,-0.075 -1.835,-0.218l0.237,-1.164c0.537,0.113 1.249,0.143 1.621,0.143c0.591,0 1.011,-0.12 1.264,-0.36c0.251,-0.241 0.375,-0.597 0.375,-1.07l0,-0.241c-0.186,0.086 -0.378,0.159 -0.575,0.218c-0.237,0.072 -0.511,0.108 -0.819,0.108c-0.407,0 -0.775,-0.064 -1.11,-0.191c-0.325,-0.121 -0.62,-0.313 -0.861,-0.563c-0.249,-0.267 -0.439,-0.584 -0.557,-0.93c-0.132,-0.372 -0.199,-1.037 -0.199,-1.525c0,-0.458 0.072,-1.032 0.211,-1.415c0.133,-0.37 0.344,-0.708 0.62,-0.987c0.271,-0.274 0.602,-0.484 0.99,-0.638c0.425,-0.167 0.879,-0.252 1.335,-0.252c0.478,0 0.918,0.061 1.347,0.132c0.367,0.057 0.731,0.134 1.09,0.229l0,5.826l-0.001,0l0,0Z" style="fill:#cbcbcb;"/></svg>