<?xml version="1.0" encoding="utf-8"?>
<!-- Generator: Adobe Illustrator 18.0.0, SVG Export Plug-In . SVG Version: 6.00 Build 0)  -->
<!DOCTYPE svg PUBLIC "-//W3C//DTD SVG 1.1//EN" "http://www.w3.org/Graphics/SVG/1.1/DTD/svg11.dtd">
<svg version="1.1" id="圖層_1" xmlns="http://www.w3.org/2000/svg" xmlns:xlink="http://www.w3.org/1999/xlink" x="0px" y="0px"
	 viewBox="0 0 300 300" style="enable-background:new 0 0 300 300;" xml:space="preserve">
<g>
	<defs>
		<circle id="SVGID_1_" cx="150" cy="150.163" r="150"/>
	</defs>
	<clipPath id="SVGID_2_">
		<use xlink:href="#SVGID_1_"  style="overflow:visible;"/>
	</clipPath>
	<rect x="0" y="-0.37" style="opacity:0.9;clip-path:url(#SVGID_2_);fill:#E5E5E5;" width="300" height="300"/>
	<g style="clip-path:url(#SVGID_2_);">
		<g style="opacity:0.75;">
			<path style="fill:none;stroke:#040000;stroke-width:3;stroke-linecap:round;stroke-miterlimit:10;" d="M125.416,189.563
				c-1.335-1.034-3.273-0.789-4.307,0.546l-9.925,12.807c-1.034,1.335-0.789,3.273,0.546,4.307l23.685,18.355
				c1.335,1.034,3.273,0.789,4.307-0.546l9.925-12.807c1.034-1.335,0.789-3.273-0.546-4.307L125.416,189.563z"/>
			<path style="fill:none;stroke:#040000;stroke-width:3;stroke-linecap:round;stroke-miterlimit:10;" d="M182.421,190.192
				c-1.023-1.344-2.959-1.607-4.303-0.584l-23.844,18.147c-1.344,1.023-1.607,2.959-0.584,4.303l9.812,12.892
				c1.023,1.344,2.959,1.607,4.303,0.584l23.844-18.147c1.344-1.023,1.607-2.959,0.584-4.303L182.421,190.192z"/>
			<path style="fill:none;stroke:#040000;stroke-width:3;stroke-linecap:round;stroke-miterlimit:10;" d="M103.861,207.996
				c-27.913,0.53-40.652,14.311-40.652,41.837v80.886c0,28.062,23.791,51.022,52.868,51.022h70.996
				c29.078,0,52.868-22.96,52.868-51.022v-80.886c0-26.805-12.356-40.575-38.791-41.768"/>
			<path style="fill:none;stroke:#040000;stroke-width:3;stroke-linecap:round;stroke-miterlimit:10;" d="M131.561,187.162v0.911
				 M171.589,189.663v-8.841c0-1.608,0.594-3.127,1.612-4.295c0.127-0.146,0.291-0.256,0.469-0.331
				c19.163-8.088,33.408-26.316,36.691-48.369c3.58-0.42,6.067-3.561,7.197-6.862c1.179-3.447,1.79-7.521,1.239-11.152
				c-0.586-3.86-2.706-8.359-6.845-9.374c-1.036-0.254-2.211-0.314-3.306-0.093c-7.282-25.95-30.121-44.896-57.186-44.896
				c-27.055,0-49.887,18.932-57.178,44.866c-1.031-0.172-2.116-0.114-3.083,0.124c-4.139,1.015-6.259,5.514-6.845,9.374
				c-0.551,3.631,0.06,7.705,1.239,11.152c1.104,3.228,3.507,6.304,6.96,6.832c3.296,22.208,17.704,40.545,37.061,48.557
				c0.198,0.082,0.379,0.207,0.513,0.375c0.911,1.139,1.434,2.579,1.434,4.094v8.841 M171.589,188.077v-1.086 M151.932,116.277
				c0.337-0.732,1.374-0.727,1.704,0.009c0.999,2.232,2.532,6.132,2.532,9.049c0,4.329-2.886,4.86-3.374,4.856
				c-0.49-0.004-3.443-0.579-3.443-4.907C149.35,122.368,150.912,118.495,151.932,116.277z"/>
		</g>
	</g>
	<rect x="0" y="0.163" style="clip-path:url(#SVGID_2_);fill:none;" width="300" height="300"/>
	<g style="clip-path:url(#SVGID_2_);">
		<path style="opacity:0.9;fill:#040000;" d="M141.692,86.402l-0.085-0.062c-0.603-0.443-0.734-1.298-0.291-1.901l4.157-5.663
			c0.443-0.603,1.298-0.734,1.901-0.291l0.085,0.062c0.603,0.443,0.734,1.298,0.291,1.901l-4.157,5.663
			C143.15,86.714,142.295,86.845,141.692,86.402z"/>
		<path style="opacity:0.9;fill:#040000;" d="M148.651,86.402l-0.085-0.062c-0.603-0.443-0.734-1.298-0.291-1.901l4.157-5.663
			c0.443-0.603,1.298-0.734,1.901-0.291l0.085,0.062c0.603,0.443,0.734,1.298,0.291,1.901l-4.157,5.663
			C150.109,86.714,149.254,86.845,148.651,86.402z"/>
		<path style="opacity:0.9;fill:#040000;" d="M155.61,86.402l-0.085-0.062c-0.603-0.443-0.734-1.298-0.291-1.901l4.157-5.663
			c0.443-0.603,1.298-0.734,1.901-0.291l0.085,0.062c0.603,0.443,0.734,1.298,0.291,1.901l-4.157,5.663
			C157.069,86.714,156.213,86.845,155.61,86.402z"/>
	</g>
	<path style="clip-path:url(#SVGID_2_);fill:#040000;" d="M216.335,333.713h-0.005c-0.748,0-1.36-0.612-1.36-1.36v-71.214
		c0-0.748,0.612-1.36,1.36-1.36h0.005c0.748,0,1.36,0.612,1.36,1.36v71.214C217.695,333.101,217.083,333.713,216.335,333.713z"/>
	<path style="clip-path:url(#SVGID_2_);fill:#040000;" d="M86.932,333.796h-0.005c-0.748,0-1.36-0.612-1.36-1.36v-71.214
		c0-0.748,0.612-1.36,1.36-1.36h0.005c0.748,0,1.36,0.612,1.36,1.36v71.214C88.292,333.184,87.68,333.796,86.932,333.796z"/>
	<g style="clip-path:url(#SVGID_2_);">
		<circle style="fill:#040000;" cx="170.737" cy="105.372" r="2.452"/>
		<circle style="fill:#040000;" cx="133.497" cy="105.372" r="2.452"/>
	</g>
</g>
</svg>
