<?xml version="1.0" encoding="utf-8"?>
<!-- Generator: Adobe Illustrator 18.0.0, SVG Export Plug-In . SVG Version: 6.00 Build 0)  -->
<!DOCTYPE svg PUBLIC "-//W3C//DTD SVG 1.1//EN" "http://www.w3.org/Graphics/SVG/1.1/DTD/svg11.dtd">
<svg version="1.1" id="圖層_1" xmlns="http://www.w3.org/2000/svg" xmlns:xlink="http://www.w3.org/1999/xlink" x="0px" y="0px"
	 viewBox="0 0 300 300" enable-background="new 0 0 300 300" xml:space="preserve">
<g>
	<defs>
		<rect id="SVGID_1_" x="0" width="300" height="300"/>
	</defs>
	<clipPath id="SVGID_2_">
		<use xlink:href="#SVGID_1_"  overflow="visible"/>
	</clipPath>
	<rect x="0" y="-3.8" opacity="0.9" clip-path="url(#SVGID_2_)" fill="#666674" width="300" height="303.7"/>
	<g opacity="0.75" clip-path="url(#SVGID_2_)">
		<g opacity="0.75">
			<path fill="#F7F7F7" d="M125.4,189.6c-1.3-1-3.3-0.8-4.3,0.5l-9.9,12.8c-1,1.3-0.8,3.3,0.5,4.3l23.7,18.4c1.3,1,3.3,0.8,4.3-0.5
				l9.9-12.8c1-1.3,0.8-3.3-0.5-4.3L125.4,189.6z"/>
			<path fill="#F7F7F7" d="M182.4,190.2c-1-1.3-3-1.6-4.3-0.6l-23.8,18.1c-1.3,1-1.6,3-0.6,4.3l9.8,12.9c1,1.3,3,1.6,4.3,0.6
				l23.8-18.1c1.3-1,1.6-3,0.6-4.3L182.4,190.2z"/>
			<path fill="#F7F7F7" d="M199,208c-1.1,0-2.2,0.3-3,1l-28.5,21.6c-1.6,1.2-3.8,1-5.2-0.4l-9.2-10.9c-0.7-0.9-2.2-0.9-2.9,0
				l-9.7,11.1c-1.2,1.2-3.2,1.3-4.5,0.3l-29-21.8c-0.9-0.6-1.9-1-3-1c-27.9,0.5-40.7,14.3-40.7,41.8v80.9c0,28.1,23.8,51,52.9,51h71
				c29.1,0,52.9-23,52.9-51v-80.9C239.9,222.3,226.9,208.5,199,208z"/>
			<path fill="#F7F7F7" d="M92.5,127.8c3.3,22.2,17.7,40.5,37.1,48.6c0.2,0.1,0.4,0.2,0.5,0.4c0.9,1.1,1.4,2.6,1.4,4.1v7.3
				c0,1.2,0.6,2.3,1.5,3l16.3,12c0.7,0.4,1.4,0.6,2.2,0.6c0.8,0,1.5-0.2,2.2-0.6l16.3-12c1-0.7,1.5-1.8,1.5-3v-7.3
				c0-1.6,0.6-3.1,1.6-4.3c0.1-0.1,0.3-0.3,0.5-0.3c19.2-8.1,33.4-26.3,36.7-48.4c3.6-0.4,6.1-3.6,7.2-6.9c1.2-3.4,1.8-7.5,1.2-11.2
				c-0.6-3.9-2.7-8.4-6.8-9.4c-1-0.3-2.2-0.3-3.3-0.1c-7.3-25.9-30.1-44.9-57.2-44.9c-27.1,0-49.9,18.9-57.2,44.9
				c-1-0.2-2.1-0.1-3.1,0.1c-4.1,1-6.3,5.5-6.8,9.4c-0.6,3.6,0.1,7.7,1.2,11.2C86.7,124.2,89.1,127.3,92.5,127.8z M151.9,116.3
				c0.3-0.7,1.4-0.7,1.7,0c1,2.2,2.5,6.1,2.5,9c0,4.3-2.9,4.9-3.4,4.9c-0.5,0-3.4-0.6-3.4-4.9C149.3,122.4,150.9,118.5,151.9,116.3z
				"/>
		</g>
	</g>
	<rect x="0" y="0.2" clip-path="url(#SVGID_2_)" fill="none" width="300" height="300"/>
	<g clip-path="url(#SVGID_2_)">
		<path opacity="0.9" fill="#666674" d="M141.7,86.4L141.7,86.4c-0.7-0.5-0.8-1.4-0.4-2l4.2-5.7c0.4-0.6,1.3-0.7,1.9-0.3l0.1,0.1
			c0.6,0.4,0.7,1.3,0.3,1.9l-4.2,5.7C143.1,86.7,142.3,86.8,141.7,86.4z"/>
		<path opacity="0.9" fill="#666674" d="M148.6,86.4L148.6,86.4c-0.7-0.5-0.8-1.4-0.4-2l4.2-5.7c0.4-0.6,1.3-0.7,1.9-0.3l0.1,0.1
			c0.6,0.4,0.7,1.3,0.3,1.9l-4.2,5.7C150.1,86.7,149.2,86.8,148.6,86.4z"/>
		<path opacity="0.9" fill="#666674" d="M155.6,86.4L155.6,86.4c-0.7-0.5-0.8-1.4-0.4-2l4.2-5.7c0.4-0.6,1.3-0.7,1.9-0.3l0.1,0.1
			c0.6,0.4,0.7,1.3,0.3,1.9l-4.2,5.7C157,86.7,156.2,86.8,155.6,86.4z"/>
	</g>
	<path opacity="0.9" clip-path="url(#SVGID_2_)" fill="#666674" d="M216.3,333.7L216.3,333.7c-0.8,0-1.4-0.6-1.4-1.4v-71.2
		c0-0.7,0.6-1.4,1.4-1.4h0c0.7,0,1.4,0.6,1.4,1.4v71.2C217.7,333.1,217,333.7,216.3,333.7z"/>
	<path opacity="0.9" clip-path="url(#SVGID_2_)" fill="#666674" d="M86.9,333.8L86.9,333.8c-0.8,0-1.4-0.6-1.4-1.4v-71.2
		c0-0.7,0.6-1.4,1.4-1.4h0c0.7,0,1.4,0.6,1.4,1.4v71.2C88.3,333.2,87.6,333.8,86.9,333.8z"/>
	<g clip-path="url(#SVGID_2_)">
		<circle fill="#666674" cx="170.7" cy="105.4" r="2.5"/>
		<circle fill="#666674" cx="133.5" cy="105.4" r="2.5"/>
	</g>
	<circle clip-path="url(#SVGID_2_)" fill="none" cx="150" cy="150.2" r="150"/>
</g>
</svg>
