<?xml version="1.0" encoding="utf-8"?>
<!-- Generator: Adobe Illustrator 16.0.0, SVG Export Plug-In . SVG Version: 6.00 Build 0)  -->
<!DOCTYPE svg PUBLIC "-//W3C//DTD SVG 1.1//EN" "http://www.w3.org/Graphics/SVG/1.1/DTD/svg11.dtd">
<svg version="1.1" xmlns="http://www.w3.org/2000/svg" xmlns:xlink="http://www.w3.org/1999/xlink" x="0px" y="0px" width="50px"
	 height="50px" viewBox="0 0 50 50" enable-background="new 0 0 50 50" xml:space="preserve">
<g id="圖層_2">
</g>
<g id="圖層_1">
	<g>
		<g>
			<path fill="#C6000B" d="M26.751,29.429c-1.651,0-3.203-0.642-4.369-1.81c-2.409-2.408-2.41-6.327-0.001-8.736
				c1.166-1.166,2.718-1.81,4.368-1.81s3.202,0.644,4.369,1.81c2.409,2.409,2.409,6.328,0,8.736
				C29.952,28.788,28.4,29.429,26.751,29.429z M26.749,19.071c-1.117,0-2.167,0.436-2.956,1.225c-1.63,1.63-1.63,4.282,0.001,5.912
				c0.79,0.791,1.839,1.225,2.957,1.225c1.116,0,2.165-0.434,2.955-1.225c0.79-0.789,1.224-1.838,1.224-2.955
				s-0.434-2.167-1.224-2.957C28.916,19.506,27.866,19.071,26.749,19.071z"/>
		</g>
		<g>
			
				<rect x="19.114" y="25.888" transform="matrix(0.7071 0.7071 -0.7071 0.7071 26.8192 -5.9661)" fill="#C6000B" width="2.996" height="7.005"/>
		</g>
	</g>
</g>
</svg>
