<svg xmlns="http://www.w3.org/2000/svg" width="50" height="50"><path fill="#C6000B" d="M26.751 29.429a6.132 6.132 0 0 1-4.369-1.81 6.183 6.183 0 0 1-.001-8.736c1.166-1.166 2.718-1.81 4.368-1.81s3.202.644 4.369 1.81a6.183 6.183 0 0 1 0 8.736 6.126 6.126 0 0 1-4.367 1.81zm-.002-10.358a4.154 4.154 0 0 0-2.956 1.225 4.184 4.184 0 0 0 .001 5.912 4.148 4.148 0 0 0 2.957 1.225 4.147 4.147 0 0 0 2.955-1.225c.79-.789 1.224-1.838 1.224-2.955s-.434-2.167-1.224-2.957a4.154 4.154 0 0 0-2.957-1.225z"/><path fill="#C6000B" d="M22.03 25.855l2.118 2.118-4.953 4.954-2.119-2.119z"/></svg>