<svg xmlns="http://www.w3.org/2000/svg" viewBox="0 0 19.7 20.2"><style></style><g id="圖層_1"><path d="M10.2 17.9c12-6 9.3-14.2 6.1-15.4-3.9-1.5-6.1 1.4-6.1 1.4S8 .9 4.1 2.5c-3.2 1.2-5.9 9.4 6.1 15.4z" fill="#fff"/><path d="M11.4 9.5l-.4-.1V7.5c.6.2.7.7.7.9h1.4c0-.8-.6-2-2.2-2.3v-1h-.4V6h-.8v-.8h-.3v.9c-1.9.3-2.3 1.5-2.3 2.3 0 1.4 1.1 1.8 2.3 2.1v1.9c-.6-.2-.8-.6-.9-1H7.2c0 .8.6 2 2.2 2.3v1h.4v-.9h.8v.9h.4v-.9c.9-.1 2.3-.6 2.3-2.3 0-1-.8-1.8-1.9-2zm-2-.5c-.3-.1-.9-.2-.9-.8 0-.5.4-.7.9-.8V9zm1.2 3.4h-.8v-1.9l.8.2v1.7zm0-3.1c-.3-.1-.6-.2-.8-.2V7.4c.2 0 .5 0 .8.1v1.8zm.4 3.1v-1.6c.6.1.9.3.9.8s-.4.7-.9.8z" fill="#666674"/></g></svg>