<svg id="Layer_1" xmlns="http://www.w3.org/2000/svg" viewBox="0 0 31 16"><style>.st0{fill:#7f7f7f}</style><g id="Page-1"><g id="FONTSIZE_2" transform="translate(-119 -17)"><g id="M" transform="translate(119 17)"><path class="st0" d="M28.2 3.8h-2.3V2.2c0-.7-.6-1.2-1.3-1.2s-1.3.6-1.3 1.2v1.5H21c-1.3 0-2.3 1-2.3 2.2v3c0 1.2 1 2.2 2.3 2.2h2.3v3c0 .7.6 1.2 1.3 1.2s1.3-.6 1.3-1.2v-3h2.3c1.3 0 2.3-1 2.3-2.2V6c0-1.2-1.1-2.2-2.3-2.2zm-7 5V6.2h2.1v2.5h-2.1zm4.6-2.6h2.1v2.5h-2.1V6.2z"/><path id="Ms" class="st0" d="M2 0h12.5c1.1 0 2 .9 2 2v12c0 1.1-.9 2-2 2H2c-1.1 0-2-.9-2-2V2C0 .9.9 0 2 0z"/></g></g></g></svg>