<?xml version="1.0" encoding="utf-8"?>
<!-- Generator: Adobe Illustrator 19.2.0, SVG Export Plug-In . SVG Version: 6.00 Build 0)  -->
<svg version="1.1" id="Layer_1" xmlns="http://www.w3.org/2000/svg" xmlns:xlink="http://www.w3.org/1999/xlink" x="0px" y="0px"
	 viewBox="0 0 31 16" style="enable-background:new 0 0 31 16;" xml:space="preserve">
<style type="text/css">
	.st0{fill:#7F7F7F;}
</style>
<title>M</title>
<desc>Created with Sketch.</desc>
<g id="Page-1">
	<g id="FONTSIZE_2" transform="translate(-119.000000, -17.000000)">
		<g id="M" transform="translate(119.000000, 17.000000)">
			<path class="st0" d="M28.2,3.8h-2.3V2.2c0-0.7-0.6-1.2-1.3-1.2s-1.3,0.6-1.3,1.2v1.5h-2.3c-1.3,0-2.3,1-2.3,2.2v3
				c0,1.2,1,2.2,2.3,2.2h2.3v3c0,0.7,0.6,1.2,1.3,1.2s1.3-0.6,1.3-1.2v-3h2.3c1.3,0,2.3-1,2.3-2.2V6C30.5,4.8,29.4,3.8,28.2,3.8z
				 M21.2,8.8V6.2h2.1v2.5H21.2z M25.8,6.2h2.1v2.5h-2.1V6.2z"/>
			<path id="Ms" class="st0" d="M2,0h12.5c1.1,0,2,0.9,2,2v12c0,1.1-0.9,2-2,2H2c-1.1,0-2-0.9-2-2V2C0,0.9,0.9,0,2,0z"/>
		</g>
	</g>
</g>
</svg>
