<svg width="39" height="23" xmlns="http://www.w3.org/2000/svg"><g fill="#7F7F7F" fill-rule="evenodd"><path d="M32.614 14.74c.088-.322.161-.652.22-.99h3.916a1.25 1.25 0 0 0 0-2.5h-3.745A78.485 78.485 0 0 0 33 9.205a1.25 1.25 0 1 0-2.498.09 77.191 77.191 0 0 1 .004 1.955H26.75a1.25 1.25 0 1 0 0 2.5h3.53c-.588 2.57-2.307 4.463-4.546 5.48a1.25 1.25 0 1 0 1.033 2.276c2.03-.921 3.741-2.412 4.854-4.36l5.195 4.151a1.25 1.25 0 0 0 1.56-1.953l-5.762-4.604z"/><rect width="23" height="23" rx="2"/></g></svg>