<svg width="31" height="24" xmlns="http://www.w3.org/2000/svg"><g fill="none" fill-rule="evenodd"><path d="M9.294 14.29v-.634c0-.437.198-.852.541-1.135l1.808-1.491.17-.144h-6.17c-.853 0-1.546-.669-1.546-1.494 0-.824.693-1.493 1.546-1.493h5.938c3.878 0 5.016 2.97 2.071 5.4l-1.2.991h5.778c.855 0 1.547.669 1.547 1.493 0 .825-.692 1.494-1.547 1.494h-5.844v2.67c0 2.24-1.879 4.053-4.205 4.053h-.898c-.854 0-1.546-.669-1.546-1.494 0-.824.692-1.492 1.546-1.492h.898c.62 0 1.113-.477 1.113-1.068v-2.67H1.547C.693 17.277 0 16.609 0 15.784c0-.824.693-1.493 1.547-1.493h7.747zM12.59 2.37h2.492c2.207 0 3.997 1.732 3.997 3.862v2.37c0 .825-.693 1.494-1.547 1.494-.853 0-1.546-.669-1.546-1.494v-2.37c0-.483-.406-.876-.904-.876H4.077c-.5 0-.904.39-.904.876v2.37c0 .825-.692 1.494-1.546 1.494-.854 0-1.546-.669-1.546-1.494v-2.37C.081 4.1 1.867 2.37 4.077 2.37h4.25a1.456 1.456 0 0 1 .17-1.942 1.586 1.586 0 0 1 2.186.019l1.704 1.676c.078.076.146.16.203.247z" fill="#7F7F7F"/><g transform="translate(15 8)"><ellipse fill="#F1F1F1" cx="9" cy="7" rx="7" ry="7"/><path d="M8.25 6.25H7a.75.75 0 0 0 0 1.5h1.25V9a.75.75 0 0 0 1.5 0V7.75H11a.75.75 0 0 0 0-1.5H9.75V5a.75.75 0 0 0-1.5 0v1.25zm-2.383 5.868a6 6 0 1 0-1.985-1.985c-.16.072-.31.175-.443.306l-3 3a1.5 1.5 0 0 0 2.122 2.122l3-3c.131-.132.234-.282.306-.443zM13 7a4 4 0 1 0-8 0 4 4 0 0 0 8 0z" fill="#7F7F7F"/></g></g></svg>