<?xml version="1.0" encoding="UTF-8" standalone="no"?>
<svg width="50px" height="53px" viewBox="0 0 50 53" version="1.1" xmlns="http://www.w3.org/2000/svg" xmlns:xlink="http://www.w3.org/1999/xlink">
    <!-- Generator: Sketch 39.1 (31720) - http://www.bohemiancoding.com/sketch -->
    <title>Path</title>
    <desc>Created with Sketch.</desc>
    <defs></defs>
    <g id="Components" stroke="none" stroke-width="1" fill="none" fill-rule="evenodd">
        <g id="Placeholder" transform="translate(-784.000000, -226.000000)" fill="#BFBFBF">
            <path d="M832.136197,269.956967 C833.082917,270.193647 834,269.47761 834,268.501753 L834,235.501753 C834,234.477916 832.996955,233.754962 832.025658,234.078728 L814.025658,240.078728 C813.413145,240.282899 813,240.856107 813,241.501753 L813,263.501753 L813.847876,262.150925 L784.847876,276.150925 L787,277.501753 L787,227.501753 L784.875018,228.86535 L808.875018,239.86535 C809.628112,240.210518 810.518429,239.879829 810.863597,239.126735 C811.208765,238.373641 810.878076,237.483324 810.124982,237.138156 L786.124982,226.138156 C785.131404,225.682766 784,226.408785 784,227.501753 L784,277.501753 C784,278.607741 785.156124,279.333408 786.152124,278.85258 L815.152124,264.85258 C815.670544,264.602308 816,264.077423 816,263.501753 L816,241.501753 L814.974342,242.924778 L832.974342,236.924778 L831,235.501753 L831,268.501753 L832.863803,267.046539 L820.863803,264.046539 C820.060111,263.845616 819.245709,264.334257 819.044786,265.137949 C818.843863,265.941642 819.332504,266.756044 820.136197,266.956967 L832.136197,269.956967 Z" id="Path"></path>
        </g>
    </g>
</svg>