<?xml version="1.0" encoding="UTF-8" standalone="no"?>
<svg width="24px" height="24px" viewBox="0 0 24 24" version="1.1" xmlns="http://www.w3.org/2000/svg" xmlns:xlink="http://www.w3.org/1999/xlink">
    <!-- Generator: Sketch 3.8.3 (29802) - http://www.bohemiancoding.com/sketch -->
    <title>icon-rss</title>
    <desc>Created with Sketch.</desc>
    <defs></defs>
    <g id="Article" stroke="none" stroke-width="1" fill="none" fill-rule="evenodd">
        <g id="Topic-–-Mobile-Portrait" transform="translate(-244.000000, -8272.000000)" fill="#BFBFBF">
            <g id="Group-2" transform="translate(52.000000, 8272.000000)">
                <path d="M198.503,20.752 C198.503,22.546 197.047,24 195.252,24 C193.456,24 192,22.546 192,20.752 C192,18.958 193.456,17.504 195.252,17.504 C197.047,17.505 198.503,18.958 198.503,20.752 L198.503,20.752 Z M192,8.18 L192,12.991 C198.05,13.053 202.96,17.957 203.022,24 L207.839,24 C207.777,15.29 200.721,8.242 192,8.18 L192,8.18 Z M192,4.812 C202.58,4.858 211.152,13.406 211.183,24 L216,24 C215.97,10.769 205.245,0.046 192,0 L192,4.812 L192,4.812 Z" id="icon-rss"></path>
            </g>
        </g>
    </g>
</svg>