<svg width="24" height="24" xmlns="http://www.w3.org/2000/svg"><g fill="none" fill-rule="evenodd"><path d="M12 2.165c3.203 0 3.583.012 4.847.07 1.17.054 1.805.249 2.228.413.56.218.96.478 1.38.898.42.42.68.819.897 1.379.164.423.36 1.058.413 2.227.058 1.265.07 1.645.07 4.848s-.012 3.583-.07 4.847c-.054 1.17-.249 1.805-.413 2.228-.218.56-.478.96-.898 1.38-.42.42-.819.68-1.379.897-.423.164-1.058.36-2.228.413-1.264.058-1.644.07-4.847.07-3.203 0-3.583-.012-4.847-.07-1.17-.054-1.805-.249-2.228-.413a3.716 3.716 0 0 1-1.38-.898c-.42-.42-.68-.819-.897-1.379-.164-.423-.36-1.058-.413-2.227-.058-1.265-.07-1.645-.07-4.848s.012-3.583.07-4.847c.054-1.17.249-1.805.413-2.228.218-.56.478-.96.898-1.38.42-.42.819-.68 1.379-.897.423-.164 1.058-.36 2.227-.413 1.265-.058 1.645-.07 4.848-.07m0-2.161c-3.258 0-3.666.014-4.946.072-1.277.058-2.149.261-2.912.558a5.88 5.88 0 0 0-2.125 1.383A5.88 5.88 0 0 0 .634 4.142c-.297.763-.5 1.635-.558 2.912C.018 8.334.004 8.742.004 12s.014 3.667.072 4.946c.058 1.277.261 2.149.558 2.912a5.88 5.88 0 0 0 1.383 2.125 5.88 5.88 0 0 0 2.125 1.383c.763.297 1.635.5 2.912.558 1.28.058 1.688.072 4.946.072s3.667-.014 4.946-.072c1.277-.058 2.149-.261 2.912-.558a5.88 5.88 0 0 0 2.125-1.383 5.88 5.88 0 0 0 1.383-2.125c.297-.763.5-1.635.558-2.912.058-1.28.072-1.688.072-4.946s-.014-3.667-.072-4.946c-.058-1.277-.261-2.149-.558-2.912a5.88 5.88 0 0 0-1.383-2.125A5.88 5.88 0 0 0 19.858.634c-.763-.297-1.635-.5-2.912-.558C15.666.018 15.258.004 12 .004" fill="#BFBFBF"/><rect fill="#BFBFBF" x="2.1" y="2" width="19.8" height="20.4" rx="5"/><path d="M12 5.84a6.16 6.16 0 1 0 0 12.32 6.16 6.16 0 0 0 0-12.32zm0 10.159A3.999 3.999 0 1 1 12 8 3.999 3.999 0 0 1 12 16zM19.843 5.596a1.44 1.44 0 1 1-2.879 0 1.44 1.44 0 0 1 2.88 0" fill="#F3F3F3"/></g></svg>