<svg width="24" height="24" xmlns="http://www.w3.org/2000/svg"><g fill="none" fill-rule="evenodd"><path d="M19.59.021L4.358 0A4.332 4.332 0 0 0 .021 4.325L0 19.557a4.333 4.333 0 0 0 4.325 4.338l15.23.021a4.332 4.332 0 0 0 4.338-4.326l.022-15.231A4.33 4.33 0 0 0 19.589.02" fill="#BFBFBF"/><path d="M17.307 10.581a.457.457 0 0 1 0 .913h-1.274v.817h1.274a.457.457 0 0 1 0 .914h-1.731a.457.457 0 0 1-.456-.458v-3.46c0-.25.205-.456.456-.456h1.731a.457.457 0 0 1 0 .914h-1.274v.816h1.274zm-2.8 2.186a.455.455 0 0 1-.822.275l-1.773-2.414v2.14a.457.457 0 1 1-.913 0v-3.46a.457.457 0 0 1 .821-.274l1.774 2.415V9.308a.458.458 0 0 1 .913 0v3.46zm-4.165 0a.457.457 0 1 1-.913 0v-3.46a.457.457 0 0 1 .913 0v3.46zm-1.79.458h-1.73a.457.457 0 0 1-.456-.458v-3.46a.457.457 0 0 1 .913 0v3.004h1.273a.457.457 0 1 1 0 .914zm12.117-2.319c0-3.896-3.906-7.066-8.707-7.066s-8.708 3.17-8.708 7.066c0 3.493 3.098 6.42 7.282 6.973.284.06.67.187.767.429.088.22.058.564.028.787 0 0-.101.614-.124.746-.038.22-.175.86.755.469.929-.392 5.014-2.953 6.84-5.056 1.262-1.383 1.867-2.788 1.867-4.348z" fill="#F3F3F3"/></g></svg>