<svg width="26" height="24" xmlns="http://www.w3.org/2000/svg"><path d="M12.442 2.71C11.142 1.05 9.227 0 7.09 0 3.374 0 .325 3.18.024 7.227H0V8.54c0 7.983 12.167 15.24 12.167 15.24.46.292 1.208.295 1.676-.007 0 0 12.157-7.25 12.157-15.232V7.227h-.024C25.676 3.18 22.626 0 18.909 0c-1.871 0-3.573.806-4.84 2.123l.023.012c.2.108.299.27.299.487 0 .289-.023.6-.07.931a29.58 29.58 0 0 0-.114.931c.322.073.659.163 1.011.271a8.22 8.22 0 0 1 1.023.39c.33.151.636.335.92.552.283.216.51.469.678.758.046.086.084.17.115.249.03.079.046.162.046.249a.765.765 0 0 1-.172.508 1.45 1.45 0 0 1-.437.347 2.176 2.176 0 0 1-.563.206 2.448 2.448 0 0 1-1.31-.054c-.246-.08-.495-.163-.748-.25a13.41 13.41 0 0 0-.816-.249 3.666 3.666 0 0 0-.965-.119c-.138 0-.303.015-.495.044a2.2 2.2 0 0 0-.54.151 1.33 1.33 0 0 0-.425.282.589.589 0 0 0-.173.433c0 .26.161.494.483.703.322.21.728.426 1.218.65.49.224 1.016.47 1.575.736.56.267 1.084.574 1.575.92.49.347.896.747 1.218 1.202.322.455.483.992.483 1.613 0 .534-.1.96-.299 1.278a2.35 2.35 0 0 1-.781.768c-.322.195-.69.347-1.104.455a78.11 78.11 0 0 1-1.241.314c-.077.014-.119.097-.127.249a11.86 11.86 0 0 0-.011.541c0 .21-.004.433-.012.671-.007.238-.05.459-.126.66a1.2 1.2 0 0 1-.368.51c-.169.137-.414.205-.736.205-.29 0-.563-.09-.816-.27-.253-.18-.379-.415-.379-.704 0-.116.004-.227.012-.336.007-.108.011-.22.011-.335v-.239c0-.115-.008-.238-.023-.368a2.01 2.01 0 0 0-.069-.346c-.03-.101-.069-.159-.115-.173a25.938 25.938 0 0 0-1.08-.238 7.496 7.496 0 0 1-1.23-.358 3.533 3.533 0 0 1-1-.573A1.106 1.106 0 0 1 8 14.899c0-.332.134-.606.402-.823a1.41 1.41 0 0 1 .908-.325c.292 0 .579.044.862.13.284.087.575.18.874.282.299.1.605.195.92.281a3.644 3.644 0 0 0 1.437.098 2.17 2.17 0 0 0 .528-.13c.169-.065.314-.152.437-.26a.537.537 0 0 0 .184-.422c0-.16-.077-.303-.23-.433a2.585 2.585 0 0 0-.54-.347 6.882 6.882 0 0 0-.633-.27c-.214-.08-.383-.141-.505-.185a22.5 22.5 0 0 1-1.54-.66 8.486 8.486 0 0 1-1.483-.888 4.813 4.813 0 0 1-1.127-1.18c-.299-.447-.448-.967-.448-1.559 0-.52.111-.992.333-1.418.223-.426.521-.79.897-1.093a4.59 4.59 0 0 1 1.287-.726c.483-.18.993-.285 1.529-.313.061-.332.115-.668.16-1.007.044-.317.107-.63.19-.94z" fill="#C71B0A" fill-rule="evenodd"/></svg>