<?xml version="1.0" encoding="UTF-8" standalone="no"?>
<svg width="26px" height="24px" viewBox="0 0 26 24" version="1.1" xmlns="http://www.w3.org/2000/svg" xmlns:xlink="http://www.w3.org/1999/xlink">
    <!-- Generator: Sketch 3.8.3 (29802) - http://www.bohemiancoding.com/sketch -->
    <title>icon-donation</title>
    <desc>Created with Sketch.</desc>
    <defs></defs>
    <g id="Article" stroke="none" stroke-width="1" fill="none" fill-rule="evenodd">
        <g id="Topic-–-Mobile-Portrait" transform="translate(-72.000000, -28.000000)" fill="#C71B0A">
            <path d="M84.4416956,30.7103369 C83.1416917,29.0496908 81.2265575,28 79.0909091,28 C75.3736987,28 72.3245419,31.1800664 72.0242709,35.2267227 L72,35.2267227 L72,36.5406723 C72,44.5230897 84.1670156,51.7799163 84.1670156,51.7799163 C84.6270602,52.071606 85.3750448,52.0751112 85.8429497,51.7733883 C85.8429497,51.7733883 98,44.5230897 98,36.5406723 L98,35.2267227 L97.9757291,35.2267227 C97.6754581,31.1800664 94.6263013,28 90.9090909,28 C89.0377664,28 87.3357491,28.8059351 86.0685195,30.1226431 C86.0763428,30.1267154 86.0841543,30.1308706 86.091954,30.1351088 C86.2911887,30.2433684 86.3908046,30.4057553 86.3908046,30.6222745 C86.3908046,30.9109667 86.3678163,31.2213062 86.3218391,31.5533022 C86.2758618,31.8852983 86.237548,32.1956377 86.2068966,32.4843299 C86.5287372,32.556503 86.8658986,32.646718 87.2183908,32.7549775 C87.570883,32.8632371 87.9118757,32.9931467 88.2413793,33.1447101 C88.5708829,33.2962735 88.8773932,33.480312 89.1609195,33.6968312 C89.4444459,33.9133503 89.6704972,34.1659522 89.8390805,34.4546444 C89.8850577,34.5412521 89.9233715,34.6242499 89.954023,34.7036402 C89.9846745,34.7830306 90,34.8660283 90,34.952636 C90,35.1547206 89.9425293,35.3243247 89.8275862,35.4614535 C89.7126431,35.5985823 89.5670507,35.7140574 89.3908046,35.8078824 C89.2145585,35.9017074 89.0268209,35.9702708 88.8275862,36.0135746 C88.6283515,36.0568784 88.4444453,36.07853 88.2758621,36.07853 C88.0153244,36.07853 87.7624533,36.0388354 87.5172414,35.9594451 C87.2720294,35.8800547 87.0229898,35.7970569 86.7701149,35.7104493 C86.5172401,35.6238416 86.2452122,35.5408438 85.954023,35.4614535 C85.6628338,35.3820631 85.3409979,35.3423685 84.9885057,35.3423685 C84.850574,35.3423685 84.6858247,35.3568029 84.4942529,35.3856722 C84.302681,35.4145414 84.1226062,35.4650618 83.954023,35.5372348 C83.7854398,35.6094079 83.6436787,35.7032314 83.5287356,35.8187083 C83.4137925,35.9341852 83.3563218,36.0785291 83.3563218,36.2517445 C83.3563218,36.5115675 83.5172398,36.7461264 83.8390805,36.9554282 C84.1609211,37.1647301 84.5670474,37.381246 85.0574713,37.6049824 C85.5478952,37.8287189 86.0727941,38.0741036 86.6321839,38.3411439 C87.1915737,38.6081842 87.7164726,38.9149151 88.2068966,39.2613457 C88.6973205,39.6077764 89.1034467,40.0083308 89.4252874,40.4630211 C89.747128,40.9177113 89.908046,41.4553925 89.908046,42.0760807 C89.908046,42.6101613 89.8084301,43.0359759 89.6091954,43.3535374 C89.4099607,43.6710988 89.1494269,43.9273093 88.8275862,44.1221765 C88.5057455,44.3170438 88.1379331,44.4686049 87.7241379,44.5768645 C87.3103428,44.6851241 86.8965538,44.7897734 86.4827586,44.8908157 C86.4061299,44.9052503 86.3639847,44.9882481 86.3563218,45.1398115 C86.348659,45.2913749 86.3448276,45.4718048 86.3448276,45.6811067 C86.3448276,45.8904085 86.3409962,46.1141417 86.3333333,46.3523127 C86.3256705,46.5904838 86.2835253,46.8106083 86.2068966,47.0126929 C86.1302678,47.2147774 86.0076637,47.3843815 85.8390805,47.5215103 C85.6704972,47.6586391 85.425289,47.7272025 85.1034483,47.7272025 C84.8122591,47.7272025 84.5402311,47.6369876 84.2873563,47.4565549 C84.0344815,47.2761223 83.908046,47.0415634 83.908046,46.7528712 C83.908046,46.6373943 83.9118774,46.5255277 83.9195402,46.4172682 C83.9272031,46.3090086 83.9310345,46.197142 83.9310345,46.0816651 L83.9310345,45.8434952 C83.9310345,45.7280184 83.9233717,45.605326 83.908046,45.4754145 C83.8927202,45.345503 83.869732,45.2300279 83.8390805,45.1289856 C83.808429,45.0279433 83.7701152,44.9702057 83.7241379,44.9557711 C83.4329487,44.8835981 83.0727991,44.8042089 82.6436782,44.7176013 C82.2145572,44.6309936 81.8045997,44.5119098 81.4137931,44.3603464 C81.0229866,44.208783 80.6896566,44.0175273 80.4137931,43.7865735 C80.1379297,43.5556198 80,43.2597147 80,42.8988494 C80,42.5668534 80.1340983,42.2925999 80.4022989,42.0760807 C80.6704994,41.8595616 80.9731784,41.7513036 81.3103448,41.7513036 C81.601534,41.7513036 81.8888875,41.7946068 82.1724138,41.8812145 C82.4559401,41.9678221 82.7471249,42.0616457 83.045977,42.162688 C83.3448291,42.2637302 83.6513394,42.3575538 83.9655172,42.4441614 C84.2796951,42.5307691 84.6053623,42.5740723 84.9425287,42.5740723 C85.0651347,42.5740723 85.2183899,42.5632465 85.4022989,42.5415946 C85.5862078,42.5199427 85.7624513,42.4766395 85.9310345,42.4116837 C86.0996177,42.346728 86.2452101,42.2601216 86.3678161,42.151862 C86.4904221,42.0436025 86.5517241,41.9028671 86.5517241,41.7296518 C86.5517241,41.5708711 86.4750966,41.4265271 86.3218391,41.2966156 C86.1685816,41.1667041 85.9885068,41.051229 85.7816092,40.9501867 C85.5747116,40.8491444 85.3639857,40.7589295 85.1494253,40.6795391 C84.9348648,40.6001488 84.7662841,40.5388026 84.6436782,40.4954988 C84.1532543,40.3078488 83.6398494,40.0877243 83.1034483,39.8351186 C82.5670471,39.5825129 82.0727992,39.2866079 81.6206897,38.9473945 C81.1685801,38.6081812 80.7931049,38.2148439 80.4942529,37.767371 C80.1954008,37.3198981 80.045977,36.8002599 80.045977,36.2084409 C80.045977,35.6887949 80.157087,35.2160685 80.3793103,34.7902475 C80.6015337,34.3644264 80.9003813,33.999958 81.2758621,33.6968312 C81.6513429,33.3937043 82.0804574,33.1519282 82.5632184,32.9714956 C83.0459794,32.791063 83.5555529,32.6864136 84.091954,32.6575444 C84.153257,32.3255484 84.2068963,31.9899487 84.2528736,31.6507353 C84.2957873,31.3341237 84.3587274,31.0206603 84.4416956,30.7103369 Z" id="icon-donation"></path>
        </g>
    </g>
</svg>