<svg width="68" height="24" xmlns="http://www.w3.org/2000/svg"><g fill="none" fill-rule="evenodd"><path d="M2.182.528L65.449.64c.884 0 1.674-.13 1.674 1.764l-.078 20.835H.585V2.327c0-.934.09-1.799 1.597-1.799" fill="#BFBFBF"/><path d="M66.002.28H1.534C.842.28.279.841.279 1.532v21.905c0 .156.127.283.284.283h66.41a.283.283 0 0 0 .283-.283V1.533c0-.691-.563-1.254-1.254-1.254zM1.534.845h64.468c.38 0 .687.308.687.687v15.19H20.612a9.914 9.914 0 0 1-8.678 5.126 9.906 9.906 0 0 1-8.676-5.127H.846V1.533c0-.38.308-.687.688-.687z" fill="#7F7F7F"/><path d="M19.548 11.188a7.61 7.61 0 0 1-7.605 7.613 7.61 7.61 0 0 1-7.616-7.604v-.01a7.61 7.61 0 0 1 7.606-7.613 7.61 7.61 0 0 1 7.615 7.604v.01" fill="#F3F3F3"/><path d="M18.124 4.99c1.688 1.688 2.532 3.753 2.532 6.198 0 2.445-.83 4.488-2.489 6.133-1.76 1.731-3.84 2.596-6.24 2.596-2.372 0-4.416-.858-6.132-2.575-1.717-1.716-2.575-3.768-2.575-6.154s.858-4.452 2.575-6.198C7.467 3.3 9.512 2.458 11.926 2.458c2.445 0 4.51.843 6.198 2.532zM6.931 6.125c-1.427 1.441-2.14 3.129-2.14 5.065 0 1.936.706 3.61 2.118 5.021 1.412 1.412 3.093 2.118 5.044 2.118 1.95 0 3.645-.714 5.087-2.14 1.368-1.324 2.052-2.99 2.052-4.999 0-1.994-.696-3.686-2.086-5.076-1.39-1.39-3.074-2.085-5.053-2.085-1.98 0-3.655.699-5.022 2.096zm3.754 4.213c-.218-.475-.544-.712-.98-.712-.769 0-1.153.518-1.153 1.553 0 1.036.384 1.553 1.153 1.553.509 0 .872-.252 1.09-.757l1.066.568c-.509.903-1.271 1.355-2.288 1.355-.785 0-1.412-.24-1.885-.721-.472-.482-.708-1.144-.708-1.99 0-.83.243-1.489.73-1.977.486-.489 1.094-.732 1.82-.732 1.075 0 1.844.423 2.31 1.27l-1.155.59zm5.018 0c-.219-.475-.538-.712-.96-.712-.784 0-1.177.518-1.177 1.553 0 1.036.393 1.553 1.177 1.553.51 0 .866-.252 1.07-.757l1.09.568c-.508.903-1.27 1.355-2.285 1.355-.783 0-1.41-.24-1.882-.721-.47-.482-.706-1.144-.706-1.99 0-.83.238-1.489.717-1.977.479-.489 1.088-.732 1.828-.732 1.073 0 1.842.423 2.305 1.27l-1.177.59z" fill="#7F7F7F"/><path d="M27.122 18.557c.176 0 .337.015.482.046.146.032.27.082.373.153.104.07.184.164.242.282a1 1 0 0 1 .085.435.803.803 0 0 1-.127.465.919.919 0 0 1-.376.305c.229.066.399.18.512.345.112.164.169.362.169.593a.946.946 0 0 1-.402.818c-.123.086-.263.15-.42.192-.158.04-.32.061-.486.061H25.38v-3.695h1.743zm-.104 1.495a.588.588 0 0 0 .358-.104c.093-.069.14-.18.14-.335a.43.43 0 0 0-.047-.212.347.347 0 0 0-.125-.13.527.527 0 0 0-.178-.064 1.23 1.23 0 0 0-.21-.018h-.762v.863h.824zm.047 1.568c.08 0 .156-.007.229-.023a.585.585 0 0 0 .192-.077.4.4 0 0 0 .132-.148.507.507 0 0 0 .049-.239c0-.189-.053-.324-.16-.405a.687.687 0 0 0-.426-.121h-.887v1.013h.871zM28.625 18.557h.912l.865 1.46.861-1.46h.906l-1.372 2.277v1.418h-.815v-1.438l-1.357-2.257M40.754 18.557l1.544 2.48h.009v-2.48h.762v3.695h-.813l-1.538-2.474h-.01v2.474h-.763v-3.695h.81M46.155 19.542a.817.817 0 0 0-.427-.342.844.844 0 0 0-.287-.05.952.952 0 0 0-.467.106.87.87 0 0 0-.31.285 1.27 1.27 0 0 0-.174.406 2.049 2.049 0 0 0 0 .924c.037.146.095.279.174.395.08.118.183.211.31.282.129.071.284.107.467.107.248 0 .442-.076.582-.228.14-.152.225-.352.256-.6h.787c-.02.23-.074.44-.16.625a1.452 1.452 0 0 1-.839.779c-.19.07-.399.104-.626.104-.284 0-.538-.049-.765-.148a1.646 1.646 0 0 1-.572-.407 1.775 1.775 0 0 1-.358-.608 2.23 2.23 0 0 1-.125-.754c0-.276.042-.532.125-.769.083-.236.202-.443.358-.619.156-.176.347-.314.572-.414.227-.1.481-.15.765-.15.203 0 .396.03.577.088.18.059.344.144.486.257.144.112.262.25.356.416.092.166.151.357.175.57h-.787a.649.649 0 0 0-.093-.255M55.175 18.557l1.544 2.48h.01v-2.48h.762v3.695h-.814l-1.538-2.474h-.01v2.474h-.763v-3.695h.809M59.8 18.557c.238 0 .46.037.665.113.206.076.384.19.535.342.15.152.268.342.352.57.085.227.127.495.127.802 0 .27-.035.517-.103.745-.07.228-.175.425-.314.59a1.47 1.47 0 0 1-.523.391c-.21.095-.456.142-.74.142h-1.596v-3.695H59.8zm-.057 3.011c.117 0 .23-.019.34-.057a.75.75 0 0 0 .297-.189.943.943 0 0 0 .207-.343 1.51 1.51 0 0 0 .077-.518c0-.186-.018-.354-.053-.504a1.013 1.013 0 0 0-.18-.385.793.793 0 0 0-.328-.245 1.304 1.304 0 0 0-.505-.085h-.58v2.326h.725zM49.284 8.64a5.557 5.557 0 0 1-5.555 5.563 5.559 5.559 0 0 1-5.563-5.554V8.64a5.559 5.559 0 0 1 11.118-.009v.009" fill="#F3F3F3"/><path d="M43.717 2.169c1.815 0 3.348.626 4.601 1.876 1.253 1.252 1.88 2.784 1.88 4.596 0 1.811-.616 3.327-1.847 4.546-1.307 1.284-2.852 1.925-4.634 1.925-1.76 0-3.278-.637-4.552-1.91-1.275-1.271-1.912-2.793-1.912-4.561 0-1.77.637-3.301 1.912-4.596 1.241-1.25 2.76-1.876 4.552-1.876zm-5.008 4.733a5.192 5.192 0 0 0-.29 1.739c0 1.434.524 2.674 1.572 3.72 1.047 1.047 2.295 1.57 3.742 1.57s2.706-.528 3.775-1.586c.358-.346.653-.723.884-1.131l-2.44-1.087c-.165.82-.897 1.375-1.78 1.44v.998h-.744v-.998c-.726-.008-1.428-.305-1.964-.775l.892-.898c.428.404.857.585 1.444.585.379 0 .8-.148.8-.643a.484.484 0 0 0-.174-.389l-.618-.274-.768-.343-1.025-.456-3.306-1.472zm5.024-3.568c-1.469 0-2.71.517-3.726 1.553-.276.28-.517.57-.72.874l2.473 1.102c.224-.687.876-1.103 1.668-1.15v-.997h.744v.998a2.789 2.789 0 0 1 1.625.593l-.85.875c-.314-.223-.71-.38-1.106-.38-.322 0-.777.099-.777.503 0 .061.022.115.059.165l.828.367.56.25c.358.16.7.311 1.038.463l3.318 1.476c.109-.434.164-.897.164-1.385 0-1.478-.519-2.73-1.556-3.754-1.026-1.036-2.272-1.553-3.742-1.553z" fill="#7F7F7F"/><path d="M64.28 8.64a5.907 5.907 0 1 1-11.815.008v-.007a5.907 5.907 0 0 1 11.815-.01v.01" fill="#F3F3F3"/><path d="M58.28 2.169c-1.793 0-3.311.625-4.552 1.876-1.276 1.295-1.913 2.826-1.913 4.596 0 1.768.637 3.29 1.913 4.562 1.273 1.272 2.791 1.91 4.552 1.91 1.782 0 3.326-.643 4.633-1.926 1.231-1.219 1.847-2.735 1.847-4.546 0-1.813-.626-3.344-1.879-4.596-1.253-1.251-2.787-1.876-4.601-1.876zm.015 1.164c1.47 0 2.717.518 3.743 1.554 1.037 1.024 1.555 2.275 1.555 3.754 0 1.488-.507 2.723-1.522 3.704-1.07 1.058-2.328 1.586-3.776 1.586-1.447 0-2.694-.523-3.742-1.57-1.048-1.046-1.571-2.287-1.571-3.72 0-1.435.53-2.687 1.588-3.754 1.015-1.036 2.257-1.554 3.725-1.554z" fill="#7F7F7F"/><path d="M56.029 8.22h4.704V7.107H56.03v1.115zm0 2.081h4.704V9.187H56.03v1.114z" fill="#7F7F7F"/><path d="M29.17 2.779a5.994 5.994 0 1 1 0 11.987 5.994 5.994 0 0 1 0-11.987" fill="#F3F3F3"/><path d="M30.905 7.038a.418.418 0 0 0-.418-.418H27.84a.418.418 0 0 0-.418.418v2.647h.738v3.135h2.006V9.685h.74V7.038M29.164 4.46a.906.906 0 1 1-.001 1.812.906.906 0 0 1 0-1.811" fill="#7F7F7F"/><path d="M29.155 2.169c-1.792 0-3.31.625-4.552 1.876-1.274 1.295-1.911 2.826-1.911 4.595 0 1.769.637 3.29 1.911 4.563 1.275 1.272 2.792 1.909 4.552 1.909 1.782 0 3.327-.642 4.634-1.926 1.23-1.218 1.847-2.734 1.847-4.546 0-1.812-.626-3.343-1.88-4.595-1.252-1.251-2.786-1.876-4.601-1.876zm.017 1.165c1.469 0 2.716.517 3.742 1.553C33.951 5.91 34.47 7.163 34.47 8.64c0 1.489-.508 2.724-1.524 3.705-1.069 1.057-2.328 1.586-3.774 1.586-1.448 0-2.695-.523-3.743-1.57-1.047-1.046-1.571-2.286-1.571-3.721 0-1.434.529-2.686 1.587-3.753 1.016-1.036 2.258-1.553 3.727-1.553z" fill="#7F7F7F"/></g></svg>