<?xml version="1.0" encoding="UTF-8" standalone="no"?>
<svg width="68px" height="24px" viewBox="0 0 68 24" version="1.1" xmlns="http://www.w3.org/2000/svg" xmlns:xlink="http://www.w3.org/1999/xlink">
    <!-- Generator: Sketch 3.8.3 (29802) - http://www.bohemiancoding.com/sketch -->
    <title>icon-cc</title>
    <desc>Created with Sketch.</desc>
    <defs></defs>
    <g id="Article" stroke="none" stroke-width="1" fill="none" fill-rule="evenodd">
        <g id="Topic-–-Mobile-Portrait" transform="translate(-126.000000, -8320.000000)">
            <g id="icon-cc" transform="translate(126.000000, 8320.000000)">
                <path d="M2.18176744,0.528 L65.4491163,0.640186047 C66.3326512,0.640186047 67.1229767,0.509581395 67.1229767,2.40446512 L67.0453953,23.2392558 L0.584930233,23.2392558 L0.584930233,2.32688372 C0.584930233,1.39255814 0.675348837,0.528 2.18176744,0.528" id="Fill-1" fill="#BFBFBF"></path>
                <path d="M66.0022326,0.279069767 L1.53376744,0.279069767 C0.841674419,0.279069767 0.279069767,0.841674419 0.279069767,1.5332093 L0.279069767,23.4379535 C0.279069767,23.5942326 0.405767442,23.7209302 0.562604651,23.7209302 L66.9722791,23.7209302 C67.1291163,23.7209302 67.255814,23.5942326 67.255814,23.4379535 L67.255814,1.5332093 C67.255814,0.841674419 66.6932093,0.279069767 66.0022326,0.279069767 L66.0022326,0.279069767 Z M1.53376744,0.845581395 L66.0022326,0.845581395 C66.3812093,0.845581395 66.6887442,1.15367442 66.6887442,1.5332093 L66.6887442,16.7224186 L20.6115349,16.7224186 C18.9226047,19.776 15.668093,21.8489302 11.9341395,21.8489302 C8.19906977,21.8489302 4.94567442,19.7776744 3.25786047,16.7224186 L0.845581395,16.7224186 L0.845581395,1.5332093 C0.845581395,1.15367442 1.15423256,0.845581395 1.53376744,0.845581395 L1.53376744,0.845581395 Z" id="Fill-2" fill="#7F7F7F"></path>
                <path d="M19.5477209,11.187907 C19.5505116,15.3901395 16.1447442,18.7992558 11.9425116,18.8014884 C7.73916279,18.8042791 4.33004651,15.3996279 4.32725581,11.1968372 L4.32725581,11.187907 C4.32446512,6.98511628 7.73023256,3.57655814 11.9330233,3.57376744 C16.1363721,3.57153488 19.5454884,6.97618605 19.5477209,11.1784186 L19.5477209,11.187907" id="Fill-3" fill="#F3F3F3"></path>
                <path d="M18.1244651,4.98976744 C19.8117209,6.6775814 20.6556279,8.74325581 20.6556279,11.187907 C20.6556279,13.6325581 19.8262326,15.6764651 18.1674419,17.3207442 C16.4070698,19.052093 14.3268837,19.9172093 11.9263256,19.9172093 C9.55534884,19.9172093 7.51088372,19.0593488 5.79460465,17.3419535 C4.07776744,15.6256744 3.21990698,13.5739535 3.21990698,11.187907 C3.21990698,8.80186047 4.07776744,6.73562791 5.79460465,4.98976744 C7.46734884,3.30139535 9.51181395,2.45804651 11.9263256,2.45804651 C14.3709767,2.45804651 16.4366512,3.30139535 18.1244651,4.98976744 L18.1244651,4.98976744 Z M6.93097674,6.12502326 C5.50381395,7.56613953 4.79051163,9.25395349 4.79051163,11.1901395 C4.79051163,13.1263256 5.49711628,14.7996279 6.90865116,16.2111628 C8.32130233,17.6226977 10.0018605,18.3287442 11.9525581,18.3287442 C13.9032558,18.3287442 15.5983256,17.6154419 17.04,16.1893953 C18.408,14.8649302 19.0922791,13.1988837 19.0922791,11.1901395 C19.0922791,9.19646512 18.3962791,7.50418605 17.0059535,6.1144186 C15.616186,4.72409302 13.9317209,4.0292093 11.9525581,4.0292093 C9.97339535,4.0292093 8.2984186,4.728 6.93097674,6.12502326 L6.93097674,6.12502326 Z M10.6850233,10.3384186 C10.4673488,9.86288372 10.1408372,9.62567442 9.70548837,9.62567442 C8.93637209,9.62567442 8.55181395,10.1436279 8.55181395,11.1789767 C8.55181395,12.2148837 8.93637209,12.7322791 9.70548837,12.7322791 C10.2139535,12.7322791 10.5767442,12.48 10.7944186,11.9748837 L11.8610233,12.5430698 C11.352,13.4455814 10.5895814,13.8976744 9.57265116,13.8976744 C8.78846512,13.8976744 8.16055814,13.6571163 7.68837209,13.1765581 C7.21618605,12.6954419 6.98009302,12.0329302 6.98009302,11.187907 C6.98009302,10.3573953 7.22344186,9.69823256 7.71013953,9.20986047 C8.19627907,8.72148837 8.80353488,8.47813953 9.52967442,8.47813953 C10.6046512,8.47813953 11.3737674,8.9012093 11.839814,9.74734884 L10.6850233,10.3384186 L10.6850233,10.3384186 Z M15.7026977,10.3384186 C15.4844651,9.86288372 15.1646512,9.62567442 14.7432558,9.62567442 C13.9585116,9.62567442 13.5655814,10.1436279 13.5655814,11.1789767 C13.5655814,12.2148837 13.9585116,12.7322791 14.7432558,12.7322791 C15.2522791,12.7322791 15.6089302,12.48 15.812093,11.9748837 L16.9021395,12.5430698 C16.3947907,13.4455814 15.6329302,13.8976744 14.6176744,13.8976744 C13.8346047,13.8976744 13.2083721,13.6571163 12.736186,13.1765581 C12.2656744,12.6954419 12.0295814,12.0329302 12.0295814,11.187907 C12.0295814,10.3573953 12.2684651,9.69823256 12.7473488,9.20986047 C13.2256744,8.72148837 13.8346047,8.47813953 14.5746977,8.47813953 C15.648,8.47813953 16.4165581,8.9012093 16.879814,9.74734884 L15.7026977,10.3384186 L15.7026977,10.3384186 Z" id="Fill-4" fill="#7F7F7F"></path>
                <path d="M27.1216744,18.5570233 C27.2980465,18.5570233 27.4593488,18.572093 27.6044651,18.6033488 C27.7495814,18.6346047 27.8734884,18.6848372 27.9773023,18.7557209 C28.0811163,18.8260465 28.1614884,18.9203721 28.2189767,19.0375814 C28.2753488,19.1553488 28.3043721,19.2993488 28.3043721,19.4729302 C28.3043721,19.6593488 28.2619535,19.8139535 28.1771163,19.9378605 C28.0922791,20.0623256 27.9672558,20.163907 27.8009302,20.2431628 C28.0297674,20.3090233 28.2,20.4234419 28.3127442,20.588093 C28.4254884,20.7516279 28.4818605,20.9497674 28.4818605,21.1808372 C28.4818605,21.3672558 28.4455814,21.5285581 28.3730233,21.6647442 C28.3004651,21.8009302 28.2022326,21.9125581 28.08,21.9985116 C27.9572093,22.0850233 27.8165581,22.1492093 27.6597209,22.1905116 C27.5017674,22.231814 27.3404651,22.2524651 27.1741395,22.2524651 L25.3791628,22.2524651 L25.3791628,18.5570233 L27.1216744,18.5570233 L27.1216744,18.5570233 Z M27.0184186,20.0517209 C27.1629767,20.0517209 27.2824186,20.0165581 27.3756279,19.947907 C27.4688372,19.8792558 27.5157209,19.7676279 27.5157209,19.6130233 C27.5157209,19.5265116 27.4995349,19.4556279 27.4688372,19.4009302 C27.4375814,19.3456744 27.3962791,19.3026977 27.3443721,19.2714419 C27.2924651,19.2407442 27.2327442,19.2189767 27.1657674,19.2072558 C27.0982326,19.1955349 27.027907,19.1893953 26.9553488,19.1893953 L26.1940465,19.1893953 L26.1940465,20.0517209 L27.0184186,20.0517209 L27.0184186,20.0517209 Z M27.0653023,21.620093 C27.1451163,21.620093 27.2210233,21.6128372 27.2935814,21.5966512 C27.3661395,21.5810233 27.4303256,21.5547907 27.4855814,21.5196279 C27.5408372,21.4827907 27.5849302,21.4336744 27.6178605,21.3717209 C27.6507907,21.3097674 27.6669767,21.2299535 27.6669767,21.1333953 C27.6669767,20.944186 27.6139535,20.8085581 27.5062326,20.7276279 C27.3990698,20.6466977 27.2578605,20.6065116 27.0809302,20.6065116 L26.1940465,20.6065116 L26.1940465,21.620093 L27.0653023,21.620093 L27.0653023,21.620093 Z" id="Fill-5" fill="#F3F3F3"></path>
                <polyline id="Fill-6" fill="#F3F3F3" points="28.6253023 18.5570233 29.5367442 18.5570233 30.4024186 20.0165581 31.2630698 18.5570233 32.1689302 18.5570233 30.7970233 20.8342326 30.7970233 22.2524651 29.9821395 22.2524651 29.9821395 20.8135814 28.6253023 18.5570233"></polyline>
                <polyline id="Fill-7" fill="#F3F3F3" points="40.7542326 18.5570233 42.2980465 21.0362791 42.3069767 21.0362791 42.3069767 18.5570233 43.0693953 18.5570233 43.0693953 22.2524651 42.256186 22.2524651 40.7179535 19.7776744 40.707907 19.7776744 40.707907 22.2524651 39.9449302 22.2524651 39.9449302 18.5570233 40.7542326 18.5570233"></polyline>
                <path d="M46.1553488,19.5415814 C46.1067907,19.4634419 46.0465116,19.3953488 45.9733953,19.3367442 C45.9013953,19.2781395 45.819907,19.231814 45.7283721,19.1994419 C45.6368372,19.1665116 45.5408372,19.1497674 45.4409302,19.1497674 C45.2578605,19.1497674 45.1026977,19.1854884 44.9743256,19.2563721 C44.8465116,19.3266977 44.7432558,19.4215814 44.664,19.5410233 C44.5847442,19.6604651 44.5266977,19.7955349 44.4898605,19.9467907 C44.4541395,20.0986047 44.4362791,20.2554419 44.4362791,20.4178605 C44.4362791,20.5730233 44.4541395,20.7242791 44.4898605,20.8705116 C44.5266977,21.0173023 44.5847442,21.1495814 44.664,21.2662326 C44.7432558,21.384 44.8465116,21.4772093 44.9743256,21.548093 C45.1026977,21.6189767 45.2578605,21.6546977 45.4409302,21.6546977 C45.6887442,21.6546977 45.8829767,21.5787907 46.0230698,21.4269767 C46.1631628,21.2746047 46.248,21.0747907 46.2792558,20.8264186 L47.0662326,20.8264186 C47.0461395,21.0569302 46.992,21.2662326 46.9060465,21.452093 C46.820093,21.6396279 46.7062326,21.7981395 46.5644651,21.9298605 C46.4226977,22.0615814 46.2569302,22.1614884 46.0671628,22.2306977 C45.8773953,22.3004651 45.668093,22.3350698 45.4409302,22.3350698 C45.1573953,22.3350698 44.9028837,22.2859535 44.6762791,22.1871628 C44.4507907,22.0889302 44.259907,21.9527442 44.104186,21.7802791 C43.947907,21.6083721 43.8290233,21.4052093 43.7464186,21.1724651 C43.6632558,20.9391628 43.6208372,20.688 43.6208372,20.4178605 C43.6208372,20.1421395 43.6632558,19.8859535 43.7464186,19.6493023 C43.8290233,19.4126512 43.947907,19.2061395 44.104186,19.0303256 C44.259907,18.8539535 44.4507907,18.716093 44.6762791,18.6156279 C44.9028837,18.5157209 45.1573953,18.4654884 45.4409302,18.4654884 C45.644093,18.4654884 45.8372093,18.4950698 46.0180465,18.5536744 C46.1988837,18.6128372 46.3618605,18.6982326 46.504186,18.8109767 C46.648186,18.9226047 46.7659535,19.0615814 46.8597209,19.2273488 C46.9523721,19.3931163 47.0109767,19.584 47.0349767,19.7977674 L46.248,19.7977674 C46.2351628,19.7045581 46.2033488,19.6186047 46.1553488,19.5415814" id="Fill-8" fill="#F3F3F3"></path>
                <polyline id="Fill-9" fill="#F3F3F3" points="55.1748837 18.5570233 56.7192558 21.0362791 56.728186 21.0362791 56.728186 18.5570233 57.4906047 18.5570233 57.4906047 22.2524651 56.6773953 22.2524651 55.1391628 19.7776744 55.1291163 19.7776744 55.1291163 22.2524651 54.3661395 22.2524651 54.3661395 18.5570233 55.1748837 18.5570233"></polyline>
                <path d="M59.7996279,18.5570233 C60.0379535,18.5570233 60.2595349,18.5944186 60.4654884,18.6703256 C60.6714419,18.7462326 60.8489302,18.8606512 60.9996279,19.011907 C61.1497674,19.1637209 61.2675349,19.3540465 61.351814,19.5817674 C61.4366512,19.8094884 61.4790698,20.0768372 61.4790698,20.383814 C61.4790698,20.6533953 61.4444651,20.9012093 61.375814,21.1294884 C61.3060465,21.3566512 61.2011163,21.5536744 61.0615814,21.7194419 C60.9214884,21.8852093 60.7473488,22.0152558 60.5386047,22.1101395 C60.3293023,22.2050233 60.0826047,22.2524651 59.7996279,22.2524651 L58.2027907,22.2524651 L58.2027907,18.5570233 L59.7996279,18.5570233 L59.7996279,18.5570233 Z M59.7426977,21.568186 C59.859907,21.568186 59.9737674,21.5492093 60.0837209,21.5112558 C60.1947907,21.4733023 60.2930233,21.4102326 60.3795349,21.3220465 C60.4654884,21.2344186 60.5352558,21.12 60.5866047,20.9787907 C60.6385116,20.8375814 60.664186,20.6645581 60.664186,20.4613953 C60.664186,20.2749767 60.6463256,20.1069767 60.6106047,19.9573953 C60.5737674,19.8072558 60.5146047,19.6788837 60.4314419,19.5717209 C60.3488372,19.4656744 60.2388837,19.3830698 60.1026977,19.3266977 C59.9665116,19.2692093 59.7979535,19.2418605 59.5975814,19.2418605 L59.0176744,19.2418605 L59.0176744,21.568186 L59.7426977,21.568186 L59.7426977,21.568186 Z" id="Fill-10" fill="#F3F3F3"></path>
                <path d="M49.2842791,8.64055814 C49.2876279,11.7108837 46.8,14.2007442 43.7291163,14.2029767 C40.6593488,14.2052093 38.1683721,11.7186977 38.1661395,8.64893023 L38.1661395,8.64055814 C38.163907,5.57023256 40.6515349,3.08037209 43.7213023,3.07813953 C46.792186,3.07590698 49.2820465,5.56297674 49.2842791,8.63218605 L49.2842791,8.64055814" id="Fill-11" fill="#F3F3F3"></path>
                <path d="M43.7168372,2.16893023 C45.531907,2.16893023 47.0651163,2.79460465 48.3181395,4.04539535 C49.5711628,5.29674419 50.1973953,6.82883721 50.1973953,8.64055814 C50.1973953,10.4522791 49.5817674,11.968186 48.3510698,13.1871628 C47.043907,14.4708837 45.4989767,15.112186 43.7168372,15.112186 C41.9570233,15.112186 40.4388837,14.4753488 39.1646512,13.2027907 C37.8904186,11.9307907 37.2530233,10.4093023 37.2530233,8.64055814 C37.2530233,6.87125581 37.8904186,5.33972093 39.1646512,4.04539535 C40.4059535,2.79460465 41.924093,2.16893023 43.7168372,2.16893023 L43.7168372,2.16893023 Z M38.7086512,6.90195349 C38.516093,7.44837209 38.4189767,8.02772093 38.4189767,8.64055814 C38.4189767,10.0749767 38.9430698,11.3151628 39.9906977,12.3616744 C41.0383256,13.4076279 42.2863256,13.9306047 43.7330233,13.9306047 C45.1802791,13.9306047 46.4388837,13.4026047 47.5077209,12.3454884 C47.8660465,11.9994419 48.1613023,11.6221395 48.3923721,11.2135814 L45.952186,10.1274419 C45.7869767,10.947907 45.0552558,11.5021395 44.1717209,11.5674419 L44.1717209,12.5653953 L43.4282791,12.5653953 L43.4282791,11.5674419 C42.7021395,11.5590698 42,11.2621395 41.4636279,10.792186 L42.3555349,9.8935814 C42.7836279,10.2976744 43.2133953,10.4790698 43.8,10.4790698 C44.1789767,10.4790698 44.599814,10.3306047 44.599814,9.83609302 C44.599814,9.66083721 44.5322791,9.53860465 44.4256744,9.44706977 L43.8083721,9.17302326 L43.039814,8.83032558 C42.6602791,8.66065116 42.3376744,8.51832558 42.0145116,8.37376744 L38.7086512,6.90195349 L38.7086512,6.90195349 Z M43.7330233,3.33376744 C42.264,3.33376744 41.0221395,3.85116279 40.0074419,4.88706977 C39.7306047,5.16613953 39.4900465,5.45693023 39.2868837,5.76111628 L41.76,6.86288372 C41.983814,6.17637209 42.6362791,5.76 43.4282791,5.71367442 L43.4282791,4.71572093 L44.1717209,4.71572093 L44.1717209,5.71367442 C44.6829767,5.73823256 45.243907,5.87888372 45.7970233,6.30697674 L44.9464186,7.1815814 C44.6333023,6.95888372 44.2370233,6.80204651 43.8407442,6.80204651 C43.5192558,6.80204651 43.0643721,6.90083721 43.0643721,7.30493023 C43.0643721,7.36632558 43.0855814,7.42046512 43.1229767,7.4695814 L43.9506977,7.83739535 L44.5105116,8.08688372 C44.8693953,8.24706977 45.2115349,8.39832558 45.5492093,8.5495814 L48.8667907,10.0258605 C48.9756279,9.59162791 49.0314419,9.12948837 49.0314419,8.64055814 C49.0314419,7.16260465 48.5123721,5.91181395 47.4753488,4.88706977 C46.4494884,3.85116279 45.2026047,3.33376744 43.7330233,3.33376744 L43.7330233,3.33376744 Z" id="Fill-12" fill="#7F7F7F"></path>
                <path d="M64.279814,8.64055814 C64.2826047,11.9028837 61.639814,14.5495814 58.3769302,14.551814 C55.1140465,14.5540465 52.4667907,11.911814 52.4645581,8.64893023 L52.4645581,8.64055814 C52.4623256,5.37823256 55.1051163,2.73153488 58.368,2.72930233 C61.6308837,2.72651163 64.2775814,5.36930233 64.279814,8.63162791 L64.279814,8.64055814" id="Fill-13" fill="#F3F3F3"></path>
                <path d="M58.279814,2.16893023 C56.4870698,2.16893023 54.9689302,2.79404651 53.7276279,4.04539535 C52.4522791,5.33972093 51.8154419,6.87069767 51.8154419,8.64055814 C51.8154419,10.4093023 52.4522791,11.9302326 53.7276279,13.2027907 C55.0013023,14.4753488 56.5194419,15.112186 58.279814,15.112186 C60.0619535,15.112186 61.6063256,14.4703256 62.9134884,13.1871628 C64.144186,11.968186 64.7603721,10.4522791 64.7603721,8.64055814 C64.7603721,6.82772093 64.1335814,5.29674419 62.8811163,4.04539535 C61.6275349,2.79404651 60.0937674,2.16893023 58.279814,2.16893023 L58.279814,2.16893023 Z M58.2954419,3.3332093 C59.7644651,3.3332093 61.0124651,3.85116279 62.0383256,4.88706977 C63.0753488,5.91125581 63.5927442,7.16204651 63.5927442,8.64055814 C63.5927442,10.1291163 63.0859535,11.3637209 62.0712558,12.3454884 C61.0013023,13.4026047 59.7426977,13.9306047 58.2954419,13.9306047 C56.848186,13.9306047 55.6007442,13.4076279 54.5531163,12.3611163 C53.5054884,11.3151628 52.9819535,10.0744186 52.9819535,8.64055814 C52.9819535,7.2055814 53.5110698,5.95423256 54.5698605,4.88706977 C55.5851163,3.85116279 56.8269767,3.3332093 58.2954419,3.3332093 L58.2954419,3.3332093 Z" id="Fill-14" fill="#7F7F7F"></path>
                <path d="M56.0288372,8.22083721 L60.7333953,8.22083721 L60.7333953,7.10623256 L56.0288372,7.10623256 L56.0288372,8.22083721 Z M56.0288372,10.3010233 L60.7333953,10.3010233 L60.7333953,9.18697674 L56.0288372,9.18697674 L56.0288372,10.3010233 Z" id="Fill-15" fill="#7F7F7F"></path>
                <path d="M29.1706047,2.77897674 C32.4809302,2.77897674 35.1644651,5.46251163 35.1644651,8.77227907 C35.1644651,12.0820465 32.4809302,14.7655814 29.1706047,14.7655814 C25.8602791,14.7655814 23.1767442,12.0820465 23.1767442,8.77227907 C23.1767442,5.46251163 25.8602791,2.77897674 29.1706047,2.77897674" id="Fill-16" fill="#F3F3F3"></path>
                <path d="M30.9053023,7.03813953 C30.9053023,6.80706977 30.7177674,6.62009302 30.4872558,6.62009302 L27.84,6.62009302 C27.6094884,6.62009302 27.4219535,6.80706977 27.4219535,7.03813953 L27.4219535,9.68483721 L28.1603721,9.68483721 L28.1603721,12.819907 L30.1663256,12.819907 L30.1663256,9.68483721 L30.9053023,9.68483721 L30.9053023,7.03813953" id="Fill-17" fill="#7F7F7F"></path>
                <path d="M29.163907,4.46065116 C29.6634419,4.46065116 30.0692093,4.8664186 30.0692093,5.36595349 C30.0692093,5.86604651 29.6634419,6.27125581 29.163907,6.27125581 C28.6632558,6.27125581 28.2580465,5.86604651 28.2580465,5.36595349 C28.2580465,4.8664186 28.6632558,4.46065116 29.163907,4.46065116" id="Fill-18" fill="#7F7F7F"></path>
                <path d="M29.1549767,2.16893023 C27.3627907,2.16893023 25.8452093,2.79404651 24.6033488,4.04539535 C23.3285581,5.33972093 22.6917209,6.87125581 22.6917209,8.64 C22.6917209,10.4087442 23.3285581,11.9302326 24.6033488,13.2027907 C25.8775814,14.4753488 27.3951628,15.1116279 29.1549767,15.1116279 C30.9371163,15.1116279 32.4820465,14.4703256 33.7892093,13.1860465 C35.019907,11.968186 35.636093,10.4522791 35.636093,8.64 C35.636093,6.82772093 35.0098605,5.29674419 33.7568372,4.04539535 C32.503814,2.79404651 30.9700465,2.16893023 29.1549767,2.16893023 L29.1549767,2.16893023 Z M29.1722791,3.33376744 C30.6407442,3.33376744 31.8876279,3.85116279 32.9140465,4.88651163 C33.9510698,5.91125581 34.4695814,7.16260465 34.4695814,8.64 C34.4695814,10.1285581 33.9622326,11.3637209 32.9464186,12.3454884 C31.8770233,13.4020465 30.6184186,13.9306047 29.1722791,13.9306047 C27.723907,13.9306047 26.4770233,13.4076279 25.4288372,12.3611163 C24.3817674,11.3151628 23.8576744,10.0749767 23.8576744,8.64 C23.8576744,7.2055814 24.3867907,5.95423256 25.4450233,4.88651163 C26.4608372,3.85116279 27.7032558,3.33376744 29.1722791,3.33376744 L29.1722791,3.33376744 Z" id="Fill-19" fill="#7F7F7F"></path>
            </g>
        </g>
    </g>
</svg>
