<?xml version="1.0" encoding="UTF-8" standalone="no"?>
<svg width="24px" height="6px" viewBox="0 0 24 6" version="1.1" xmlns="http://www.w3.org/2000/svg" xmlns:xlink="http://www.w3.org/1999/xlink">
    <!-- Generator: Sketch 39 (31667) - http://www.bohemiancoding.com/sketch -->
    <title>icon-navbar-toc</title>
    <desc>Created with Sketch.</desc>
    <defs></defs>
    <g id="Mobile" stroke="none" stroke-width="1" fill="none" fill-rule="evenodd">
        <g id="Article-–-Scrolling-–-Mobile" transform="translate(-176.000000, -33.000000)" fill="#7F7F7F">
            <path d="M197,39 C195.344,39 194,37.656 194,36 C194,34.344 195.344,33 197,33 C198.656,33 200,34.344 200,36 C200,37.656 198.656,39 197,39 Z M188,39 C186.344,39 185,37.656 185,36 C185,34.344 186.344,33 188,33 C189.656,33 191,34.344 191,36 C191,37.656 189.656,39 188,39 Z M179,39 C177.344,39 176,37.656 176,36 C176,34.344 177.344,33 179,33 C180.656,33 182,34.344 182,36 C182,37.656 180.656,39 179,39 Z" id="icon-navbar-toc"></path>
        </g>
    </g>
</svg>