<?xml version="1.0" encoding="UTF-8" standalone="no"?>
<svg width="24px" height="24px" viewBox="0 0 24 24" version="1.1" xmlns="http://www.w3.org/2000/svg" xmlns:xlink="http://www.w3.org/1999/xlink">
    <!-- Generator: Sketch 3.8.3 (29802) - http://www.bohemiancoding.com/sketch -->
    <title>icon-github</title>
    <desc>Created with Sketch.</desc>
    <defs></defs>
    <g id="Article" stroke="none" stroke-width="1" fill="none" fill-rule="evenodd">
        <g id="Topic-–-Mobile-Portrait" transform="translate(-196.000000, -8272.000000)" fill="#BFBFBF">
            <g id="Group-2" transform="translate(52.000000, 8272.000000)">
                <path d="M155.998895,0 C149.373277,0 144,5.5085046 144,12.3040642 C144,17.7400586 147.438043,22.3512503 152.206513,23.9781965 C152.8069,24.0914936 153.025691,23.7115707 153.025691,23.385275 C153.025691,23.0937239 153.015378,22.3195271 153.009485,21.2930554 C149.671629,22.0362843 148.967372,19.6434498 148.967372,19.6434498 C148.421499,18.2219489 147.634734,17.8435366 147.634734,17.8435366 C146.545198,17.0806696 147.717241,17.0957758 147.717241,17.0957758 C148.921698,17.1826369 149.555235,18.3639479 149.555235,18.3639479 C150.625618,20.2439244 152.364161,19.7008536 153.047792,19.3858877 C153.156819,18.5912974 153.466957,18.048982 153.809509,17.7415693 C151.144971,17.4311352 148.343411,16.3752063 148.343411,11.6605367 C148.343411,10.3175885 148.811197,9.2186067 149.578808,8.35905943 C149.455048,8.04787008 149.043249,6.79631488 149.696676,5.10290101 C149.696676,5.10290101 150.703705,4.7720735 152.996225,6.3642753 C153.95316,6.09085165 154.980079,5.95489514 156.000368,5.94960794 C157.019921,5.95489514 158.046103,6.09085165 159.004512,6.3642753 C161.295558,4.7720735 162.301114,5.10290101 162.301114,5.10290101 C162.956015,6.79631488 162.544216,8.04787008 162.421192,8.35905943 C163.190276,9.2186067 163.654379,10.3175885 163.654379,11.6605367 C163.654379,16.3872913 160.848399,17.4273587 158.175757,17.7317502 C158.605973,18.1116731 158.989779,18.8624551 158.989779,20.0105323 C158.989779,21.6548508 158.975045,22.9819374 158.975045,23.385275 C158.975045,23.7145919 159.191627,24.0975361 159.800117,23.9774412 C164.564904,22.3467184 168,17.738548 168,12.3040642 C168,5.5085046 162.626723,0 155.998895,0" id="icon-github"></path>
            </g>
        </g>
    </g>
</svg>