<svg xmlns="http://www.w3.org/2000/svg" viewBox="0 0 30 30"><style>.st6{fill:#c6000b}.st8{fill:#d6d6d8}</style><g id="圖層_1"><ellipse transform="rotate(43.363 7.609 18.258)" class="st8" cx="7.6" cy="18.3" rx="4.5" ry="4.4"/><path class="st6" d="M4.1 22c-2.1-2-2.2-5.2-.3-7.3 1.9-2 5.2-2.1 7.3-.1s2.2 5.2.3 7.3c-1.9 2-5.2 2-7.3.1zm6.1-6.5c-1.5-1.5-4-1.4-5.4.1-1.4 1.5-1.3 3.9.2 5.4 1.5 1.5 4 1.4 5.4-.1 1.4-1.5 1.3-3.9-.2-5.4z"/><g><path class="st6" d="M4.8 15.4l-.9-.8 7.4-8 1 .9z"/></g><g><ellipse transform="rotate(43.363 22.652 18.258)" class="st8" cx="22.7" cy="18.3" rx="4.5" ry="4.4"/><path class="st6" d="M19.2 22c-2.1-2-2.2-5.2-.3-7.3 1.9-2 5.2-2.1 7.3-.1s2.2 5.2.3 7.3c-2 2-5.3 2-7.3.1zm6-6.5c-1.5-1.5-4-1.4-5.4.1-1.4 1.5-1.3 3.9.2 5.4 1.5 1.5 4 1.4 5.4-.1 1.5-1.5 1.4-3.9-.2-5.4z"/><g><path class="st6" d="M19.9 15.4l-.9-.8 7.3-8 1 .9z"/></g></g></g></svg>