<?xml version="1.0" encoding="utf-8"?>
<!-- Generator: Adobe Illustrator 18.0.0, SVG Export Plug-In . SVG Version: 6.00 Build 0)  -->
<!DOCTYPE svg PUBLIC "-//W3C//DTD SVG 1.1//EN" "http://www.w3.org/Graphics/SVG/1.1/DTD/svg11.dtd">
<svg version="1.1" xmlns="http://www.w3.org/2000/svg" xmlns:xlink="http://www.w3.org/1999/xlink" x="0px" y="0px"
	 viewBox="0 0 30 30" style="enable-background:new 0 0 30 30;" xml:space="preserve">
<style type="text/css">
	.st0{fill:#F7F7F7;}
	.st1{fill:none;stroke:#C94223;stroke-miterlimit:10;}
	.st2{fill:#C94223;}
	.st3{fill:#242423;}
	.st4{fill:#ACACB1;}
	.st5{fill:#FFFFFF;}
	.st6{fill:#C6000B;}
	.st7{fill:#666666;}
	.st8{fill:#D6D6D8;}
	.st9{fill:#FFFFFF;stroke:#4D4D4D;stroke-miterlimit:10;}
	.st10{fill:#4D4D4D;}
	.st11{fill:#666674;}
	.st12{fill:none;stroke:#666674;stroke-miterlimit:10;}
	.st13{fill:#DAE1E5;}
	.st14{fill:none;stroke:#000000;stroke-miterlimit:10;}
</style>
<g id="圖層_2">
</g>
<g id="圖層_1">
	<g>
		<g>
			<g>
				<ellipse transform="matrix(0.727 0.6866 -0.6866 0.727 14.6128 -0.2402)" class="st8" cx="7.6" cy="18.3" rx="4.5" ry="4.4"/>
				<path class="st6" d="M4.1,22c-2.1-2-2.2-5.2-0.3-7.3c1.9-2,5.2-2.1,7.3-0.1s2.2,5.2,0.3,7.3C9.5,23.9,6.2,23.9,4.1,22z
					 M10.2,15.5c-1.5-1.5-4-1.4-5.4,0.1C3.4,17.1,3.5,19.5,5,21c1.5,1.5,4,1.4,5.4-0.1C11.8,19.4,11.7,17,10.2,15.5z"/>
			</g>
			<g>
				<polygon class="st6" points="4.8,15.4 3.9,14.6 11.3,6.6 12.3,7.5 				"/>
			</g>
		</g>
		<g>
			<g>
				<ellipse transform="matrix(0.727 0.6866 -0.6866 0.727 18.7192 -10.5688)" class="st8" cx="22.7" cy="18.3" rx="4.5" ry="4.4"/>
				<path class="st6" d="M19.2,22c-2.1-2-2.2-5.2-0.3-7.3c1.9-2,5.2-2.1,7.3-0.1s2.2,5.2,0.3,7.3C24.5,23.9,21.2,23.9,19.2,22z
					 M25.2,15.5c-1.5-1.5-4-1.4-5.4,0.1c-1.4,1.5-1.3,3.9,0.2,5.4c1.5,1.5,4,1.4,5.4-0.1C26.9,19.4,26.8,17,25.2,15.5z"/>
			</g>
			<g>
				<polygon class="st6" points="19.9,15.4 19,14.6 26.3,6.6 27.3,7.5 				"/>
			</g>
		</g>
	</g>
</g>
<g id="圖層_4">
</g>
</svg>
