<?xml version="1.0" encoding="utf-8"?>
<!-- Generator: Adobe Illustrator 18.0.0, SVG Export Plug-In . SVG Version: 6.00 Build 0)  -->
<!DOCTYPE svg PUBLIC "-//W3C//DTD SVG 1.1//EN" "http://www.w3.org/Graphics/SVG/1.1/DTD/svg11.dtd">
<svg version="1.1" xmlns="http://www.w3.org/2000/svg" xmlns:xlink="http://www.w3.org/1999/xlink" x="0px" y="0px"
	 viewBox="0 0 35 35" style="enable-background:new 0 0 35 35;" xml:space="preserve">
<style type="text/css">
	.st0{display:none;}
	.st1{display:inline;}
	.st2{fill:#FFFFFF;}
	.st3{fill:#666674;}
	.st4{fill:none;stroke:#666674;stroke-miterlimit:10;}
	.st5{fill:none;stroke:#666674;stroke-width:3;stroke-miterlimit:10;}
	.st6{opacity:0.35;fill:#666674;}
	.st7{fill:#C3000B;}
	.st8{fill:#E20012;}
	.st9{fill:none;stroke:#666674;stroke-linecap:round;stroke-linejoin:round;stroke-miterlimit:10;}
	.st10{fill:#39AD4A;}
	.st11{fill:#476399;}
	.st12{fill:#41A6DC;}
	.st13{fill:#C6000B;}
	.st14{fill:#231815;}
	.st15{fill:#DAE1E5;}
	.st16{fill:none;stroke:#000000;stroke-miterlimit:10;}
	.st17{fill:none;stroke:#C94223;stroke-miterlimit:10;}
	.st18{fill:#C94223;}
	.st19{fill:#363484;}
	.st20{fill:none;stroke:#FFFFFF;stroke-miterlimit:10;}
</style>
<g id="圖層_2" class="st0">
</g>
<g id="圖層_1">
	<g>
		<circle class="st10" cx="17.8" cy="17.5" r="13.4"/>
		<g>
			<g id="XMLID_1_">
				<g>
					<path class="st2" d="M23.6,14.2h2.8c0.5,0,0.8,0.3,0.8,0.8c0,0.5-0.3,0.8-0.8,0.8h-2V17h2c0.5,0,0.8,0.3,0.8,0.8
						c0,0.5-0.3,0.8-0.8,0.8h-2v1.2h2c0.5,0,0.8,0.3,0.8,0.8c0,0.5-0.3,0.8-0.8,0.8h-2.8c-0.5,0-0.8-0.3-0.8-0.8v-2.8V15
						C22.9,14.6,23.2,14.2,23.6,14.2z"/>
					<path class="st2" d="M21.9,15v5.4c0,0.3-0.2,0.6-0.5,0.6h-0.2c-0.2,0-0.5-0.2-0.6-0.3L17.9,17v3.4c0,0.5-0.3,0.8-0.8,0.8
						c-0.5,0-0.8-0.3-0.8-0.8V15c0-0.3,0.2-0.6,0.5-0.6H17c0.2,0,0.5,0.2,0.6,0.3l2.8,3.9V15c0-0.5,0.3-0.8,0.8-0.8
						C21.6,14.2,21.9,14.6,21.9,15z"/>
					<path class="st2" d="M15.4,20.4c0,0.5-0.3,0.8-0.8,0.8c-0.5,0-0.8-0.3-0.8-0.8V15c0-0.5,0.3-0.8,0.8-0.8c0.5,0,0.8,0.3,0.8,0.8
						V20.4z"/>
					<path class="st2" d="M8.9,15c0-0.5,0.3-0.8,0.8-0.8c0.5,0,0.8,0.3,0.8,0.8v4.8h2c0.5,0,0.8,0.3,0.8,0.8c0,0.3-0.3,0.6-0.8,0.6
						H9.7c-0.5,0-0.8-0.3-0.8-0.8V15z"/>
				</g>
			</g>
		</g>
	</g>
</g>
<g id="圖層_3" class="st0">
</g>
</svg>
