<svg width="24" height="24" xmlns="http://www.w3.org/2000/svg"><g fill="#7F7F7F" fill-rule="evenodd"><path d="M19.63.115H4.422A4.343 4.343 0 0 0 .07 4.433v15.209A4.345 4.345 0 0 0 4.388 24h15.209a4.343 4.343 0 0 0 4.351-4.333v-15.2A4.343 4.343 0 0 0 19.63.115zM20.667 11c0-3.89-3.9-7.055-8.694-7.055C7.18 3.945 3.28 7.112 3.28 11c0 3.488 3.093 6.408 7.272 6.96.283.062.666.187.766.428.068.257.078.526.029.787l-.124.745c-.038.22-.166.86.754.468.92-.391 5-2.948 6.833-5.048 1.26-1.382 1.863-2.783 1.863-4.333L20.667 11z"/><path d="M10.203 9.125h-.61a.167.167 0 0 0-.166.167v3.788c0 .092.074.167.166.167h.61a.167.167 0 0 0 .167-.167V9.293a.167.167 0 0 0-.167-.166m4.199-.002h-.61a.167.167 0 0 0-.167.167v2.25L11.887 9.2l-.014-.017-.01-.01h-.701a.167.167 0 0 0-.167.167v3.788c0 .092.075.167.167.167h.61a.167.167 0 0 0 .166-.167v-2.295l1.739 2.347c.011.016.026.03.043.042h.022a.167.167 0 0 0 .043 0h.61a.167.167 0 0 0 .167-.167V9.293a.167.167 0 0 0-.167-.166m-5.662 3.175H7.077V9.293a.167.167 0 0 0-.167-.166H6.3a.167.167 0 0 0-.167.166v3.789c0 .043.017.085.047.116.031.03.073.047.117.047h2.436a.167.167 0 0 0 .167-.167v-.61a.167.167 0 0 0-.167-.166m9.035-2.229a.167.167 0 0 0 .167-.166v-.61a.167.167 0 0 0-.167-.167h-2.435a.167.167 0 0 0-.116.048.167.167 0 0 0-.047.117v3.788c0 .044.016.086.047.117.031.03.073.047.116.047h2.437a.167.167 0 0 0 .167-.167v-.61a.167.167 0 0 0-.167-.167h-1.657v-.636h1.657a.167.167 0 0 0 .167-.167v-.617a.167.167 0 0 0-.167-.166h-1.657v-.64l1.655-.004z"/></g></svg>