<svg viewBox="0 0 119 48" xmlns="http://www.w3.org/2000/svg" fill-rule="evenodd" clip-rule="evenodd" stroke-linejoin="round" stroke-miterlimit="2"><g fill="#fff"><path d="M106.394 5.308s1.151-.511 1.439-1.757h2.555v2.14h-4.121l.127-.383zm8.025 6.851s1.15-.511 1.438-1.757h2.556v2.14h-4.121l.127-.383zm-4.828 6.061s1.15-.512 1.437-1.758h2.556v2.142h-4.122l.129-.384z"/><path d="M92.559 6.085h17.82v-.8h-17.82v.8zm-3.56 6.83h29.423v-.8H88.999v.8zm9.532 6.092h13.872v-.862H98.531v.861zm-1.52 6.028h15.505v-.8H97.011v.8zm0 5.488h15.505v-.8H97.011v.8z"/><path d="M95.754 33.825l2.5-.001v-14.28h-2.5v14.28zm15.268.056h2.574V18.325h-2.574v15.556zm-10.339-20.996h2.61V.588h-2.61v12.297z"/><path d="M113.271 2.583s-6.719 13.336-26.623 21.267l.254.707s19.395-5.506 28.743-20.511l-2.374-1.464zM73.274 5.464s1.149-.511 1.437-1.757h2.556v2.141l-4.122-.001.129-.383zm-.894 19.808s1.15-.512 1.438-1.758h2.556v2.14h-4.123l.129-.382z"/><path d="M56.365 6.275h20.888v-.799H56.365v.799zm2.262 2.899H74.24v-.862H58.626l.001.862zm.037 3.01h15.613v-.801H58.664v.801zm-.037 2.838H74.24v-.8H58.626l.001.8zm0 2.916H74.24v-.8H58.626l.001.8zm-13.819-5.394h7.977v-.801h-7.977v.801z"/><path d="M50.601 18.634h2.614v-6.945h-2.614v6.945zM74.096 5.471s.91-.403 1.138-1.389h2.02v1.693h-3.26l.103-.304h-.001z"/><path d="M50.057 11.713c0-.001.91-.405 1.137-1.391h2.02v1.693h-3.259l.102-.303zm-3.266 14.212h29.582v-.8H46.791v.8z"/><path d="M73.19 25.12s.91-.404 1.137-1.39h2.02v1.695h-3.26l.103-.304v-.002zM71.689 8.362s.952-.422 1.19-1.454h2.116V8.68h-3.412l.106-.318zm-21.122 3.374s.763-.34.954-1.166h1.694v1.42h-2.733l.085-.254zM47.32 2.941l.417-.644s3.789.91 5.494 4.205L51.26 7.904s-2.16-4.091-3.94-4.963M59.254.722l.363-.443s2.5.282 4.274 2.943l-2.175 1.169s-.806-2.419-2.46-3.67m9.474.336s-1.2 3.968-1.655 4.713h.703s2.399-2.48 4.01-4.632l-3.057-.081h-.001zM45.654 20.185l5.151-2.35.38.646-3.865 4.545-1.666-2.841zm7.425-3.026s1.2 2.943 8.574 3.12c0 0 9.636.505 14.499-.354v2.082s-20.459 2.274-23.413-4.167l.34-.681z"/><path d="M57.496 18.952h2.538V7.194l-2.538.001v11.757zm14.918.043h2.575V8.353h-2.575v10.642zm-16.886 9.084l.415-.418s2.957.681 4.7 3.258l-1.97 1.704s-2.35-4.28-3.145-4.545m11.41-4.914h2.571v8.531c0 .844-.202 1.659-.892 2.165-.387.285-1.163.672-1.662.529-.654-.191-.533-1.026-.884-1.461-.37-.459-1.254-.571-1.806-.571l.02-.538h1.576s1.109.165 1.109-.912-.032-7.743-.032-7.743M1.859 7.322l16.118.001V6.53H1.859v.793zm18.707-3.141h9.828v-.793h-9.827l-.001.793zm.601 13.15h11.38v-.732h-11.38v.732z"/><path d="M7.986 12.925h2.589V1.189l-2.59.001.001 11.735zm11.616 21.01l2.405-.001V1.548h-2.405v32.386zm-11.616.193h2.589V18.997h-2.59l.001 15.131zm6.043-27.604s1.138-.507 1.423-1.74h2.53v2.119h-4.08l.127-.38v.001zm0 18.188s1.138-.506 1.423-1.739h2.53v2.12h-4.08l.127-.38zM27.816 3.471s1.14-.507 1.426-1.741h2.529v2.12h-4.082l.127-.38v.001zM14.15 18.567s1.139-.507 1.424-1.742h2.53v2.122h-4.08l.126-.38zm-.052-6.123s1.139-.507 1.424-1.74h2.53v2.118h-4.081l.127-.379v.001z"/><path d="M.578 13.248l17.47-.001v-.793H.578v.793zm.098 6.086h17.413v-.793H.676v.793z"/><path d="M14.96 18.502s.9-.401 1.124-1.377h2V18.8h-3.225l.1-.299h.001zM1.87 25.357h16.116v-.794H1.87v.794zM4.273 14.13l.55-.324s2.076 2.1 3 4l-2.024.877s-1.025-4.026-1.526-4.552m7.703-.575l3.077 1.227s-2.877 3.075-3.827 3.825l-.4-.25s.8-2.451 1.15-4.802m17.283-10.17v8.771s.135 1.167-.853 1.167h-1.03v.58s1.479.092 1.479.945c0 .851 2.916 1.479 2.916-2.692V3.295l-2.512.091zm.697 13.186S29.08 26.963 22.7 34.188l.268.439s8.295-7.156 9.64-17.827l-2.651-.227h-.001z"/><path d="M23.503 18.307s1.8 9.554 10.654 13.493l-2.025 2.587c0-.001-7.542-3.702-9.191-15.968l.562-.112zM4.326 46.769l.943-.001v-5.786h-1.76v1.165h-.921v-2.035h6.421v2.035h-.922v-1.165H6.328v5.786h.943v.826H4.326v-.826zm7.67 0h.932v-5.84h-.932v-.816h2.935v.817h-.943v2.49h3.879v-2.49h-.943v-.817h2.935v.817h-.933v5.839h.933v.826h-2.935v-.826h.943v-2.48h-3.88v2.48h.944v.826h-2.935v-.826zm11.104 0h.932v-5.84H23.1v-.816h5.415v1.738h-.922v-.868h-2.501v2.404h2.649v.87h-2.65v2.47h2.682v-.902h.922v1.771H23.1v-.827zm25.179-3.064c.816 0 1.357-.53 1.357-1.409 0-.583-.234-.985-.7-1.176-.243-.095-.562-.137-.922-.137h-1.24v2.722h1.505zm-3.497 3.064h.932v-5.84h-.932v-.816h3.243c.53 0 .964.021 1.377.159.785.265 1.303.923 1.303 1.94 0 1.08-.592 1.853-1.547 2.098v.022s.191.105.318.349l1.06 1.843c.117.202.255.245.52.245h.222v.826h-.636c-.636 0-.784-.116-1.038-.562l-1.156-2.045c-.19-.317-.328-.413-.784-.413h-.89v2.194h.922v.826h-2.914v-.826zm9.504.001h.932v-5.84l-.932-.001v-.816h5.415v1.738h-.922v-.867l-2.501-.001v2.404h2.65v.87h-2.65v2.47h2.681v-.902h.922v1.771h-5.595v-.827zm12.195-2.851c.34 0 .605-.054.837-.148.477-.212.753-.69.753-1.336 0-.605-.244-1.049-.668-1.272-.232-.127-.55-.18-.91-.18h-1.4v2.936h1.388zm-3.38 2.85h.932v-5.838h-.932v-.817h3.487c.455 0 .911.033 1.282.2.773.33 1.271 1.125 1.271 2.121 0 1.048-.551 1.898-1.41 2.194-.349.127-.709.158-1.122.158h-1.516v1.983h.944v.826h-2.936v-.827zm12.831.011c1.515 0 2.745-1.293 2.745-2.978 0-1.632-1.23-2.882-2.745-2.882-1.526 0-2.755 1.25-2.755 2.882 0 1.685 1.229 2.978 2.755 2.978m0-6.793c2.162 0 3.847 1.664 3.847 3.815 0 2.204-1.685 3.921-3.847 3.921-2.172 0-3.846-1.717-3.846-3.921 0-2.151 1.674-3.815 3.846-3.815m10.458 3.719c.816 0 1.356-.53 1.356-1.409 0-.583-.233-.985-.7-1.176-.243-.095-.561-.137-.921-.137h-1.24v2.722h1.505zm-3.497 3.064h.932v-5.84h-.932v-.816h3.242c.53 0 .964.021 1.378.159.784.265 1.303.923 1.303 1.94 0 1.08-.593 1.853-1.547 2.098v.022s.19.105.318.349l1.06 1.843c.116.202.254.245.519.245h.223v.826h-.636c-.636 0-.785-.116-1.039-.562l-1.155-2.045c-.19-.317-.328-.413-.784-.413h-.89v2.194h.922v.826h-2.914v-.826zm10.944 0h.944v-5.786h-1.76v1.165H92.1v-2.035h6.422v2.035H97.6v-1.165h-1.76v5.786h.944v.826h-2.948l.001-.826zm7.671 0h.932v-5.84h-.932v-.816h5.415v1.738h-.922v-.868h-2.5v2.404h2.648v.87H103.5v2.47h2.681v-.902h.923v1.771h-5.596v-.827zm12.312-3.063c.816 0 1.356-.53 1.356-1.41 0-.583-.233-.985-.699-1.176-.243-.095-.562-.137-.922-.137h-1.24v2.723h1.505zm-3.497 3.063h.933v-5.84h-.933v-.816h3.243c.53 0 .964.021 1.377.159.784.265 1.303.923 1.303 1.94 0 1.08-.593 1.853-1.546 2.098v.022s.19.105.317.349l1.06 1.843c.117.202.254.245.52.245h.222v.826h-.636c-.636 0-.784-.116-1.039-.562l-1.155-2.045c-.19-.317-.328-.413-.783-.413h-.891v2.194h.922v.826h-2.914v-.826z"/></g></svg>