<?xml version="1.0" encoding="UTF-8" standalone="no"?>
<svg width="220px" height="40px" viewBox="0 0 220 40" version="1.1" xmlns="http://www.w3.org/2000/svg" xmlns:xlink="http://www.w3.org/1999/xlink">
    <!-- Generator: Sketch 39.1 (31720) - http://www.bohemiancoding.com/sketch -->
    <title>logo-white</title>
    <desc>Created with Sketch.</desc>
    <defs></defs>
    <g id="Mobile" stroke="none" stroke-width="1" fill="none" fill-rule="evenodd">
        <g id="Article-–-Photography-–-Mobile" transform="translate(-50.000000, -13681.000000)">
            <g id="Footer" transform="translate(22.000000, 13681.000000)">
                <g id="logo-white" transform="translate(28.000000, 0.000000)">
                    <g id="Typography" transform="translate(45.237258, 6.213592)" fill="#FFFFFF">
                        <g id="Group">
                            <path d="M79.2997926,4.1735534 C79.2997926,4.1735534 80.1998981,3.77238835 80.4245378,2.79413592 L82.42271,2.79413592 L82.42271,4.47491262 L79.2000387,4.47491262 L79.2997926,4.1735534 L79.2997926,4.1735534 Z" id="Fill-8"></path>
                            <path d="M85.5742777,9.55452427 C85.5742777,9.55452427 86.4736098,9.15297087 86.6986362,8.17394175 L88.6975817,8.17394175 L88.6975817,9.8551068 L85.4749104,9.8551068 L85.5742777,9.55452427 Z" id="Fill-10"></path>
                            <path d="M81.7990158,14.3146408 C81.7990158,14.3146408 82.6975747,13.9123107 82.9233743,12.9340583 L84.9215466,12.9340583 L84.9215466,14.616 L81.6984886,14.616 L81.7990158,14.3146408 Z" id="Fill-12"></path>
                            <polygon id="Fill-14" points="68.4814763 4.78407767 82.4157118 4.78407767 82.4157118 4.15533981 68.4814763 4.15533981"></polygon>
                            <polygon id="Fill-16" points="65.6984183 10.1479612 88.7048506 10.1479612 88.7048506 9.52 65.6984183 9.52"></polygon>
                            <polygon id="Fill-17" points="73.1517399 14.9324272 83.9986292 14.9324272 83.9986292 14.255534 73.1517399 14.255534"></polygon>
                            <polygon id="Fill-18" points="71.962812 19.6667961 84.0867838 19.6667961 84.0867838 19.0380583 71.962812 19.0380583"></polygon>
                            <polygon id="Fill-19" points="71.962812 23.9763107 84.0867838 23.9763107 84.0867838 23.3471845 71.962812 23.3471845"></polygon>
                            <polygon id="Fill-20" points="70.9799649 26.5700971 72.9344464 26.5700971 72.9344464 15.3553398 70.9799649 15.3553398"></polygon>
                            <polygon id="Fill-21" points="82.9187346 26.6139806 84.9312127 26.6139806 84.9312127 14.3957282 82.9187346 14.3957282"></polygon>
                            <polygon id="Fill-22" points="74.8340246 10.1246602 76.8751142 10.1246602 76.8751142 0.466796117 74.8340246 0.466796117"></polygon>
                            <path d="M84.6765694,2.03308738 C84.6765694,2.03308738 79.4232478,12.5076505 63.8600844,18.736 L64.0584323,19.2913398 C64.0584323,19.2913398 79.2241265,14.967068 86.5328436,3.18376699 L84.6765694,2.03308738 Z" id="Fill-23"></path>
                            <path d="M54.9486538,4.29642718 C54.9486538,4.29642718 55.8475993,3.89487379 56.0726257,2.91662136 L58.0711845,2.91662136 L58.0711845,4.59778641 L54.8477399,4.59778641 L54.9486538,4.29642718 Z" id="Fill-36"></path>
                            <path d="M54.2497188,19.8529709 C54.2497188,19.8529709 55.149051,19.4506408 55.374464,18.4723883 L57.3730228,18.4723883 L57.3730228,20.1535534 L54.1491916,20.1535534 L54.2497188,19.8529709 Z" id="Fill-37"></path>
                            <polygon id="Fill-38" points="41.7273111 4.93359223 58.0602812 4.93359223 58.0602812 4.30563107 41.7273111 4.30563107"></polygon>
                            <polygon id="Fill-39" points="43.4962039 7.21009709 55.7040773 7.21009709 55.7040773 6.53320388 43.4962039 6.53320388"></polygon>
                            <polygon id="Fill-40" points="43.5252021 9.57320388 55.7334622 9.57320388 55.7334622 8.94446602 43.5252021 8.94446602"></polygon>
                            <polygon id="Fill-41" points="43.4962039 11.8031068 55.7040773 11.8031068 55.7040773 11.1743689 43.4962039 11.1743689"></polygon>
                            <polygon id="Fill-42" points="43.4962039 14.0932039 55.7040773 14.0932039 55.7040773 13.464466 43.4962039 13.464466"></polygon>
                            <polygon id="Fill-43" points="32.6914587 9.85631068 38.9284007 9.85631068 38.9284007 9.22757282 32.6914587 9.22757282"></polygon>
                            <polygon id="Fill-44" points="37.2205975 14.64 39.2643937 14.64 39.2643937 9.18601942 37.2205975 9.18601942"></polygon>
                            <path d="M55.5920281,4.30248544 C55.5920281,4.30248544 56.303065,3.98520388 56.4809209,3.2112233 L58.0599719,3.2112233 L58.0599719,4.54054369 L55.5123796,4.54054369 L55.5920281,4.30248544 Z" id="Fill-45"></path>
                            <path d="M36.79529,9.20368932 C36.79529,9.20368932 37.5063269,8.88640777 37.6841828,8.11281553 L39.2628471,8.11281553 L39.2628471,9.44174757 L36.7156415,9.44174757 L36.79529,9.20368932 Z" id="Fill-46"></path>
                            <polygon id="Fill-47" points="34.2411248 20.3650485 57.3724429 20.3650485 57.3724429 19.7363107 34.2411248 19.7363107"></polygon>
                            <path d="M54.8831178,19.7333204 C54.8831178,19.7333204 55.5941547,19.4168155 55.7720105,18.6424466 L57.3518348,18.6424466 L57.3518348,19.9721553 L54.8034692,19.9721553 L54.8831178,19.7333204 Z" id="Fill-48"></path>
                            <path d="M53.7094236,6.57304854 C53.7094236,6.57304854 54.4537118,6.24100971 54.6408471,5.43091262 L56.2949069,5.43091262 L56.2949069,6.82236893 L53.6266819,6.82236893 L53.7094236,6.57304854 Z" id="Fill-49"></path>
                            <path d="M37.1943831,9.22248544 C37.1943831,9.22248544 37.7898137,8.95530097 37.9394446,8.30675728 L39.264471,8.30675728 L39.264471,9.42209709 L37.1271072,9.42209709 L37.1943831,9.22248544 Z" id="Fill-50"></path>
                            <path d="M34.655529,2.31467961 L34.9810826,1.80904854 C34.9810826,1.80904854 37.9431564,2.5232233 39.2766889,5.11118447 L37.7359156,6.21293204 C37.7359156,6.21293204 36.047058,2.99933981 34.655529,2.31467961" id="Fill-51"></path>
                            <path d="M43.9865062,0.57184466 L44.2703023,0.223495146 C44.2703023,0.223495146 46.2255571,0.445242718 47.6124464,2.53533981 L45.9108295,3.45339806 C45.9108295,3.45339806 45.2798278,1.55398058 43.9865062,0.57184466" id="Fill-52"></path>
                            <path d="M51.3957891,0.835029126 C51.3957891,0.835029126 50.4577926,3.95231068 50.1020808,4.5367767 L50.6515009,4.5367767 C50.6515009,4.5367767 52.5271072,2.58881553 53.7875641,0.899495146 L51.3957891,0.835029126 Z" id="Fill-53"></path>
                            <polygon id="Fill-54" points="33.3523093 15.8581748 37.3807452 14.0131262 37.6773005 14.5199223 34.6556837 18.0896311"></polygon>
                            <path d="M39.1579895,13.4810485 C39.1579895,13.4810485 40.0959859,15.7925049 45.8619965,15.931534 C45.8619965,15.931534 53.3972865,16.3284272 57.1991494,15.6534757 L57.1991494,17.2892039 C57.1991494,17.2892039 41.2017856,19.074835 38.8919789,14.0161942 L39.1579895,13.4810485 Z" id="Fill-55"></path>
                            <polygon id="Fill-56" points="42.6119508 14.8900971 44.5962039 14.8900971 44.5962039 5.65631068 42.6119508 5.65631068"></polygon>
                            <polygon id="Fill-57" points="54.2765905 14.9234951 56.2898418 14.9234951 56.2898418 6.56582524 54.2765905 6.56582524"></polygon>
                            <path d="M41.0727241,22.0577476 L41.397891,21.7303689 C41.397891,21.7303689 43.7092443,22.2651262 45.0713884,24.2892039 L43.531775,25.6274563 C43.531775,25.6274563 41.6940598,22.2651262 41.0727241,22.0577476" id="Fill-58"></path>
                            <path d="M49.9951353,18.1986796 L52.0049069,18.1986796 L52.0049069,24.8977087 C52.0049069,25.560233 51.8471564,26.2013981 51.3081757,26.5986796 C51.0050475,26.8227573 50.3980176,27.1260583 50.0075079,27.0130485 C49.4963656,26.8643107 49.5914798,26.2083883 49.3173497,25.8662524 C49.027754,25.5058641 48.3360492,25.4180971 47.9041687,25.4180971 L47.9204077,24.9955728 L49.1526397,24.9955728 C49.1526397,24.9955728 50.0191072,25.1256699 50.0191072,24.2786796 C50.0191072,23.4328544 49.9951353,18.1986796 49.9951353,18.1986796" id="Fill-59"></path>
                            <polygon id="Fill-84" points="1.04161687 5.75650485 13.6442531 5.75650485 13.6442531 5.13398058 1.04161687 5.13398058"></polygon>
                            <polygon id="Fill-85" points="15.6691037 3.28932039 23.3532513 3.28932039 23.3532513 2.66640777 15.6691037 2.66640777"></polygon>
                            <polygon id="Fill-86" points="16.1384886 13.6170874 25.0374692 13.6170874 25.0374692 13.0431068 16.1384886 13.0431068"></polygon>
                            <polygon id="Fill-87" points="5.83173989 10.1565049 7.85620387 10.1565049 7.85620387 0.938640777 5.83173989 0.938640777"></polygon>
                            <polygon id="Fill-88" points="14.9147627 26.656699 16.7953954 26.656699 16.7953954 1.22097087 14.9147627 1.22097087"></polygon>
                            <polygon id="Fill-89" points="5.83173989 26.807767 7.85620387 26.807767 7.85620387 14.9258252 5.83173989 14.9258252"></polygon>
                            <path d="M10.5565975,5.12831068 C10.5565975,5.12831068 11.4466503,4.73064078 11.6693568,3.76209709 L13.6481968,3.76209709 L13.6481968,5.42656311 L10.4572302,5.42656311 L10.5565975,5.12831068 Z" id="Fill-90"></path>
                            <path d="M10.5565975,19.4128544 C10.5565975,19.4128544 11.4466503,19.0151845 11.6693568,18.0458641 L13.6481968,18.0458641 L13.6481968,19.7114951 L10.4572302,19.7114951 L10.5565975,19.4128544 Z" id="Fill-91"></path>
                            <path d="M21.3376801,2.73145631 C21.3376801,2.73145631 22.2285062,2.33378641 22.4519859,1.36485437 L24.4300527,1.36485437 L24.4300527,3.02970874 L21.2383128,3.02970874 L21.3376801,2.73145631 Z" id="Fill-92"></path>
                            <path d="M10.6521371,14.5878835 C10.6521371,14.5878835 11.5421898,14.1902136 11.7645097,13.2201165 L13.7437364,13.2201165 L13.7437364,14.8861359 L10.5527698,14.8861359 L10.6521371,14.5878835 Z" id="Fill-93"></path>
                            <path d="M10.6109596,9.7784466 C10.6109596,9.7784466 11.5013989,9.3807767 11.7244921,8.41223301 L13.7025589,8.41223301 L13.7025589,10.075534 L10.5115923,10.075534 L10.6109596,9.7784466 Z" id="Fill-94"></path>
                            <polygon id="Fill-95" points="0.0394376098 10.4097087 13.6999297 10.4097087 13.6999297 9.78679612 0.0394376098 9.78679612"></polygon>
                            <polygon id="Fill-96" points="0.116379613 15.1891262 13.7320211 15.1891262 13.7320211 14.5666019 0.116379613 14.5666019"></polygon>
                            <path d="M11.2847627,14.5359223 C11.2847627,14.5359223 11.9892267,14.2205825 12.1639895,13.4551456 L13.728348,13.4551456 L13.728348,14.7708738 L11.2058875,14.7708738 L11.2847627,14.5359223 Z" id="Fill-97"></path>
                            <polygon id="Fill-98" points="1.05012302 19.9192233 13.6512127 19.9192233 13.6512127 19.2959223 1.05012302 19.2959223"></polygon>
                            <path d="M2.92851318,11.1026019 L3.3588471,10.8478447 C3.3588471,10.8478447 4.9819754,12.4975534 5.70499824,13.9903689 L4.1216942,14.6777476 C4.1216942,14.6777476 3.32056942,11.5158058 2.92851318,11.1026019" id="Fill-99"></path>
                            <path d="M8.95245343,10.6505243 L11.357761,11.6144078 C11.357761,11.6144078 9.10788401,14.0299417 8.36514236,14.6182913 L8.05234798,14.4221748 C8.05234798,14.4221748 8.67832337,12.4967379 8.95245343,10.6505243" id="Fill-100"></path>
                            <path d="M22.4660598,2.66337864 L22.4660598,9.09405825 L22.4660598,9.55192233 C22.4660598,9.55192233 22.5712267,10.4684272 21.7991002,10.4684272 L20.9925624,10.4684272 L20.9925624,10.9247379 C20.9925624,10.9247379 22.1497856,10.9965825 22.1497856,11.6664854 C22.1497856,12.334835 24.4302074,12.8280388 24.4302074,9.55192233 L24.4302074,2.59269903 L22.4660598,2.66337864 Z" id="Fill-101"></path>
                            <path d="M23.0111107,13.0202718 C23.0111107,13.0202718 22.3259789,21.1810485 17.3375079,26.854835 L17.5474552,27.2000777 C17.5474552,27.2000777 24.0333954,21.5791068 25.085065,13.1981359 L23.0111107,13.0202718 Z" id="Fill-102"></path>
                            <path d="M17.9651072,14.3823301 C17.9651072,14.3823301 19.3732619,21.8860194 26.2957223,24.9796117 L24.711645,27.0118447 C24.711645,27.0118447 18.8157223,24.1046602 17.5251072,14.4704854 L17.9651072,14.3823301 Z" id="Fill-103"></path>
                        </g>
                        <g id="Group" transform="translate(96.660808, 3.106796)">
                            <polygon id="Fill-305" points="2.19694552 7.2384466 3.21227065 7.2384466 3.21227065 0.979029126 1.31810545 0.979029126 1.31810545 2.23961165 0.325205624 2.23961165 0.325205624 0.0388349515 7.24147979 0.0388349515 7.24147979 2.23961165 6.24857996 2.23961165 6.24857996 0.979029126 4.35441476 0.979029126 4.35441476 7.2384466 5.36973989 7.2384466 5.36973989 8.13281553 2.19694552 8.13281553"></polygon>
                            <polygon id="Fill-306" points="10.4582355 7.2384466 11.4627346 7.2384466 11.4627346 0.921553398 10.4582355 0.921553398 10.4582355 0.0388349515 13.6198172 0.0388349515 13.6198172 0.921553398 12.6037188 0.921553398 12.6037188 3.61592233 16.7813989 3.61592233 16.7813989 0.921553398 15.7660738 0.921553398 15.7660738 0.0388349515 18.9272689 0.0388349515 18.9272689 0.921553398 17.9227698 0.921553398 17.9227698 7.2384466 18.9272689 7.2384466 18.9272689 8.13281553 15.7660738 8.13281553 15.7660738 7.2384466 16.7813989 7.2384466 16.7813989 4.55572816 12.6037188 4.55572816 12.6037188 7.2384466 13.6198172 7.2384466 13.6198172 8.13281553 10.4582355 8.13281553"></polygon>
                            <polygon id="Fill-307" points="22.4177293 7.2384466 23.4222285 7.2384466 23.4222285 0.921553398 22.4177293 0.921553398 22.4177293 0.0388349515 28.2498559 0.0388349515 28.2498559 1.91883495 27.2573427 1.91883495 27.2573427 0.979029126 24.5632127 0.979029126 24.5632127 3.58058252 27.4166397 3.58058252 27.4166397 4.52116505 24.5632127 4.52116505 24.5632127 7.19300971 27.451051 7.19300971 27.451051 6.21786408 28.4439508 6.21786408 28.4439508 8.13281553 22.4177293 8.13281553"></polygon>
                            <path d="M4.04200703,17.9053592 C4.9208471,17.9053592 5.50313181,17.3325437 5.50313181,16.3810874 C5.50313181,15.7507961 5.25181371,15.315068 4.74995079,15.1088544 C4.48703339,15.0059417 4.14485413,14.9597282 3.75666432,14.9597282 L2.42119859,14.9597282 L2.42119859,17.9053592 L4.04200703,17.9053592 Z M0.275328647,21.2191456 L1.28021441,21.2191456 L1.28021441,14.9022524 L0.275328647,14.9022524 L0.275328647,14.019534 L3.76826362,14.019534 C4.33894903,14.019534 4.80678735,14.0424466 5.25181371,14.1907961 C6.09662917,14.4781748 6.65532865,15.1892427 6.65532865,16.2898252 C6.65532865,17.4591456 6.01659402,18.2948738 4.98889631,18.5593398 L4.98889631,18.5822524 C4.98889631,18.5822524 5.19459051,18.6968155 5.33146221,18.9605049 L6.47321968,20.955068 C6.59887873,21.1737087 6.74734974,21.2191456 7.0323058,21.2191456 L7.2720246,21.2191456 L7.2720246,22.1135146 L6.58727944,22.1135146 C5.90253427,22.1135146 5.74246397,21.9876893 5.46910721,21.5053592 L4.22450264,19.292932 C4.01919508,18.9492427 3.87072408,18.8463301 3.38007381,18.8463301 L2.42119859,18.8463301 L2.42119859,21.2191456 L3.41409842,21.2191456 L3.41409842,22.1135146 L0.275328647,22.1135146 L0.275328647,21.2191456 Z" id="Fill-308"></path>
                            <polygon id="Fill-309" points="10.5116696 21.2192233 11.5161687 21.2192233 11.5161687 14.9023301 10.5116696 14.9023301 10.5116696 14.0196117 16.3437961 14.0196117 16.3437961 15.8996117 15.351283 15.8996117 15.351283 14.9598058 12.6571529 14.9598058 12.6571529 17.5613592 15.5109666 17.5613592 15.5109666 18.5019417 12.6571529 18.5019417 12.6571529 21.1737864 15.5453779 21.1737864 15.5453779 20.1986408 16.5382777 20.1986408 16.5382777 22.1135922 10.5116696 22.1135922"></polygon>
                            <path d="M23.6467909,18.1351845 C24.0121687,18.1351845 24.2978981,18.0773204 24.5484429,17.9751845 C25.0622917,17.7456699 25.3592337,17.229165 25.3592337,16.5301359 C25.3592337,15.8765437 25.0963163,15.3953786 24.6396907,15.1549903 C24.3891459,15.0171262 24.04658,14.9596505 23.6587768,14.9596505 L22.1516415,14.9596505 L22.1516415,18.1351845 L23.6467909,18.1351845 Z M20.0057715,21.219068 L21.0106573,21.219068 L21.0106573,14.9025631 L20.0057715,14.9025631 L20.0057715,14.0194563 L23.7612373,14.0194563 C24.2518875,14.0194563 24.7425378,14.0544078 25.1423269,14.2373204 C25.9755431,14.5926602 26.5118172,15.4528544 26.5118172,16.5301359 C26.5118172,17.6648932 25.9179332,18.5821748 24.9938559,18.9033398 C24.6168787,19.0412039 24.2290756,19.0753786 23.7836626,19.0753786 L22.1516415,19.0753786 L22.1516415,21.219068 L23.1677399,21.219068 L23.1677399,22.1134369 L20.0057715,22.1134369 L20.0057715,21.219068 Z" id="Fill-310"></path>
                            <path d="M33.8259859,21.2302136 C35.458007,21.2302136 36.7822601,19.831767 36.7822601,18.0088544 C36.7822601,16.2430291 35.458007,14.8911845 33.8259859,14.8911845 C32.1823656,14.8911845 30.8581125,16.2430291 30.8581125,18.0088544 C30.8581125,19.831767 32.1823656,21.2302136 33.8259859,21.2302136 M33.8259859,13.8822524 C36.1543515,13.8822524 37.9692548,15.6818641 37.9692548,18.0088544 C37.9692548,20.3937087 36.1543515,22.2504078 33.8259859,22.2504078 C31.4864077,22.2504078 29.682717,20.3937087 29.682717,18.0088544 C29.682717,15.6818641 31.4864077,13.8822524 33.8259859,13.8822524" id="Fill-311"></path>
                            <path d="M45.089058,17.9053592 C45.9678981,17.9053592 46.5497961,17.3325437 46.5497961,16.3810874 C46.5497961,15.7507961 46.2988647,15.315068 45.7970018,15.1088544 C45.5340844,15.0059417 45.1919051,14.9597282 44.8037153,14.9597282 L43.4682496,14.9597282 L43.4682496,17.9053592 L45.089058,17.9053592 Z M41.3227663,21.2191456 L42.3268787,21.2191456 L42.3268787,14.9022524 L41.3227663,14.9022524 L41.3227663,14.019534 L44.8153146,14.019534 C45.3856134,14.019534 45.8534517,14.0424466 46.2988647,14.1907961 C47.1436801,14.4781748 47.7027663,15.1892427 47.7027663,16.2898252 C47.7027663,17.4591456 47.063645,18.2948738 46.0363339,18.5593398 L46.0363339,18.5822524 C46.0363339,18.5822524 46.2416415,18.6968155 46.3788998,18.9605049 L47.519884,20.955068 C47.6459297,21.1737087 47.7944007,21.2191456 48.0793568,21.2191456 L48.3190756,21.2191456 L48.3190756,22.1135146 L47.634717,22.1135146 C46.9495852,22.1135146 46.7891283,21.9876893 46.5157715,21.5053592 L45.2719402,19.292932 C45.066246,18.9492427 44.9181617,18.8463301 44.4271248,18.8463301 L43.4682496,18.8463301 L43.4682496,21.2191456 L44.4611494,21.2191456 L44.4611494,22.1135146 L41.3227663,22.1135146 L41.3227663,21.2191456 Z" id="Fill-312"></path>
                            <polygon id="Fill-313" points="53.1109385 21.2192233 54.1266503 21.2192233 54.1266503 14.9598058 52.2320984 14.9598058 52.2320984 16.2203883 51.2391986 16.2203883 51.2391986 14.0196117 58.1554728 14.0196117 58.1554728 16.2203883 57.1629596 16.2203883 57.1629596 14.9598058 55.2684077 14.9598058 55.2684077 21.2192233 56.2841195 21.2192233 56.2841195 22.1135922 53.1109385 22.1135922"></polygon>
                            <polygon id="Fill-314" points="61.3724218 21.2192233 62.3769209 21.2192233 62.3769209 14.9023301 61.3724218 14.9023301 61.3724218 14.0196117 67.204935 14.0196117 67.204935 15.8996117 66.2116485 15.8996117 66.2116485 14.9598058 63.5182917 14.9598058 63.5182917 17.5613592 66.3713322 17.5613592 66.3713322 18.5019417 63.5182917 18.5019417 63.5182917 21.1737864 66.4061301 21.1737864 66.4061301 20.1986408 67.3990299 20.1986408 67.3990299 22.1135922 61.3724218 22.1135922"></polygon>
                            <path d="M74.6330861,17.9053592 C75.5119262,17.9053592 76.0938243,17.3325437 76.0938243,16.3810874 C76.0938243,15.7507961 75.8428928,15.315068 75.3406432,15.1088544 C75.0781125,15.0059417 74.7359332,14.9597282 74.3477434,14.9597282 L73.0122777,14.9597282 L73.0122777,17.9053592 L74.6330861,17.9053592 Z M70.8667944,21.2191456 L71.8709069,21.2191456 L71.8709069,14.9022524 L70.8667944,14.9022524 L70.8667944,14.019534 L74.3589561,14.019534 C74.9300281,14.019534 75.3974798,14.0424466 75.8428928,14.1907961 C76.686935,14.4781748 77.2467944,15.1892427 77.2467944,16.2898252 C77.2467944,17.4591456 76.6076731,18.2948738 75.5799754,18.5593398 L75.5799754,18.5822524 C75.5799754,18.5822524 75.785283,18.6968155 75.9229279,18.9605049 L77.0639121,20.955068 C77.1899578,21.1737087 77.3380422,21.2191456 77.6233849,21.2191456 L77.862717,21.2191456 L77.862717,22.1135146 L77.1783585,22.1135146 C76.4928401,22.1135146 76.3331564,21.9876893 76.059413,21.5053592 L74.8159684,19.292932 C74.6102742,18.9492427 74.4618032,18.8463301 73.9711529,18.8463301 L73.0122777,18.8463301 L73.0122777,21.2191456 L74.0055641,21.2191456 L74.0055641,22.1135146 L70.8667944,22.1135146 L70.8667944,21.2191456 Z" id="Fill-315"></path>
                        </g>
                    </g>
                    <g id="Icon">
                        <polygon id="Fill-1" fill="#C71B0A" points="37.5043937 32.6213592 22.8119508 29.1262136 22.8119508 10.8737864 37.5043937 6.60194175"></polygon>
                        <polygon id="Fill-2" fill="#E62112" points="0 40 23.198594 29.1262136 23.198594 10.8737864 0 0"></polygon>
                    </g>
                </g>
            </g>
        </g>
    </g>
</svg>