<svg xmlns="http://www.w3.org/2000/svg" viewBox="0 0 125 42"><style>.st0{display:none}.st14{fill:#231815}</style><g id="圖層_1"><path fill="#c3000b" d="M40.1 34.5l-15.7-3.7V11.2l15.7-4.4z"/><path fill="#e20012" d="M.3 42.1l24.6-11.3V11.2L.3-.1z"/><path class="st14" d="M117 8.4s.7-.3.9-1.1h1.6v1.4h-2.6l.1-.3zM122.1 12.8s.7-.3.9-1.1h1.6v1.4H122l.1-.3zM119 16.7s.7-.3.9-1.1h1.6V17h-2.6l.1-.3z"/><path class="st14" d="M108.1 8.4h11.4v.5h-11.4zM105.8 12.8h18.9v.5h-18.9zM111.9 16.7h8.9v.6h-8.9zM110.9 20.6h10v.5h-10zM110.9 24.1h10v.5h-10z"/><path class="st14" d="M110.1 17.6h1.6v9.2h-1.6zM119.9 16.8h1.7v10h-1.7zM113.3 5.4h1.7v7.9h-1.7z"/><path class="st14" d="M121.4 6.7s-4.3 8.6-17.1 13.7l.2.5S117 17.4 123 7.7l-1.6-1z"/><g><path class="st14" d="M95.7 8.5s.7-.3.9-1.1h1.6v1.4h-2.6l.1-.3zM95.1 21.3s.7-.3.9-1.1h1.6v1.4H95l.1-.3z"/><path class="st14" d="M84.8 8.5h13.4V9H84.8zM86.3 10.4h10v.6h-10zM86.3 12.3h10v.5h-10zM86.3 14.2h10v.5h-10zM86.3 16h10v.5h-10zM77.4 12.6h5.1v.5h-5.1z"/><path class="st14" d="M81.1 12.5h1.7V17h-1.7zM96.2 8.5s.6-.3.7-.9h1.3v1.1h-2.1l.1-.2z"/><path class="st14" d="M80.8 12.5s.6-.3.7-.9h1.3v1.1h-2.1l.1-.2zM78.7 21.2h19v.5h-19z"/><path class="st14" d="M95.6 21.2s.6-.3.7-.9h1.3v1.1h-2.1l.1-.2zM94.7 10.4s.6-.3.8-.9h1.4v1.1h-2.2v-.2zM81.1 12.6s.5-.2.6-.7h1.1v.9H81l.1-.2zM79 6.9l.3-.4s2.4.6 3.5 2.7l-1.3.9S80.1 7.5 79 6.9zM86.7 5.5l.2-.3s1.6.2 2.7 1.9l-1.4.8c.1-.1-.5-1.6-1.5-2.4zM92.8 5.7s-.8 2.5-1.1 3h.5s1.5-1.6 2.6-3h-2zM77.9 18l3.3-1.5.3.4-2.5 2.9zM82.7 16s.8 1.9 5.5 2c0 0 6.2.3 9.3-.2v1.3s-13.1 1.5-15-2.7l.2-.4z"/><path class="st14" d="M85.5 9.6h1.6v7.6h-1.6zM95.1 10.4h1.7v6.8h-1.7zM84.3 23.1l.3-.3s1.9.4 3 2.1L86.3 26s-1.5-2.8-2-2.9zM91.6 19.9h1.7v5.5c0 .5-.1 1.1-.6 1.4-.2.2-.7.4-1.1.3-.4-.1-.3-.7-.6-.9-.2-.3-.8-.4-1.2-.4v-.3h1s.7.1.7-.6c.1-.7.1-5 .1-5z"/></g><g><path class="st14" d="M49.8 9.2h10.4v.5H49.8zM61.8 7.2h6.3v.5h-6.3zM62.2 15.7h7.3v.5h-7.3z"/><path class="st14" d="M53.7 5.8h1.7v7.5h-1.7zM61.2 6h1.5v20.8h-1.5zM53.7 17.2h1.7v9.7h-1.7zM57.6 9.2s.7-.3.9-1.1h1.6v1.4h-2.6l.1-.3zM57.6 20.9s.7-.3.9-1.1h1.6v1.4h-2.6l.1-.3zM66.5 7.3s.7-.3.9-1.1H69v1.4h-2.6l.1-.3zM57.7 17s.7-.3.9-1.1h1.6v1.4h-2.6l.1-.3zM57.7 13s.7-.3.9-1.1h1.6v1.4h-2.6l.1-.3z"/><path class="st14" d="M49 13h11.2v.5H49zM49 16.9h11.2v.5H49z"/><path class="st14" d="M58.2 16.9s.6-.3.7-.9h1.3v1.1h-2.1l.1-.2zM49.8 20.8h10.4v.5H49.8zM51.3 14.1l.4-.2s1.3 1.3 1.9 2.6l-1.3.5s-.6-2.6-1-2.9zM56.3 13.7l2 .8s-1.8 2-2.5 2.5l-.3-.2c.1 0 .6-1.6.8-3.1zM67.4 7.2v5.7s.1.7-.5.7h-.7v.4s1 .1 1 .6 1.9 1 1.9-1.7V7.2h-1.7zM67.8 15.7s-.6 6.7-4.7 11.3l.2.3s5.3-4.6 6.2-11.5l-1.7-.1z"/><path class="st14" d="M63.7 16.8s1.2 6.1 6.8 8.7l-1.3 1.7s-4.8-2.4-5.9-10.3l.4-.1z"/></g><g><path class="st14" d="M51.8 35.5h.6v-3.7h-1.1v.7h-.6v-1.3h4.1v1.3h-.6v-.7h-1.1v3.7h.6v.5h-1.9v-.5zM56.7 35.5h.6v-3.8h-.6v-.5h1.9v.5H58v1.6h2.5v-1.6h-.6v-.5h1.9v.5h-.6v3.8h.6v.5h-1.9v-.5h.6v-1.6H58v1.6h.6v.5h-1.9v-.5zM63.8 35.5h.6v-3.8h-.6v-.5h3.5v1.1h-.6v-.6h-1.6v1.5h1.7v.6h-1.7v1.6h1.7v-.6h.6V36h-3.6v-.5zM77.4 35.5h.6v-3.8h-.6v-.5h2.1c.3 0 .6 0 .9.1.5.2.8.6.8 1.2 0 .7-.4 1.2-1 1.3l.2.2.7 1.2c.1.1.2.2.3.2h.1v.6h-.4c-.4 0-.5-.1-.7-.4l-.7-1.3c-.1-.2-.2-.3-.5-.3h-.6v1.4h.6v.6h-1.9v-.5zm2.2-2c.5 0 .9-.3.9-.9 0-.4-.2-.6-.4-.8-.2-.1-.4-.1-.6-.1h-.8v1.7h.9zM83.5 35.5h.6v-3.8h-.6v-.5H87v1.1h-.6v-.6h-1.6v1.5h1.7v.6h-1.7v1.6h1.7v-.6h.6V36h-3.6v-.5zM89.1 35.5h.6v-3.8h-.6v-.5h2.2c.3 0 .6 0 .8.1.5.2.8.7.8 1.4s-.4 1.2-.9 1.4c-.2.1-.5.1-.7.1h-1v1.3h.7v.5h-1.9v-.5zm2.2-1.9c.2 0 .4 0 .5-.1.3-.1.5-.4.5-.9 0-.4-.2-.7-.4-.8-.1-.1-.4-.1-.6-.1h-.9v1.9h.9zM97.4 31.1c1.4 0 2.5 1.1 2.5 2.5s-1.1 2.5-2.5 2.5-2.5-1.1-2.5-2.5 1.1-2.5 2.5-2.5zm0 4.4c1 0 1.8-.8 1.8-1.9 0-1-.8-1.9-1.8-1.9s-1.8.8-1.8 1.9c0 1 .8 1.9 1.8 1.9zM101.9 35.5h.6v-3.8h-.6v-.5h2.1c.3 0 .6 0 .9.1.5.2.8.6.8 1.2 0 .7-.4 1.2-1 1.3l.2.2.7 1.2c.1.1.2.2.3.2h.1v.6h-.4c-.4 0-.5-.1-.7-.4l-.7-1.3c-.1-.2-.2-.3-.5-.3h-.6v1.4h.6v.6h-1.9v-.5zm2.2-2c.5 0 .9-.3.9-.9 0-.4-.2-.6-.4-.8-.2-.1-.4-.1-.6-.1h-.8v1.7h.9zM108.9 35.5h.6v-3.7h-1.1v.7h-.6v-1.3h4.1v1.3h-.6v-.7h-1.1v3.7h.6v.5h-1.9v-.5zM113.8 35.5h.6v-3.8h-.6v-.5h3.5v1.1h-.6v-.6h-1.6v1.5h1.7v.6h-1.7v1.6h1.7v-.6h.6V36h-3.6v-.5zM119.5 35.5h.6v-3.8h-.6v-.5h2.1c.3 0 .6 0 .9.1.5.2.8.6.8 1.2 0 .7-.4 1.2-1 1.3l.2.2.7 1.2c.1.1.2.2.3.2h.1v.6h-.4c-.4 0-.5-.1-.7-.4l-.7-1.3c-.1-.2-.2-.3-.5-.3h-.6v1.4h.6v.6h-1.9v-.5zm2.2-2c.5 0 .9-.3.9-.9 0-.4-.1-.6-.4-.8-.2-.1-.4-.1-.6-.1h-.8v1.7h.9z"/></g></g></svg>