<?xml version="1.0" encoding="UTF-8" standalone="no"?>
<svg width="309px" height="56px" viewBox="0 0 309 56" version="1.1" xmlns="http://www.w3.org/2000/svg" xmlns:xlink="http://www.w3.org/1999/xlink">
    <!-- Generator: Sketch 39.1 (31720) - http://www.bohemiancoding.com/sketch -->
    <title>logo-navbar</title>
    <desc>Created with Sketch.</desc>
    <defs></defs>
    <g id="Desktop" stroke="none" stroke-width="1" fill="none" fill-rule="evenodd">
        <g id="Article-–-Topic-Main-View-–-Desktop" transform="translate(-358.000000, -40.000000)">
            <g id="Nav-Bar" transform="translate(40.000000, 40.000000)">
                <g id="logo-navbar" transform="translate(318.000000, 0.000000)">
                    <g id="Typography" transform="translate(63.537786, 8.699029)" fill="#231816">
                        <g id="Group">
                            <path d="M111.380163,5.84297476 C111.380163,5.84297476 112.644402,5.28134369 112.959919,3.91179029 L115.766443,3.91179029 L115.766443,6.26487767 L111.240054,6.26487767 L111.380163,5.84297476 L111.380163,5.84297476 Z" id="Fill-8"></path>
                            <path d="M120.192963,13.376334 C120.192963,13.376334 121.456116,12.8141592 121.772175,11.4435184 L124.579785,11.4435184 L124.579785,13.7971495 L120.053397,13.7971495 L120.192963,13.376334 Z" id="Fill-10"></path>
                            <path d="M114.890436,20.0404971 C114.890436,20.0404971 116.152503,19.477235 116.469649,18.1076816 L119.276172,18.1076816 L119.276172,20.4624 L114.749241,20.4624 L114.890436,20.0404971 Z" id="Fill-12"></path>
                            <polygon id="Fill-14" points="96.1853462 6.69770874 115.756613 6.69770874 115.756613 5.81747573 96.1853462 5.81747573"></polygon>
                            <polygon id="Fill-16" points="92.2764148 14.2071456 124.589995 14.2071456 124.589995 13.328 92.2764148 13.328"></polygon>
                            <polygon id="Fill-17" points="102.744944 20.9053981 117.979893 20.9053981 117.979893 19.9577476 102.744944 19.9577476"></polygon>
                            <polygon id="Fill-18" points="101.07504 27.5335146 118.10371 27.5335146 118.10371 26.6532816 101.07504 26.6532816"></polygon>
                            <polygon id="Fill-19" points="101.07504 33.566835 118.10371 33.566835 118.10371 32.6860583 101.07504 32.6860583"></polygon>
                            <polygon id="Fill-20" points="99.694587 37.1981359 102.439745 37.1981359 102.439745 21.4974757 99.694587 21.4974757"></polygon>
                            <polygon id="Fill-21" points="116.463132 37.2595728 119.289749 37.2595728 119.289749 20.1540194 116.463132 20.1540194"></polygon>
                            <polygon id="Fill-22" points="105.107789 14.1745243 107.974592 14.1745243 107.974592 0.653514563 105.107789 0.653514563"></polygon>
                            <path d="M118.932091,2.84632233 C118.932091,2.84632233 111.553562,17.5107107 89.6943912,26.2304 L89.97298,27.0078757 C89.97298,27.0078757 111.273887,20.9538951 121.539312,4.45727379 L118.932091,2.84632233 Z" id="Fill-23"></path>
                            <path d="M77.1778819,6.01499806 C77.1778819,6.01499806 78.4404917,5.4528233 78.7565515,4.0832699 L81.5636183,4.0832699 L81.5636183,6.43690097 L77.0361438,6.43690097 L77.1778819,6.01499806 Z" id="Fill-36"></path>
                            <path d="M76.196196,27.7941592 C76.196196,27.7941592 77.4593489,27.2308971 77.7759517,25.8613437 L80.5830185,25.8613437 L80.5830185,28.2149748 L76.0550009,28.2149748 L76.196196,27.7941592 Z" id="Fill-37"></path>
                            <polygon id="Fill-38" points="58.6079051 6.90702913 81.548304 6.90702913 81.548304 6.0278835 58.6079051 6.0278835"></polygon>
                            <polygon id="Fill-39" points="61.0923954 10.0941359 78.2389086 10.0941359 78.2389086 9.14648544 61.0923954 9.14648544"></polygon>
                            <polygon id="Fill-40" points="61.1331248 13.4024854 78.280181 13.4024854 78.280181 12.5222524 61.1331248 12.5222524"></polygon>
                            <polygon id="Fill-41" points="61.0923954 16.5243495 78.2389086 16.5243495 78.2389086 15.6441165 61.0923954 15.6441165"></polygon>
                            <polygon id="Fill-42" points="61.0923954 19.7304854 78.2389086 19.7304854 78.2389086 18.8502524 61.0923954 18.8502524"></polygon>
                            <polygon id="Fill-43" points="45.9166397 13.798835 54.6767083 13.798835 54.6767083 12.9186019 45.9166397 12.9186019"></polygon>
                            <polygon id="Fill-44" points="52.2780211 20.496 55.1486257 20.496 55.1486257 12.8604272 52.2780211 12.8604272"></polygon>
                            <path d="M78.0815304,6.02347961 C78.0815304,6.02347961 79.0802141,5.57928544 79.3300207,4.49571262 L81.5478696,4.49571262 L81.5478696,6.35676117 L77.9696605,6.35676117 L78.0815304,6.02347961 Z" id="Fill-45"></path>
                            <path d="M51.6806573,12.885165 C51.6806573,12.885165 52.6793409,12.4409709 52.9291476,11.3579417 L55.1464534,11.3579417 L55.1464534,13.2184466 L51.5687873,13.2184466 L51.6806573,12.885165 Z" id="Fill-46"></path>
                            <polygon id="Fill-47" points="48.0932162 28.511068 80.5822039 28.511068 80.5822039 27.630835 48.0932162 27.630835"></polygon>
                            <path d="M77.0858336,27.6266485 C77.0858336,27.6266485 78.0845172,27.1835417 78.3343239,26.0994252 L80.5532589,26.0994252 L80.5532589,27.9610175 L76.9739636,27.9610175 L77.0858336,27.6266485 Z" id="Fill-48"></path>
                            <path d="M75.4373267,9.20226796 C75.4373267,9.20226796 76.4827134,8.73741359 76.7455534,7.60327767 L79.0687555,7.60327767 L79.0687555,9.5513165 L75.3211123,9.5513165 L75.4373267,9.20226796 Z" id="Fill-49"></path>
                            <path d="M52.2412018,12.9114796 C52.2412018,12.9114796 53.0775111,12.5374214 53.2876745,11.6294602 L55.1487343,11.6294602 L55.1487343,13.1909359 L52.1467097,13.1909359 L52.2412018,12.9114796 Z" id="Fill-50"></path>
                            <path d="M48.6752657,3.24055146 L49.1325206,2.53266796 C49.1325206,2.53266796 53.2928879,3.53251262 55.1658949,7.15565825 L53.0018088,8.69810485 C53.0018088,8.69810485 50.6297315,4.19907573 48.6752657,3.24055146" id="Fill-51"></path>
                            <path d="M61.7810473,0.800582524 L62.1796518,0.312893204 C62.1796518,0.312893204 64.9258961,0.623339806 66.8738452,3.54947573 L64.4838469,4.83475728 C64.4838469,4.83475728 63.5975763,2.17557282 61.7810473,0.800582524" id="Fill-52"></path>
                            <path d="M72.187722,1.16904078 C72.187722,1.16904078 70.8702633,5.53323495 70.3706499,6.35148738 L71.1423353,6.35148738 C71.1423353,6.35148738 73.7767097,3.62434175 75.5470787,1.2592932 L72.187722,1.16904078 Z" id="Fill-53"></path>
                            <polygon id="Fill-54" points="46.8448344 22.2014447 52.5029557 19.6183767 52.9194812 20.3278913 48.675483 25.3254835"></polygon>
                            <path d="M54.9991761,18.873468 C54.9991761,18.873468 56.3166348,22.1095068 64.4152587,22.3041476 C64.4152587,22.3041476 74.998916,22.8597981 80.3388053,21.914866 L80.3388053,24.2048854 C80.3388053,24.2048854 57.8697807,26.7047689 54.6255522,19.6226718 L54.9991761,18.873468 Z" id="Fill-55"></path>
                            <polygon id="Fill-56" points="59.8504218 20.8461359 62.6373954 20.8461359 62.6373954 7.91883495 59.8504218 7.91883495"></polygon>
                            <polygon id="Fill-57" points="76.2339385 20.8928932 79.0616415 20.8928932 79.0616415 9.19215534 76.2339385 9.19215534"></polygon>
                            <path d="M57.6885079,30.8808466 L58.1452197,30.4225165 C58.1452197,30.4225165 61.3916204,31.1711767 63.3048137,34.0048854 L61.1423568,35.8784388 C61.1423568,35.8784388 58.5612021,31.1711767 57.6885079,30.8808466" id="Fill-58"></path>
                            <path d="M70.2204401,25.4781515 L73.0432555,25.4781515 L73.0432555,34.8567922 C73.0432555,35.7843262 72.8216879,36.6819573 72.064665,37.2381515 C71.6389076,37.5518602 70.7863065,37.9764816 70.2378179,37.818268 C69.5198953,37.610035 69.6534875,36.6917437 69.2684594,36.2127534 C68.861709,35.7082097 67.8901782,35.5853359 67.2835824,35.5853359 L67.3063909,34.9938019 L69.0371167,34.9938019 C69.0371167,34.9938019 70.2541097,35.1759379 70.2541097,33.9901515 C70.2541097,32.8059961 70.2204401,25.4781515 70.2204401,25.4781515" id="Fill-59"></path>
                            <polygon id="Fill-84" points="1.46299824 8.0591068 19.1639736 8.0591068 19.1639736 7.18757282 1.46299824 7.18757282"></polygon>
                            <polygon id="Fill-85" points="22.0079684 4.60504854 32.800703 4.60504854 32.800703 3.73297087 22.0079684 3.73297087"></polygon>
                            <polygon id="Fill-86" points="22.6672408 19.0639223 35.1662636 19.0639223 35.1662636 18.2603495 22.6672408 18.2603495"></polygon>
                            <polygon id="Fill-87" points="8.19094376 14.2191068 11.0343954 14.2191068 11.0343954 1.31409709 8.19094376 1.31409709"></polygon>
                            <polygon id="Fill-88" points="20.9484622 37.3193786 23.5898963 37.3193786 23.5898963 1.70935922 20.9484622 1.70935922"></polygon>
                            <polygon id="Fill-89" points="8.19094376 37.5308738 11.0343954 37.5308738 11.0343954 20.8961553 8.19094376 20.8961553"></polygon>
                            <path d="M14.8272211,7.17963495 C14.8272211,7.17963495 16.0773406,6.62289709 16.390142,5.26693592 L19.1695128,5.26693592 L19.1695128,7.59718835 L14.6876552,7.59718835 L14.8272211,7.17963495 Z" id="Fill-90"></path>
                            <path d="M14.8272211,27.1779961 C14.8272211,27.1779961 16.0773406,26.6212583 16.390142,25.2642097 L19.1695128,25.2642097 L19.1695128,27.5960932 L14.6876552,27.5960932 L14.8272211,27.1779961 Z" id="Fill-91"></path>
                            <path d="M29.9697417,3.82403883 C29.9697417,3.82403883 31.2209473,3.26730097 31.5348348,1.91079612 L34.3131195,1.91079612 L34.3131195,4.24159223 L29.8301757,4.24159223 L29.9697417,3.82403883 Z" id="Fill-92"></path>
                            <path d="M14.9614107,20.4230369 C14.9614107,20.4230369 16.2115302,19.866299 16.5237886,18.5081631 L19.3037025,18.5081631 L19.3037025,20.8405903 L14.8218448,20.8405903 L14.9614107,20.4230369 Z" id="Fill-93"></path>
                            <path d="M14.903575,13.6898252 C14.903575,13.6898252 16.1542376,13.1330874 16.4675821,11.7771262 L19.2458668,11.7771262 L19.2458668,14.1057476 L14.7640091,14.1057476 L14.903575,13.6898252 Z" id="Fill-94"></path>
                            <polygon id="Fill-95" points="0.0553919156 14.5735922 19.242174 14.5735922 19.242174 13.7015146 0.0553919156 13.7015146"></polygon>
                            <polygon id="Fill-96" points="0.163460457 21.2647767 19.2872478 21.2647767 19.2872478 20.3932427 0.163460457 20.3932427"></polygon>
                            <path d="M15.8499622,20.3502913 C15.8499622,20.3502913 16.8394139,19.9088155 17.0848761,18.8372039 L19.2820888,18.8372039 L19.2820888,20.6792233 L15.7391784,20.6792233 L15.8499622,20.3502913 Z" id="Fill-97"></path>
                            <polygon id="Fill-98" points="1.47494552 27.8869126 19.1737487 27.8869126 19.1737487 27.0142913 1.47494552 27.0142913"></polygon>
                            <path d="M4.11322988,15.5436427 L4.71765343,15.1869825 C4.71765343,15.1869825 6.9974109,17.4965748 8.01292935,19.5865165 L5.78910685,20.5488466 C5.78910685,20.5488466 4.66389069,16.1221282 4.11322988,15.5436427" id="Fill-99"></path>
                            <path d="M12.5741278,14.910734 L15.9524916,16.2601709 C15.9524916,16.2601709 12.7924371,19.6419184 11.7492227,20.4656078 L11.3098888,20.1910447 C11.3098888,20.1910447 12.1890996,17.495433 12.5741278,14.910734" id="Fill-100"></path>
                            <path d="M31.5546021,3.7287301 L31.5546021,12.7316816 L31.5546021,13.3726913 C31.5546021,13.3726913 31.7023139,14.6557981 30.6178271,14.6557981 L29.4850081,14.6557981 L29.4850081,15.294633 C29.4850081,15.294633 31.1103807,15.3952155 31.1103807,16.3330796 C31.1103807,17.2687689 34.3133367,17.9592544 34.3133367,13.3726913 L34.3133367,3.62977864 L31.5546021,3.7287301 Z" id="Fill-101"></path>
                            <path d="M32.320151,18.2283806 C32.320151,18.2283806 31.3578522,29.653468 24.3513179,37.5967689 L24.6461984,38.0801087 C24.6461984,38.0801087 33.7559963,30.2107495 35.2331141,18.4773903 L32.320151,18.2283806 Z" id="Fill-102"></path>
                            <path d="M25.2328097,20.1352621 C25.2328097,20.1352621 27.2106269,30.6404272 36.9335373,34.9714563 L34.7086286,37.8165825 C34.7086286,37.8165825 26.4275373,33.7465243 24.6148097,20.2586796 L25.2328097,20.1352621 Z" id="Fill-103"></path>
                        </g>
                        <g id="Group" transform="translate(135.764499, 4.349515)">
                            <polygon id="Fill-305" points="3.08570984 10.1338252 4.51178014 10.1338252 4.51178014 1.37064078 1.85133902 1.37064078 1.85133902 3.13545631 0.456766081 3.13545631 0.456766081 0.054368932 10.1709875 0.054368932 10.1709875 3.13545631 8.77641459 3.13545631 8.77641459 1.37064078 6.11597346 1.37064078 6.11597346 10.1338252 7.54204376 10.1338252 7.54204376 11.3859417 3.08570984 11.3859417"></polygon>
                            <polygon id="Fill-306" points="14.6890671 10.1338252 16.0999318 10.1338252 16.0999318 1.29017476 14.6890671 1.29017476 14.6890671 0.054368932 19.1296524 0.054368932 19.1296524 1.29017476 17.702496 1.29017476 17.702496 5.06229126 23.5702376 5.06229126 23.5702376 1.29017476 22.1441673 1.29017476 22.1441673 0.054368932 26.5842095 0.054368932 26.5842095 1.29017476 25.1733448 1.29017476 25.1733448 10.1338252 26.5842095 10.1338252 26.5842095 11.3859417 22.1441673 11.3859417 22.1441673 10.1338252 23.5702376 10.1338252 23.5702376 6.37801942 17.702496 6.37801942 17.702496 10.1338252 19.1296524 10.1338252 19.1296524 11.3859417 14.6890671 11.3859417"></polygon>
                            <polygon id="Fill-307" points="31.4867199 10.1338252 32.8975845 10.1338252 32.8975845 1.29017476 31.4867199 1.29017476 31.4867199 0.054368932 39.6782067 0.054368932 39.6782067 2.68636893 38.2841768 2.68636893 38.2841768 1.37064078 34.5001487 1.37064078 34.5001487 5.01281553 38.5079167 5.01281553 38.5079167 6.32963107 34.5001487 6.32963107 34.5001487 10.0702136 38.5562489 10.0702136 38.5562489 8.70500971 39.9508218 8.70500971 39.9508218 11.3859417 31.4867199 11.3859417"></polygon>
                            <path d="M5.6771826,25.0675029 C6.91155343,25.0675029 7.72939877,24.2655612 7.72939877,22.9335223 C7.72939877,22.0511146 7.37641107,21.4410951 6.67152179,21.1523961 C6.30224236,21.0083184 5.82163603,20.9436194 5.2764058,20.9436194 L3.40068348,20.9436194 L3.40068348,25.0675029 L5.6771826,25.0675029 Z M0.386711599,29.7068039 L1.79811933,29.7068039 L1.79811933,20.8631534 L0.386711599,20.8631534 L0.386711599,19.6273476 L5.29269754,19.6273476 C6.09425114,19.6273476 6.75135132,19.6594252 7.37641107,19.8671146 C8.56299279,20.2694447 9.3477116,21.2649398 9.3477116,22.8057553 C9.3477116,24.4428039 8.45057979,25.6128233 7.00713163,25.9830757 L7.00713163,26.0151534 C7.00713163,26.0151534 7.29603849,26.1755417 7.48828102,26.5447068 L9.09193128,29.3370951 C9.26842513,29.6431922 9.4769594,29.7068039 9.87719315,29.7068039 L10.2138891,29.7068039 L10.2138891,30.9589204 L9.25213339,30.9589204 C8.29037768,30.9589204 8.06555167,30.782765 7.68160967,30.1075029 L5.93350598,27.0101049 C5.64514218,26.5289398 5.43660791,26.3848621 4.74746731,26.3848621 L3.40068348,26.3848621 L3.40068348,29.7068039 L4.79525641,29.7068039 L4.79525641,30.9589204 L0.386711599,30.9589204 L0.386711599,29.7068039 Z" id="Fill-308"></path>
                            <polygon id="Fill-309" points="14.7641178 29.7069126 16.1749824 29.7069126 16.1749824 20.8632621 14.7641178 20.8632621 14.7641178 19.6274563 22.9556046 19.6274563 22.9556046 22.2594563 21.5615747 22.2594563 21.5615747 20.9437282 17.7775466 20.9437282 17.7775466 24.5859029 21.7858576 24.5859029 21.7858576 25.9027184 17.7775466 25.9027184 17.7775466 29.643301 21.8341898 29.643301 21.8341898 28.2780971 23.2287627 28.2780971 23.2287627 30.9590291 14.7641178 30.9590291"></polygon>
                            <path d="M33.2129926,25.3892583 C33.7261824,25.3892583 34.1275023,25.3082485 34.4794039,25.1652583 C35.2011279,24.8439379 35.6181965,24.1208311 35.6181965,23.1421903 C35.6181965,22.2271612 35.248917,21.5535301 34.6075656,21.2169864 C34.255664,21.0239767 33.7745146,20.9435107 33.2298274,20.9435107 L31.1129873,20.9435107 L31.1129873,25.3892583 L33.2129926,25.3892583 Z M28.0990155,29.7066951 L29.5104232,29.7066951 L29.5104232,20.8635883 L28.0990155,20.8635883 L28.0990155,19.6272388 L33.3737378,19.6272388 C34.0628784,19.6272388 34.752019,19.6761709 35.3135409,19.9322485 C36.4838309,20.4297243 37.2370524,21.6339961 37.2370524,23.1421903 C37.2370524,24.7308505 36.4029153,26.0150447 35.1050067,26.4646757 C34.5755251,26.6576854 34.030838,26.7055301 33.4052351,26.7055301 L31.1129873,26.7055301 L31.1129873,29.7066951 L32.5401438,29.7066951 L32.5401438,30.9588117 L28.0990155,30.9588117 L28.0990155,29.7066951 Z" id="Fill-310"></path>
                            <path d="M47.5101348,29.722299 C49.8023826,29.722299 51.6623562,27.7644738 51.6623562,25.2123961 C51.6623562,22.7402408 49.8023826,20.8476583 47.5101348,20.8476583 C45.2015953,20.8476583 43.3416216,22.7402408 43.3416216,25.2123961 C43.3416216,27.7644738 45.2015953,29.722299 47.5101348,29.722299 M47.5101348,19.4351534 C50.7804301,19.4351534 53.3295443,21.9546097 53.3295443,25.2123961 C53.3295443,28.5511922 50.7804301,31.1505709 47.5101348,31.1505709 C44.2240909,31.1505709 41.6907253,28.5511922 41.6907253,25.2123961 C41.6907253,21.9546097 44.2240909,19.4351534 47.5101348,19.4351534" id="Fill-311"></path>
                            <path d="M63.3296315,25.0675029 C64.5640023,25.0675029 65.3813046,24.2655612 65.3813046,22.9335223 C65.3813046,22.0511146 65.0288599,21.4410951 64.3239707,21.1523961 C63.9546912,21.0083184 63.4740849,20.9436194 62.9288547,20.9436194 L61.0531323,20.9436194 L61.0531323,25.0675029 L63.3296315,25.0675029 Z M58.0397035,29.7068039 L59.4500251,29.7068039 L59.4500251,20.8631534 L58.0397035,20.8631534 L58.0397035,19.6273476 L62.9451464,19.6273476 C63.7461569,19.6273476 64.4032571,19.6594252 65.0288599,19.8671146 C66.2154417,20.2694447 67.0007035,21.2649398 67.0007035,22.8057553 C67.0007035,24.4428039 66.1030286,25.6128233 64.6601236,25.9830757 L64.6601236,26.0151534 C64.6601236,26.0151534 64.9484873,26.1755417 65.1412729,26.5447068 L66.7438371,29.3370951 C66.920874,29.6431922 67.1294083,29.7068039 67.529642,29.7068039 L67.866338,29.7068039 L67.866338,30.9589204 L66.9051253,30.9589204 C65.9428265,30.9589204 65.7174575,30.782765 65.3335155,30.1075029 L63.5864979,27.0101049 C63.297591,26.5289398 63.0895998,26.3848621 62.3999162,26.3848621 L61.0531323,26.3848621 L61.0531323,29.7068039 L62.4477053,29.7068039 L62.4477053,30.9589204 L58.0397035,30.9589204 L58.0397035,29.7068039 Z" id="Fill-312"></path>
                            <polygon id="Fill-313" points="74.5967272 29.7069126 76.0233406 29.7069126 76.0233406 20.9437282 73.3623564 20.9437282 73.3623564 22.7085437 71.9677835 22.7085437 71.9677835 19.6274563 81.6820049 19.6274563 81.6820049 22.7085437 80.287975 22.7085437 80.287975 20.9437282 77.6269909 20.9437282 77.6269909 29.7069126 79.0536042 29.7069126 79.0536042 30.9590291 74.5967272 30.9590291"></polygon>
                            <polygon id="Fill-314" points="86.2003561 29.7069126 87.6112207 29.7069126 87.6112207 20.8632621 86.2003561 20.8632621 86.2003561 19.6274563 94.3923859 19.6274563 94.3923859 22.2594563 92.9972699 22.2594563 92.9972699 20.9437282 89.2143279 20.9437282 89.2143279 24.5859029 93.2215529 24.5859029 93.2215529 25.9027184 89.2143279 25.9027184 89.2143279 29.643301 93.2704281 29.643301 93.2704281 28.2780971 94.6650011 28.2780971 94.6650011 30.9590291 86.2003561 30.9590291"></polygon>
                            <path d="M104.825562,25.0675029 C106.059933,25.0675029 106.877235,24.2655612 106.877235,22.9335223 C106.877235,22.0511146 106.52479,21.4410951 105.819358,21.1523961 C105.450622,21.0083184 104.970015,20.9436194 104.424785,20.9436194 L102.549063,20.9436194 L102.549063,25.0675029 L104.825562,25.0675029 Z M99.5356339,29.7068039 L100.945956,29.7068039 L100.945956,20.8631534 L99.5356339,20.8631534 L99.5356339,19.6273476 L104.440534,19.6273476 C105.24263,19.6273476 105.899188,19.6594252 106.52479,19.8671146 C107.710286,20.2694447 108.496634,21.2649398 108.496634,22.8057553 C108.496634,24.4428039 107.598959,25.6128233 106.155511,25.9830757 L106.155511,26.0151534 C106.155511,26.0151534 106.443875,26.1755417 106.637203,26.5447068 L108.239767,29.3370951 C108.416804,29.6431922 108.624796,29.7068039 109.025572,29.7068039 L109.361725,29.7068039 L109.361725,30.9589204 L108.400513,30.9589204 C107.437671,30.9589204 107.213388,30.782765 106.828903,30.1075029 L105.082428,27.0101049 C104.793521,26.5289398 104.584987,26.3848621 103.895847,26.3848621 L102.549063,26.3848621 L102.549063,29.7068039 L103.944179,29.7068039 L103.944179,30.9589204 L99.5356339,30.9589204 L99.5356339,29.7068039 Z" id="Fill-315"></path>
                        </g>
                    </g>
                    <g id="Icon">
                        <polygon id="Fill-1" fill="#C71B0A" points="52.6766257 45.6699029 32.0404218 40.776699 32.0404218 15.223301 52.6766257 9.24271845"></polygon>
                        <polygon id="Fill-2" fill="#E62112" points="0 56 32.5834798 40.776699 32.5834798 15.223301 0 0"></polygon>
                    </g>
                </g>
            </g>
        </g>
    </g>
</svg>