<?xml version="1.0" encoding="UTF-8" standalone="no"?><!DOCTYPE svg PUBLIC "-//W3C//DTD SVG 1.1//EN" "http://www.w3.org/Graphics/SVG/1.1/DTD/svg11.dtd"><svg width="100%" height="100%" viewBox="0 0 119 48" version="1.1" xmlns="http://www.w3.org/2000/svg" xmlns:xlink="http://www.w3.org/1999/xlink" xml:space="preserve" xmlns:serif="http://www.serif.com/" style="fill-rule:evenodd;clip-rule:evenodd;stroke-linejoin:round;stroke-miterlimit:2;"><g><path d="M106.394,5.308c0,0 1.151,-0.511 1.439,-1.757l2.555,0l0,2.14l-4.121,0l0.127,-0.383Zm8.025,6.851c0,0 1.15,-0.511 1.438,-1.757l2.556,0l0,2.14l-4.121,0l0.127,-0.383Zm-4.828,6.061c0,0 1.15,-0.512 1.437,-1.758l2.556,0l0,2.142l-4.122,0l0.129,-0.384Z" style="fill:#fff;"/><path d="M92.559,6.085l17.82,0l0,-0.8l-17.82,0l0,0.8Zm-3.56,6.83l29.423,0l0,-0.8l-29.423,0l0,0.8Zm9.532,6.092l13.872,0l0,-0.862l-13.872,0l0,0.861Zm-1.52,6.028l15.505,0l0,-0.8l-15.505,0l0,0.8Zm0,5.488l15.505,0l0,-0.8l-15.505,0l0,0.8Z" style="fill:#fff;"/><path d="M95.754,33.825l2.5,-0.001l0,-14.28l-2.5,0l0,14.28Zm15.268,0.056l2.574,0l0,-15.556l-2.574,0l0,15.556Zm-10.339,-20.996l2.61,0l0,-12.297l-2.61,0l0,12.297Z" style="fill:#fff;"/><path d="M113.271,2.583c0,0 -6.719,13.336 -26.623,21.267l0.254,0.707c0,0 19.395,-5.506 28.743,-20.511l-2.374,-1.464Zm-39.997,2.881c0,0 1.149,-0.511 1.437,-1.757l2.556,0l0,2.141l-4.122,-0.001l0.129,-0.383Zm-0.894,19.808c0,0 1.15,-0.512 1.438,-1.758l2.556,0l0,2.14l-4.123,0l0.129,-0.382Z" style="fill:#fff;"/><path d="M56.365,6.275l20.888,0l0,-0.799l-20.888,0l0,0.799Zm2.262,2.899l15.613,0l0,-0.862l-15.614,0l0.001,0.862Zm0.037,3.01l15.613,0l0,-0.801l-15.613,0l0,0.801Zm-0.037,2.838l15.613,0l0,-0.8l-15.614,0l0.001,0.8Zm0,2.916l15.613,0l0,-0.8l-15.614,0l0.001,0.8Zm-13.819,-5.394l7.977,0l0,-0.801l-7.977,0l0,0.801Z" style="fill:#fff;"/><path d="M50.601,18.634l2.614,0l0,-6.945l-2.614,0l0,6.945Zm23.495,-13.163c0,0 0.91,-0.403 1.138,-1.389l2.02,0l0,1.693l-3.26,0l0.103,-0.304l-0.001,0Z" style="fill:#fff;"/><path d="M50.057,11.713c0,-0.001 0.91,-0.405 1.137,-1.391l2.02,0l0,1.693l-3.259,0l0.102,-0.303Zm-3.266,14.212l29.582,0l0,-0.8l-29.582,0l0,0.8Z" style="fill:#fff;"/><path d="M73.19,25.12c0,0 0.91,-0.404 1.137,-1.39l2.02,0l0,1.695l-3.26,0l0.103,-0.304l0,-0.002Zm-1.501,-16.758c0,0 0.952,-0.422 1.19,-1.454l2.116,0l0,1.772l-3.412,0l0.106,-0.318Zm-21.122,3.374c0,0 0.763,-0.34 0.954,-1.166l1.694,0l0,1.42l-2.733,0l0.085,-0.254Zm-3.247,-8.795l0.417,-0.644c0,0 3.789,0.91 5.494,4.205l-1.971,1.402c0,0 -2.16,-4.091 -3.94,-4.963m11.934,-2.219l0.363,-0.443c0,0 2.5,0.282 4.274,2.943l-2.175,1.169c0,0 -0.806,-2.419 -2.46,-3.67m9.474,0.336c0,0 -1.2,3.968 -1.655,4.713l0.703,0c0,0 2.399,-2.48 4.01,-4.632l-3.057,-0.081l-0.001,0Zm-23.076,19.128l5.151,-2.35l0.38,0.646l-3.865,4.545l-1.666,-2.841Zm7.425,-3.026c0,0 1.2,2.943 8.574,3.12c0,0 9.636,0.505 14.499,-0.354l0,2.082c0,0 -20.459,2.274 -23.413,-4.167l0.34,-0.681Z" style="fill:#fff;"/><path d="M57.496,18.952l2.538,0l0,-11.758l-2.538,0.001l0,11.757Zm14.918,0.043l2.575,0l0,-10.642l-2.575,0l0,10.642Zm-16.886,9.084l0.415,-0.418c0,0 2.957,0.681 4.7,3.258l-1.97,1.704c0,0 -2.35,-4.28 -3.145,-4.545m11.41,-4.914l2.571,0l0,8.531c0,0.844 -0.202,1.659 -0.892,2.165c-0.387,0.285 -1.163,0.672 -1.662,0.529c-0.654,-0.191 -0.533,-1.026 -0.884,-1.461c-0.37,-0.459 -1.254,-0.571 -1.806,-0.571l0.02,-0.538l1.576,0c0,0 1.109,0.165 1.109,-0.912c0,-1.077 -0.032,-7.743 -0.032,-7.743m-65.079,-15.842l16.118,0.001l0,-0.793l-16.118,0l0,0.793Zm18.707,-3.141l9.828,0l0,-0.793l-9.827,0l-0.001,0.793Zm0.601,13.15l11.38,0l0,-0.732l-11.38,0l0,0.732Z" style="fill:#fff;"/><path d="M7.986,12.925l2.589,0l0,-11.736l-2.59,0.001l0.001,11.735Zm11.616,21.01l2.405,-0.001l0,-32.386l-2.405,0l0,32.386Zm-11.616,0.193l2.589,0l0,-15.131l-2.59,0l0.001,15.131Zm6.043,-27.604c0,0 1.138,-0.507 1.423,-1.74l2.53,0l0,2.119l-4.08,0l0.127,-0.38l0,0.001Zm0,18.188c0,0 1.138,-0.506 1.423,-1.739l2.53,0l0,2.12l-4.08,0l0.127,-0.38Zm13.787,-21.241c0,0 1.14,-0.507 1.426,-1.741l2.529,0l0,2.12l-4.082,0l0.127,-0.38l0,0.001Zm-13.666,15.096c0,0 1.139,-0.507 1.424,-1.742l2.53,0l0,2.122l-4.08,0l0.126,-0.38Zm-0.052,-6.123c0,0 1.139,-0.507 1.424,-1.74l2.53,0l0,2.118l-4.081,0l0.127,-0.379l0,0.001Z" style="fill:#fff;"/><path d="M0.578,13.248l17.47,-0.001l0,-0.793l-17.47,0l0,0.793Zm0.098,6.086l17.413,0l0,-0.793l-17.413,0l0,0.793Z" style="fill:#fff;"/><path d="M14.96,18.502c0,0 0.9,-0.401 1.124,-1.377l2,0l0,1.675l-3.225,0l0.1,-0.299l0.001,0Zm-13.09,6.855l16.116,0l0,-0.794l-16.116,0l0,0.794Zm2.403,-11.227l0.55,-0.324c0,0 2.076,2.1 3,4l-2.024,0.877c0,0 -1.025,-4.026 -1.526,-4.552m7.703,-0.575l3.077,1.227c0,0 -2.877,3.075 -3.827,3.825l-0.4,-0.25c0,0 0.8,-2.451 1.15,-4.802m17.283,-10.17l0,8.771c0,0 0.135,1.167 -0.853,1.167l-1.03,0l0,0.58c0,0 1.479,0.092 1.479,0.945c0,0.851 2.916,1.479 2.916,-2.692l0,-8.862l-2.512,0.091Zm0.697,13.186c0,0 -0.876,10.391 -7.256,17.616l0.268,0.439c0,0 8.295,-7.156 9.64,-17.827l-2.651,-0.227l-0.001,0Z" style="fill:#fff;"/><path d="M23.503,18.307c0,0 1.8,9.554 10.654,13.493l-2.025,2.587c0,-0.001 -7.542,-3.702 -9.191,-15.968l0.562,-0.112Zm-19.177,28.462l0.943,-0.001l0,-5.786l-1.76,0l0,1.165l-0.921,0l0,-2.035l6.421,0l0,2.035l-0.922,0l0,-1.165l-1.759,0l0,5.786l0.943,0l0,0.826l-2.945,0l0,-0.826Zm7.67,0l0.932,0l0,-5.84l-0.932,0l0,-0.816l2.935,0l0,0.817l-0.943,0l0,2.49l3.879,0l0,-2.49l-0.943,0l0,-0.817l2.935,0l0,0.817l-0.933,0l0,5.839l0.933,0l0,0.826l-2.935,0l0,-0.826l0.943,0l0,-2.48l-3.88,0l0,2.48l0.944,0l0,0.826l-2.935,0l0,-0.826Zm11.104,0l0.932,0l0,-5.84l-0.932,0l0,-0.816l5.415,0l0,1.738l-0.922,0l0,-0.868l-2.501,0l0,2.404l2.649,0l0,0.87l-2.65,0l0,2.47l2.682,0l0,-0.902l0.922,0l0,1.771l-5.595,0l0,-0.827Zm25.179,-3.064c0.816,0 1.357,-0.53 1.357,-1.409c0,-0.583 -0.234,-0.985 -0.7,-1.176c-0.243,-0.095 -0.562,-0.137 -0.922,-0.137l-1.24,0l0,2.722l1.505,0Zm-3.497,3.064l0.932,0l0,-5.84l-0.932,0l0,-0.816l3.243,0c0.53,0 0.964,0.021 1.377,0.159c0.785,0.265 1.303,0.923 1.303,1.94c0,1.08 -0.592,1.853 -1.547,2.098l0,0.022c0,0 0.191,0.105 0.318,0.349l1.06,1.843c0.117,0.202 0.255,0.245 0.52,0.245l0.222,0l0,0.826l-0.636,0c-0.636,0 -0.784,-0.116 -1.038,-0.562l-1.156,-2.045c-0.19,-0.317 -0.328,-0.413 -0.784,-0.413l-0.89,0l0,2.194l0.922,0l0,0.826l-2.914,0l0,-0.826Zm9.504,0.001l0.932,0l0,-5.84l-0.932,-0.001l0,-0.816l5.415,0l0,1.738l-0.922,0l0,-0.867l-2.501,-0.001l0,2.404l2.65,0l0,0.87l-2.65,0l0,2.47l2.681,0l0,-0.902l0.922,0l0,1.771l-5.595,0l0,-0.827Zm12.195,-2.851c0.34,0 0.605,-0.054 0.837,-0.148c0.477,-0.212 0.753,-0.69 0.753,-1.336c0,-0.605 -0.244,-1.049 -0.668,-1.272c-0.232,-0.127 -0.55,-0.18 -0.91,-0.18l-1.4,0l0,2.936l1.388,0Zm-3.38,2.85l0.932,0l0,-5.838l-0.932,0l0,-0.817l3.487,0c0.455,0 0.911,0.033 1.282,0.2c0.773,0.33 1.271,1.125 1.271,2.121c0,1.048 -0.551,1.898 -1.41,2.194c-0.349,0.127 -0.709,0.158 -1.122,0.158l-1.516,0l0,1.983l0.944,0l0,0.826l-2.936,0l0,-0.826l0,-0.001Zm12.831,0.011c1.515,0 2.745,-1.293 2.745,-2.978c0,-1.632 -1.23,-2.882 -2.745,-2.882c-1.526,0 -2.755,1.25 -2.755,2.882c0,1.685 1.229,2.978 2.755,2.978m0,-6.793c2.162,0 3.847,1.664 3.847,3.815c0,2.204 -1.685,3.921 -3.847,3.921c-2.172,0 -3.846,-1.717 -3.846,-3.921c0,-2.151 1.674,-3.815 3.846,-3.815m10.458,3.719c0.816,0 1.356,-0.53 1.356,-1.409c0,-0.583 -0.233,-0.985 -0.7,-1.176c-0.243,-0.095 -0.561,-0.137 -0.921,-0.137l-1.24,0l0,2.722l1.505,0Zm-3.497,3.064l0.932,0l0,-5.84l-0.932,0l0,-0.816l3.242,0c0.53,0 0.964,0.021 1.378,0.159c0.784,0.265 1.303,0.923 1.303,1.94c0,1.08 -0.593,1.853 -1.547,2.098l0,0.022c0,0 0.19,0.105 0.318,0.349l1.06,1.843c0.116,0.202 0.254,0.245 0.519,0.245l0.223,0l0,0.826l-0.636,0c-0.636,0 -0.785,-0.116 -1.039,-0.562l-1.155,-2.045c-0.19,-0.317 -0.328,-0.413 -0.784,-0.413l-0.89,0l0,2.194l0.922,0l0,0.826l-2.914,0l0,-0.826Zm10.944,0l0.944,0l0,-5.786l-1.76,0l0,1.165l-0.921,0l0,-2.035l6.422,0l0,2.035l-0.922,0l0,-1.165l-1.76,0l0,5.786l0.944,0l0,0.826l-2.948,0l0.001,-0.826Zm7.671,0l0.932,0l0,-5.84l-0.932,0l0,-0.816l5.415,0l0,1.738l-0.922,0l0,-0.868l-2.5,0l0,2.404l2.648,0l0,0.87l-2.649,0l0,2.47l2.681,0l0,-0.902l0.923,0l0,1.771l-5.596,0l0,-0.827Zm12.312,-3.063c0.816,0 1.356,-0.53 1.356,-1.41c0,-0.583 -0.233,-0.985 -0.699,-1.176c-0.243,-0.095 -0.562,-0.137 -0.922,-0.137l-1.24,0l0,2.723l1.505,0Zm-3.497,3.063l0.933,0l0,-5.84l-0.933,0l0,-0.816l3.243,0c0.53,0 0.964,0.021 1.377,0.159c0.784,0.265 1.303,0.923 1.303,1.94c0,1.08 -0.593,1.853 -1.546,2.098l0,0.022c0,0 0.19,0.105 0.317,0.349l1.06,1.843c0.117,0.202 0.254,0.245 0.52,0.245l0.222,0l0,0.826l-0.636,0c-0.636,0 -0.784,-0.116 -1.039,-0.562l-1.155,-2.045c-0.19,-0.317 -0.328,-0.413 -0.783,-0.413l-0.891,0l0,2.194l0.922,0l0,0.826l-2.914,0l0,-0.826Z" style="fill:#fff;"/></g></svg>