<svg xmlns="http://www.w3.org/2000/svg" viewBox="0 0 196.7 35.7"><style>.st11{fill:#231815}</style><g id="圖層_1"><path fill="#c3000b" d="M33.7 29.3l-13.3-3.2V9.5l13.3-3.7z"/><path fill="#e20012" d="M0 35.7l20.8-9.6V9.5L0 0z"/><path class="st11" d="M111.1 8.8s.8-.4 1-1.2h1.8v1.5H111l.1-.3zM116.8 13.6s.8-.4 1-1.2h1.8v1.5h-2.9l.1-.3zM113.4 17.9s.8-.4 1-1.2h1.8v1.5h-2.9l.1-.3z"/><path class="st11" d="M101.4 8.8h12.5v.6h-12.5zM98.9 13.6h20.7v.6H98.9zM105.6 17.8h9.8v.6h-9.8zM104.5 22.1h10.9v.6h-10.9zM104.5 25.9h10.9v.6h-10.9z"/><path class="st11" d="M103.6 18.8h1.8v10h-1.8zM114.4 17.9h1.8v10.9h-1.8zM107.1 5.5h1.8v8.6h-1.8z"/><path class="st11" d="M116 6.9s-4.7 9.4-18.7 15l.2.5s13.6-3.9 20.2-14.4L116 6.9z"/><g><path class="st11" d="M89.2 8.9s.8-.4 1-1.2H92v1.5h-2.9l.1-.3zM88.6 22.8s.8-.4 1-1.2h1.8v1.5h-2.9l.1-.3z"/><path class="st11" d="M77.3 8.9H92v.6H77.3zM78.9 10.9h11v.6h-11zM79 13.1h11v.6H79zM78.9 15h11v.6h-11zM78.9 17.1h11v.6h-11zM69.2 13.3h5.6v.6h-5.6z"/><path class="st11" d="M73.3 13.3h1.8v4.9h-1.8zM89.8 8.9s.6-.3.8-1H92v1.2h-2.3l.1-.2z"/><path class="st11" d="M72.9 13.3s.6-.3.8-1h1.4v1.2h-2.3l.1-.2zM70.6 22.7h20.8v.6H70.6z"/><path class="st11" d="M89.2 22.7s.6-.3.8-1h1.4v1.2h-2.3l.1-.2zM88.1 10.9s.7-.3.8-1h1.5v1.2H88l.1-.2zM73.3 13.3s.5-.2.7-.8h1.2v1h-1.9v-.2zM71 7.1l.3-.5s2.7.6 3.9 3l-1.4 1S72.2 7.7 71 7.1zM79.4 5.6l.3-.3s1.8.2 3 2.1l-1.5.8c-.1-.1-.7-1.8-1.8-2.6zM86 5.8s-.8 2.8-1.2 3.3h.5s1.7-1.7 2.8-3.3H86zM69.8 19.2l3.6-1.6.3.4-2.7 3.2zM75 17.1s.8 2.1 6 2.2c0 0 6.8.4 10.2-.2v1.5s-14.4 1.6-16.5-2.9l.3-.6z"/><path class="st11" d="M78.1 10.1h1.8v8.3h-1.8zM88.6 10.9h1.8v7.5h-1.8zM76.8 24.8l.3-.3s2.1.5 3.3 2.3L79 28s-1.7-3-2.2-3.2zM84.8 21.3h1.8v6c0 .6-.1 1.2-.6 1.5-.3.2-.8.5-1.2.4-.5-.1-.4-.7-.6-1-.3-.3-.9-.4-1.3-.4v-.4H84s.8.1.8-.6v-5.5z"/></g><g><path class="st11" d="M40.8 9.6h11.3v.6H40.8zM53.9 7.4h6.9V8h-6.9zM54.3 16.7h8v.5h-8z"/><path class="st11" d="M45.1 5.9h1.8v8.3h-1.8zM53.2 6.1h1.7v22.8h-1.7zM45.1 18.4h1.8V29h-1.8zM49.3 9.6s.8-.4 1-1.2h1.8v1.5h-2.9l.1-.3zM49.3 22.4s.8-.4 1-1.2h1.8v1.5h-2.9l.1-.3zM59 7.5s.8-.4 1-1.2h1.8v1.5h-2.9l.1-.3zM49.4 18.1s.8-.4 1-1.2h1.8v1.5h-2.9l.1-.3zM49.4 13.8s.8-.4 1-1.2h1.8v1.5h-2.9l.1-.3z"/><path class="st11" d="M39.9 13.8h12.3v.6H39.9zM39.9 18.1h12.2v.6H39.9z"/><path class="st11" d="M50 18.1s.6-.3.8-1h1.4v1.2h-2.3l.1-.2zM40.8 22.3h11.3v.6H40.8zM42.5 15l.4-.2s1.5 1.5 2.1 2.8l-1.4.6c-.1 0-.8-2.8-1.1-3.2zM47.9 14.6l2.2.9s-2 2.2-2.7 2.7l-.3-.2s.5-1.8.8-3.4zM60 7.4v6.2s.1.8-.6.8h-.7v.4s1 .1 1 .7 2.1 1 2.1-1.9V7.4H60zM60.5 16.7s-.6 7.3-5.1 12.4l.2.3s5.8-5 6.8-12.5l-1.9-.2z"/><path class="st11" d="M56 17.9s1.3 6.7 7.5 9.5L62 29.2s-5.3-2.6-6.5-11.2l.5-.1z"/></g><g><path class="st11" d="M128.7 14.3h.9V8.7h-1.7v1.1h-.9v-2h6.2v2h-.9V8.7h-1.7v5.6h.9v.8h-2.9v-.8zM136.1 14.3h.9V8.7h-.9v-.8h2.8v.8h-.9v2.4h3.8V8.7h-.9v-.8h2.8v.8h-.9v5.7h.9v.8h-2.8v-.8h.9V12H138v2.4h.9v.8h-2.8v-.9zM146.9 14.3h.9V8.7h-.9v-.8h5.2v1.7h-.9v-.9h-2.4V11h2.6v.8h-2.6v2.4h2.6v-.9h.9V15h-5.4v-.7zM127 26.8h.9v-5.7h-.9v-.8h3.1c.5 0 .9 0 1.3.2.8.3 1.3.9 1.3 1.9 0 1-.6 1.8-1.5 2 0 0 .2.1.3.3l1 1.8c.1.2.2.2.5.2h.2v.8h-.6c-.6 0-.8-.1-1-.5l-1.1-2c-.2-.3-.3-.4-.8-.4h-.9v2.1h.9v.8H127v-.7zm3.4-2.9c.8 0 1.3-.5 1.3-1.4 0-.6-.2-1-.7-1.1-.2-.1-.5-.1-.9-.1h-1.2v2.6h1.5zM136.2 26.8h.9v-5.7h-.9v-.8h5.2V22h-.9v-.8h-2.4v2.3h2.6v.8h-2.6v2.4h2.6v-.9h.9v1.7h-5.4v-.7zM144.7 26.8h.9v-5.7h-.9v-.8h3.4c.4 0 .9 0 1.2.2.7.3 1.2 1.1 1.2 2.1s-.5 1.8-1.4 2.1c-.3.1-.7.2-1.1.2h-1.5v1.9h.9v.8h-2.8v-.8zm3.3-2.7c.3 0 .6-.1.8-.1.5-.2.7-.7.7-1.3 0-.6-.2-1-.6-1.2-.2-.1-.5-.2-.9-.2h-1.4v2.8h1.4zM157.2 20.3c2.1 0 3.7 1.6 3.7 3.7s-1.6 3.8-3.7 3.8-3.7-1.7-3.7-3.8c-.1-2.1 1.5-3.7 3.7-3.7zm0 6.5c1.5 0 2.7-1.3 2.7-2.9 0-1.6-1.2-2.8-2.7-2.8-1.5 0-2.7 1.2-2.7 2.8 0 1.7 1.2 2.9 2.7 2.9zM163.9 26.8h.9v-5.7h-.9v-.8h3.1c.5 0 .9 0 1.3.2.8.3 1.3.9 1.3 1.9 0 1-.6 1.8-1.5 2 0 0 .2.1.3.3l1 1.8c.1.2.2.2.5.2h.2v.8h-.6c-.6 0-.8-.1-1-.5l-1.1-2c-.2-.3-.3-.4-.8-.4h-.9v2.1h.9v.8h-2.8v-.7zm3.4-2.9c.8 0 1.3-.5 1.3-1.4 0-.6-.2-1-.7-1.1-.2-.1-.5-.1-.9-.1h-1.2v2.6h1.5zM174.5 26.8h.9v-5.6h-1.7v1.1h-.9v-2h6.2v2h-.9v-1.1h-1.7v5.6h.9v.8h-2.9v-.8zM181.9 26.8h.9v-5.7h-.9v-.8h5.2V22h-.9v-.8h-2.4v2.3h2.6v.8h-2.6v2.4h2.6v-.9h.9v1.7h-5.4v-.7zM190.5 26.8h.9v-5.7h-.9v-.8h3.1c.5 0 .9 0 1.3.2.8.3 1.3.9 1.3 1.9 0 1-.6 1.8-1.5 2 0 0 .2.1.3.3l1 1.8c.1.2.2.2.5.2h.2v.8h-.6c-.6 0-.8-.1-1-.5l-1.1-2c-.2-.3-.3-.4-.8-.4h-.9v2.1h.9v.8h-2.8v-.7zm3.3-2.9c.8 0 1.3-.5 1.3-1.4 0-.6-.2-1-.7-1.1-.2-.1-.5-.1-.9-.1h-1.2v2.6h1.5z"/></g></g></svg>