<svg width="220" height="40" xmlns="http://www.w3.org/2000/svg"><g fill="none" fill-rule="evenodd"><g fill="#FFF"><path d="M124.537 10.387s.9-.401 1.125-1.38h1.998v1.682h-3.223l.1-.302zM130.812 15.768s.899-.401 1.124-1.38h1.999v1.68h-3.223l.1-.3zM127.036 20.528s.899-.402 1.125-1.38h1.998v1.682h-3.223l.1-.302z"/><path d="M113.719 10.998h13.934v-.63h-13.934zM110.936 16.362h23.006v-.628h-23.006zM118.389 21.146h10.847v-.677h-10.847zM117.2 25.88h12.124v-.628H117.2zM117.2 30.19h12.124v-.63H117.2z"/><path d="M116.217 32.784h1.955V21.569h-1.955zM128.156 32.828h2.012V20.609h-2.012zM120.071 16.338h2.041V6.68h-2.04z"/><path d="M129.914 8.247S124.66 18.72 109.097 24.95l.199.555S124.46 21.18 131.77 9.397l-1.856-1.15zM100.186 10.51s.899-.402 1.124-1.38h1.998v1.681h-3.223l.1-.301zM99.487 26.067s.9-.403 1.125-1.381h1.998v1.681h-3.224l.101-.3z"/><path d="M86.965 11.147h16.333v-.628H86.965zM88.733 13.424h12.208v-.677H88.733zM88.762 15.787h12.209v-.629H88.762zM88.733 18.017h12.208v-.629H88.733zM88.733 20.307h12.208v-.629H88.733zM77.929 16.07h6.237v-.629h-6.237z"/><path d="M82.458 20.854h2.044V15.4h-2.044zM100.83 10.516s.71-.317.888-1.091h1.58v1.33h-2.548l.08-.239z"/><path d="M82.033 15.417s.71-.317.888-1.09h1.58v1.328h-2.548l.08-.238zM79.478 26.579h23.132v-.63H79.478z"/><path d="M100.12 25.947s.711-.317.89-1.091h1.58v1.33h-2.55l.08-.24zM98.947 12.787s.744-.332.931-1.142h1.654v1.391h-2.668l.083-.25zM82.432 15.436s.595-.267.745-.916h1.325v1.116h-2.138l.068-.2zM79.893 8.528l.325-.505s2.962.714 4.296 3.302l-1.54 1.102s-1.69-3.214-3.081-3.899M89.224 6.785l.284-.348s1.955.222 3.342 2.312l-1.702.918s-.63-1.9-1.924-2.882M96.633 7.049s-.938 3.117-1.294 3.701h.55s1.875-1.948 3.136-3.637l-2.392-.064zM78.59 22.072l4.028-1.845.297.507-3.022 3.57zM84.395 19.695s.938 2.311 6.704 2.45c0 0 7.536.397 11.337-.278v1.636S86.44 25.288 84.13 20.23l.266-.535z"/><path d="M87.85 21.104h1.983V11.87H87.85zM99.514 21.137h2.013V12.78h-2.013zM86.31 28.271l.325-.327s2.312.535 3.674 2.559l-1.54 1.338s-1.838-3.362-2.459-3.57M95.232 24.412h2.01v6.7c0 .662-.158 1.303-.697 1.7-.303.224-.91.528-1.3.415-.511-.15-.416-.805-.69-1.147-.29-.36-.982-.448-1.414-.448l.017-.423h1.232s.866.13.866-.717c0-.846-.024-6.08-.024-6.08M46.279 11.97h12.603v-.622H46.279zM60.906 9.503h7.685V8.88h-7.685zM61.376 19.83h8.899v-.573h-8.9z"/><path d="M51.069 16.37h2.024V7.152H51.07zM60.152 32.87h1.88V7.435h-1.88zM51.069 33.021h2.024V21.14H51.07zM55.794 11.342s.89-.398 1.113-1.366h1.978v1.664h-3.19l.099-.298zM55.794 25.626s.89-.397 1.113-1.367h1.978v1.666h-3.19l.099-.299zM66.575 8.945s.89-.398 1.114-1.367h1.978v1.665h-3.191l.099-.298zM55.89 20.801s.89-.397 1.112-1.367h1.979V21.1H55.79l.1-.299zM55.848 15.992s.89-.398 1.114-1.366h1.978v1.663h-3.191l.1-.297z"/><path d="M45.277 16.623h13.66V16h-13.66zM45.354 21.403h13.615v-.623H45.354z"/><path d="M56.522 20.75s.704-.316.88-1.081h1.564v1.315h-2.523l.079-.234zM46.287 26.133h12.601v-.623h-12.6zM48.166 17.316l.43-.255s1.623 1.65 2.346 3.143l-1.583.687s-.801-3.162-1.193-3.575M54.19 16.864l2.405.964s-2.25 2.416-2.993 3.004l-.312-.196s.626-1.926.9-3.772M67.703 8.877V15.766s.105.916-.667.916h-.806v.456s1.157.072 1.157.742c0 .668 2.28 1.162 2.28-2.114v-6.96l-1.964.071zM68.248 19.234s-.685 8.16-5.673 13.834l.21.346s6.486-5.621 7.537-14.002l-2.074-.178z"/><path d="M63.202 20.596s1.409 7.504 8.331 10.597l-1.584 2.032s-5.896-2.907-7.187-12.54l.44-.09z"/><g><path d="M144.095 16.559h1.015v-6.26h-1.894v1.261h-.993v-2.2h6.917v2.2h-.993V10.3h-1.895v6.259h1.016v.894h-3.173zM152.356 16.559h1.005v-6.317h-1.005v-.883h3.162v.883h-1.016v2.694h4.177v-2.694h-1.015v-.883h3.161v.883h-1.004v6.317h1.004v.894h-3.16v-.894h1.014v-2.683h-4.177v2.683h1.016v.894h-3.162zM164.316 16.559h1.004v-6.317h-1.004v-.883h5.832v1.88h-.993v-.94h-2.694v2.602h2.854v.94h-2.854v2.672h2.888v-.975h.993v1.915h-6.026zM145.94 27.226c.879 0 1.461-.573 1.461-1.525 0-.63-.251-1.066-.753-1.272-.263-.103-.605-.149-.993-.149h-1.336v2.946h1.621zm-3.767 3.314h1.005v-6.317h-1.005v-.883h3.493c.571 0 1.039.023 1.484.171.845.288 1.403.999 1.403 2.1 0 1.169-.638 2.004-1.666 2.269v.023s.206.114.343.378l1.141 1.994c.126.22.274.265.56.265h.24v.894h-.686c-.684 0-.844-.126-1.118-.608l-1.244-2.213c-.206-.343-.354-.446-.845-.446h-.959v2.373h.993v.894h-3.139v-.894zM152.41 30.54h1.004v-6.317h-1.004v-.883h5.832v1.88h-.993v-.94h-2.694v2.602h2.854v.94h-2.854v2.672h2.888v-.975h.993v1.915h-6.026zM165.545 27.456c.365 0 .651-.058.902-.16.513-.23.81-.746.81-1.445 0-.654-.263-1.135-.72-1.376-.25-.137-.592-.195-.98-.195h-1.507v3.176h1.495zm-3.641 3.083h1.005v-6.316h-1.005v-.883h3.755c.491 0 .982.035 1.381.218.834.355 1.37 1.215 1.37 2.293 0 1.134-.594 2.052-1.518 2.373-.377.138-.765.172-1.21.172h-1.632v2.143h1.016v.895h-3.162v-.895zM175.724 30.55c1.632 0 2.956-1.398 2.956-3.22 0-1.767-1.324-3.118-2.956-3.118-1.644 0-2.968 1.351-2.968 3.117 0 1.823 1.324 3.222 2.968 3.222m0-7.348c2.328 0 4.143 1.8 4.143 4.126 0 2.385-1.815 4.242-4.143 4.242-2.34 0-4.143-1.857-4.143-4.242 0-2.327 1.803-4.126 4.143-4.126M186.987 27.226c.879 0 1.46-.573 1.46-1.525 0-.63-.25-1.066-.752-1.272-.263-.103-.605-.149-.993-.149h-1.336v2.946h1.621zm-3.766 3.314h1.004v-6.317h-1.004v-.883h3.492c.57 0 1.039.023 1.484.171.845.288 1.404.999 1.404 2.1 0 1.169-.64 2.004-1.667 2.269v.023s.206.114.343.378l1.14 1.994c.127.22.275.265.56.265h.24v.894h-.684c-.685 0-.846-.126-1.12-.608l-1.243-2.213c-.206-.343-.354-.446-.845-.446h-.959v2.373h.993v.894h-3.138v-.894zM195.009 30.54h1.016v-6.26h-1.895v1.26h-.993v-2.2h6.917v2.2h-.993v-1.26h-1.895v6.26h1.016v.894h-3.173zM203.27 30.54h1.005v-6.317h-1.005v-.883h5.833v1.88h-.993v-.94h-2.694v2.602h2.853v.94h-2.853v2.672h2.888v-.975h.993v1.915h-6.027zM216.531 27.226c.879 0 1.46-.573 1.46-1.525 0-.63-.25-1.066-.752-1.272-.263-.103-.605-.149-.993-.149h-1.336v2.946h1.621zm-3.766 3.314h1.004v-6.317h-1.004v-.883h3.492c.571 0 1.039.023 1.484.171.844.288 1.404.999 1.404 2.1 0 1.169-.64 2.004-1.667 2.269v.023s.205.114.343.378l1.141 1.994c.126.22.274.265.56.265h.239v.894h-.685c-.685 0-.845-.126-1.119-.608l-1.243-2.213c-.206-.343-.354-.446-.845-.446h-.959v2.373h.994v.894h-3.14v-.894z"/></g></g><path fill="#C71B0A" d="M37.504 32.621l-14.692-3.495V10.874l14.692-4.272z"/><path fill="#E62112" d="M0 40l23.199-10.874V10.874L0 0z"/></g></svg>