<?xml version="1.0" encoding="utf-8"?>
<!-- Generator: Adobe Illustrator 19.2.1, SVG Export Plug-In . SVG Version: 6.00 Build 0)  -->
<svg version="1.1" id="圖層_1" xmlns="http://www.w3.org/2000/svg" xmlns:xlink="http://www.w3.org/1999/xlink" x="0px" y="0px"
	 viewBox="0 0 125 42" style="enable-background:new 0 0 125 42;" xml:space="preserve">
<style type="text/css">
	.st0{display:none;}
	.st1{fill:#C3000B;}
	.st2{fill:#E20012;}
	.st3{fill:#FFFFFF;}
</style>
<g id="圖層_2" class="st0">
</g>
<g id="圖層_1_1_">
	<g>
		<polygon class="st1" points="40.1,34.5 24.4,30.8 24.4,11.2 40.1,6.8 		"/>
		<polygon class="st2" points="0.3,42.1 24.9,30.8 24.9,11.2 0.3,-0.1 		"/>
		<g>
			<g>
				<path class="st3" d="M117,8.4c0,0,0.7-0.3,0.9-1.1h1.6v1.4h-2.6L117,8.4z"/>
				<path class="st3" d="M122.1,12.8c0,0,0.7-0.3,0.9-1.1h1.6v1.4H122L122.1,12.8z"/>
				<path class="st3" d="M119,16.7c0,0,0.7-0.3,0.9-1.1h1.6V17h-2.6L119,16.7z"/>
				<rect x="108.1" y="8.4" class="st3" width="11.4" height="0.5"/>
				<rect x="105.8" y="12.8" class="st3" width="18.9" height="0.5"/>
				<rect x="111.9" y="16.7" class="st3" width="8.9" height="0.6"/>
				<rect x="110.9" y="20.6" class="st3" width="10" height="0.5"/>
				<rect x="110.9" y="24.1" class="st3" width="10" height="0.5"/>
				<rect x="110.1" y="17.6" class="st3" width="1.6" height="9.2"/>
				<rect x="119.9" y="16.8" class="st3" width="1.7" height="10"/>
				<rect x="113.3" y="5.4" class="st3" width="1.7" height="7.9"/>
				<path class="st3" d="M121.4,6.7c0,0-4.3,8.6-17.1,13.7l0.2,0.5c0,0,12.5-3.5,18.5-13.2L121.4,6.7z"/>
			</g>
			<g>
				<path class="st3" d="M95.7,8.5c0,0,0.7-0.3,0.9-1.1h1.6v1.4h-2.6L95.7,8.5z"/>
				<path class="st3" d="M95.1,21.3c0,0,0.7-0.3,0.9-1.1h1.6v1.4H95L95.1,21.3z"/>
				<rect x="84.8" y="8.5" class="st3" width="13.4" height="0.5"/>
				<rect x="86.3" y="10.4" class="st3" width="10" height="0.6"/>
				<rect x="86.3" y="12.3" class="st3" width="10" height="0.5"/>
				<rect x="86.3" y="14.2" class="st3" width="10" height="0.5"/>
				<rect x="86.3" y="16" class="st3" width="10" height="0.5"/>
				<rect x="77.4" y="12.6" class="st3" width="5.1" height="0.5"/>
				<rect x="81.1" y="12.5" class="st3" width="1.7" height="4.5"/>
				<path class="st3" d="M96.2,8.5c0,0,0.6-0.3,0.7-0.9h1.3v1.1h-2.1L96.2,8.5z"/>
				<path class="st3" d="M80.8,12.5c0,0,0.6-0.3,0.7-0.9h1.3v1.1h-2.1L80.8,12.5z"/>
				<rect x="78.7" y="21.2" class="st3" width="19" height="0.5"/>
				<path class="st3" d="M95.6,21.2c0,0,0.6-0.3,0.7-0.9h1.3v1.1h-2.1L95.6,21.2z"/>
				<path class="st3" d="M94.7,10.4c0,0,0.6-0.3,0.8-0.9h1.4v1.1h-2.2L94.7,10.4z"/>
				<path class="st3" d="M81.1,12.6c0,0,0.5-0.2,0.6-0.7h1.1v0.9H81L81.1,12.6z"/>
				<path class="st3" d="M79,6.9l0.3-0.4c0,0,2.4,0.6,3.5,2.7l-1.3,0.9C81.5,10.1,80.1,7.5,79,6.9z"/>
				<path class="st3" d="M86.7,5.5l0.2-0.3c0,0,1.6,0.2,2.7,1.9l-1.4,0.8C88.3,7.8,87.7,6.3,86.7,5.5z"/>
				<path class="st3" d="M92.8,5.7c0,0-0.8,2.5-1.1,3h0.5c0,0,1.5-1.6,2.6-3H92.8z"/>
				<polygon class="st3" points="77.9,18 81.2,16.5 81.5,16.9 79,19.8 				"/>
				<path class="st3" d="M82.7,16c0,0,0.8,1.9,5.5,2c0,0,6.2,0.3,9.3-0.2v1.3c0,0-13.1,1.5-15-2.7L82.7,16z"/>
				<rect x="85.5" y="9.6" class="st3" width="1.6" height="7.6"/>
				<rect x="95.1" y="10.4" class="st3" width="1.7" height="6.8"/>
				<path class="st3" d="M84.3,23.1l0.3-0.3c0,0,1.9,0.4,3,2.1L86.3,26C86.3,26,84.8,23.2,84.3,23.1z"/>
				<path class="st3" d="M91.6,19.9h1.7v5.5c0,0.5-0.1,1.1-0.6,1.4c-0.2,0.2-0.7,0.4-1.1,0.3s-0.3-0.7-0.6-0.9
					c-0.2-0.3-0.8-0.4-1.2-0.4v-0.3h1c0,0,0.7,0.1,0.7-0.6C91.6,24.2,91.6,19.9,91.6,19.9z"/>
			</g>
			<g>
				<rect x="49.8" y="9.2" class="st3" width="10.4" height="0.5"/>
				<rect x="61.8" y="7.2" class="st3" width="6.3" height="0.5"/>
				<rect x="62.2" y="15.7" class="st3" width="7.3" height="0.5"/>
				<rect x="53.7" y="5.8" class="st3" width="1.7" height="7.5"/>
				<rect x="61.2" y="6" class="st3" width="1.5" height="20.8"/>
				<rect x="53.7" y="17.2" class="st3" width="1.7" height="9.7"/>
				<path class="st3" d="M57.6,9.2c0,0,0.7-0.3,0.9-1.1h1.6v1.4h-2.6L57.6,9.2z"/>
				<path class="st3" d="M57.6,20.9c0,0,0.7-0.3,0.9-1.1h1.6v1.4h-2.6L57.6,20.9z"/>
				<path class="st3" d="M66.5,7.3c0,0,0.7-0.3,0.9-1.1H69v1.4h-2.6L66.5,7.3z"/>
				<path class="st3" d="M57.7,17c0,0,0.7-0.3,0.9-1.1h1.6v1.4h-2.6L57.7,17z"/>
				<path class="st3" d="M57.7,13c0,0,0.7-0.3,0.9-1.1h1.6v1.4h-2.6L57.7,13z"/>
				<rect x="49" y="13" class="st3" width="11.2" height="0.5"/>
				<rect x="49" y="16.9" class="st3" width="11.2" height="0.5"/>
				<path class="st3" d="M58.2,16.9c0,0,0.6-0.3,0.7-0.9h1.3v1.1h-2.1L58.2,16.9z"/>
				<rect x="49.8" y="20.8" class="st3" width="10.4" height="0.5"/>
				<path class="st3" d="M51.3,14.1l0.4-0.2c0,0,1.3,1.3,1.9,2.6L52.3,17C52.3,17,51.7,14.4,51.3,14.1z"/>
				<path class="st3" d="M56.3,13.7l2,0.8c0,0-1.8,2-2.5,2.5l-0.3-0.2C55.6,16.8,56.1,15.2,56.3,13.7z"/>
				<path class="st3" d="M67.4,7.2v5.3v0.4c0,0,0.1,0.7-0.5,0.7h-0.7V14c0,0,1,0.1,1,0.6s1.9,1,1.9-1.7s0-5.7,0-5.7L67.4,7.2z"/>
				<path class="st3" d="M67.8,15.7c0,0-0.6,6.7-4.7,11.3l0.2,0.3c0,0,5.3-4.6,6.2-11.5L67.8,15.7z"/>
				<path class="st3" d="M63.7,16.8c0,0,1.2,6.1,6.8,8.7l-1.3,1.7c0,0-4.8-2.4-5.9-10.3L63.7,16.8z"/>
			</g>
			<g>
				<path class="st3" d="M51.8,35.5h0.6v-3.7h-1.1v0.7h-0.6v-1.3h4.1v1.3h-0.6v-0.7h-1.1v3.7h0.6V36h-1.9V35.5z"/>
				<path class="st3" d="M56.7,35.5h0.6v-3.8h-0.6v-0.5h1.9v0.5H58v1.6h2.5v-1.6h-0.6v-0.5h1.9v0.5h-0.6v3.8h0.6V36h-1.9v-0.5h0.6
					v-1.6H58v1.6h0.6V36h-1.9C56.7,36,56.7,35.5,56.7,35.5z"/>
				<path class="st3" d="M63.8,35.5h0.6v-3.8h-0.6v-0.5h3.5v1.1h-0.6v-0.6h-1.6v1.5h1.7v0.6h-1.7v1.6h1.7v-0.6h0.6V36h-3.6
					C63.8,36,63.8,35.5,63.8,35.5z"/>
				<path class="st3" d="M77.4,35.5H78v-3.8h-0.6v-0.5h2.1c0.3,0,0.6,0,0.9,0.1c0.5,0.2,0.8,0.6,0.8,1.2c0,0.7-0.4,1.2-1,1.3l0,0
					c0,0,0.1,0.1,0.2,0.2l0.7,1.2c0.1,0.1,0.2,0.2,0.3,0.2h0.1V36h-0.4c-0.4,0-0.5-0.1-0.7-0.4l-0.7-1.3c-0.1-0.2-0.2-0.3-0.5-0.3
					h-0.6v1.4h0.6V36h-1.9L77.4,35.5L77.4,35.5z M79.6,33.5c0.5,0,0.9-0.3,0.9-0.9c0-0.4-0.2-0.6-0.4-0.8c-0.2-0.1-0.4-0.1-0.6-0.1
					h-0.8v1.7h0.9V33.5z"/>
				<path class="st3" d="M83.5,35.5h0.6v-3.8h-0.6v-0.5H87v1.1h-0.6v-0.6h-1.6v1.5h1.7v0.6h-1.7v1.6h1.7v-0.6h0.6V36h-3.6V35.5z"/>
				<path class="st3" d="M89.1,35.5h0.6v-3.8h-0.6v-0.5h2.2c0.3,0,0.6,0,0.8,0.1c0.5,0.2,0.8,0.7,0.8,1.4s-0.4,1.2-0.9,1.4
					c-0.2,0.1-0.5,0.1-0.7,0.1h-1v1.3H91V36h-1.9V35.5z M91.3,33.6c0.2,0,0.4,0,0.5-0.1c0.3-0.1,0.5-0.4,0.5-0.9
					c0-0.4-0.2-0.7-0.4-0.8c-0.1-0.1-0.4-0.1-0.6-0.1h-0.9v1.9H91.3z"/>
				<path class="st3" d="M97.4,31.1c1.4,0,2.5,1.1,2.5,2.5c0,1.4-1.1,2.5-2.5,2.5s-2.5-1.1-2.5-2.5C94.9,32.2,96,31.1,97.4,31.1z
					 M97.4,35.5c1,0,1.8-0.8,1.8-1.9c0-1-0.8-1.9-1.8-1.9s-1.8,0.8-1.8,1.9C95.6,34.6,96.4,35.5,97.4,35.5z"/>
				<path class="st3" d="M101.9,35.5h0.6v-3.8h-0.6v-0.5h2.1c0.3,0,0.6,0,0.9,0.1c0.5,0.2,0.8,0.6,0.8,1.2c0,0.7-0.4,1.2-1,1.3l0,0
					c0,0,0.1,0.1,0.2,0.2l0.7,1.2c0.1,0.1,0.2,0.2,0.3,0.2h0.1V36h-0.4c-0.4,0-0.5-0.1-0.7-0.4l-0.7-1.3c-0.1-0.2-0.2-0.3-0.5-0.3
					h-0.6v1.4h0.6V36h-1.9L101.9,35.5L101.9,35.5z M104.1,33.5c0.5,0,0.9-0.3,0.9-0.9c0-0.4-0.2-0.6-0.4-0.8
					c-0.2-0.1-0.4-0.1-0.6-0.1h-0.8v1.7h0.9V33.5z"/>
				<path class="st3" d="M108.9,35.5h0.6v-3.7h-1.1v0.7h-0.6v-1.3h4.1v1.3h-0.6v-0.7h-1.1v3.7h0.6V36h-1.9V35.5z"/>
				<path class="st3" d="M113.8,35.5h0.6v-3.8h-0.6v-0.5h3.5v1.1h-0.6v-0.6h-1.6v1.5h1.7v0.6h-1.7v1.6h1.7v-0.6h0.6V36h-3.6V35.5z"
					/>
				<path class="st3" d="M119.5,35.5h0.6v-3.8h-0.6v-0.5h2.1c0.3,0,0.6,0,0.9,0.1c0.5,0.2,0.8,0.6,0.8,1.2c0,0.7-0.4,1.2-1,1.3l0,0
					c0,0,0.1,0.1,0.2,0.2l0.7,1.2c0.1,0.1,0.2,0.2,0.3,0.2h0.1V36h-0.4c-0.4,0-0.5-0.1-0.7-0.4l-0.7-1.3c-0.1-0.2-0.2-0.3-0.5-0.3
					h-0.6v1.4h0.6V36h-1.9L119.5,35.5L119.5,35.5z M121.7,33.5c0.5,0,0.9-0.3,0.9-0.9c0-0.4-0.1-0.6-0.4-0.8
					c-0.2-0.1-0.4-0.1-0.6-0.1h-0.8v1.7h0.9V33.5z"/>
			</g>
		</g>
	</g>
</g>
<g id="圖層_3" class="st0">
</g>
</svg>
