<?xml version="1.0" encoding="UTF-8" standalone="no"?>
<svg width="119px" height="48px" viewBox="0 0 119 48" version="1.1" xmlns="http://www.w3.org/2000/svg" xmlns:xlink="http://www.w3.org/1999/xlink">
    <!-- Generator: Sketch 39.1 (31720) - http://www.bohemiancoding.com/sketch -->
    <title>logo-navbar-s</title>
    <desc>Created with Sketch.</desc>
    <defs></defs>
    <g id="Tablet" stroke="none" stroke-width="1" fill="none" fill-rule="evenodd">
        <g id="Article-–-Topic-–-Tablet" transform="translate(-325.000000, -40.000000)" fill="#231816">
            <g id="logo-navbar-s" transform="translate(325.000000, 40.000000)">
                <g id="Group">
                    <path d="M106.238196,5.18282553 C106.238196,5.18282553 107.389174,4.6716766 107.676664,3.42622979 L110.232409,3.42622979 L110.232409,5.56682553 L106.110536,5.56682553 L106.238196,5.18282553 Z" id="Fill-182"></path>
                    <path d="M114.262774,12.0340596 C114.262774,12.0340596 115.413243,11.5229106 115.700732,10.2769532 L118.256987,10.2769532 L118.256987,12.4170383 L114.135626,12.4170383 L114.262774,12.0340596 Z" id="Fill-183"></path>
                    <path d="M109.434638,18.0953872 C109.434638,18.0953872 110.584085,17.5827064 110.872085,16.3367489 L113.42783,16.3367489 L113.42783,18.4788766 L109.305957,18.4788766 L109.434638,18.0953872 Z" id="Fill-184"></path>
                    <polygon id="Fill-185" points="92.4025532 5.95965957 110.222809 5.95965957 110.222809 5.15948936 92.4025532 5.15948936"></polygon>
                    <polygon id="Fill-186" points="88.8434043 12.7894468 118.266383 12.7894468 118.266383 11.9902979 88.8434043 11.9902979"></polygon>
                    <polygon id="Fill-187" points="98.3749787 18.8818723 112.247489 18.8818723 112.247489 18.0204255 98.3749787 18.0204255"></polygon>
                    <polygon id="Fill-188" points="96.8553191 24.9099574 112.36034 24.9099574 112.36034 24.1092766 96.8553191 24.1092766"></polygon>
                    <polygon id="Fill-189" points="96.8553191 30.3972766 112.36034 30.3972766 112.36034 29.5965957 96.8553191 29.5965957"></polygon>
                    <polygon id="Fill-190" points="95.597617 33.6995745 98.0971915 33.6995745 98.0971915 19.4200851 95.597617 19.4200851"></polygon>
                    <polygon id="Fill-191" points="110.866213 33.7562553 113.43983 33.7562553 113.43983 18.1986383 110.866213 18.1986383"></polygon>
                    <polygon id="Fill-192" points="100.526809 12.7598298 103.137191 12.7598298 103.137191 0.462638298 100.526809 0.462638298"></polygon>
                    <path d="M113.114604,2.4576 C113.114604,2.4576 106.396136,15.7944511 86.491966,23.7246638 L86.7457532,24.4318979 C86.7457532,24.4318979 106.141328,18.9256851 115.488562,3.92262128 L113.114604,2.4576 Z" id="Fill-193"></path>
                    <path d="M73.1175319,5.33892766 C73.1175319,5.33892766 74.2669787,4.82777872 74.5549787,3.58233191 L77.1107234,3.58233191 L77.1107234,5.72292766 L72.9888511,5.72292766 L73.1175319,5.33892766 Z" id="Fill-194"></path>
                    <path d="M72.2239149,25.1470979 C72.2239149,25.1470979 73.3738723,24.6349277 73.662383,23.3894809 L76.2181277,23.3894809 L76.2181277,25.529566 L72.095234,25.529566 L72.2239149,25.1470979 Z" id="Fill-195"></path>
                    <polygon id="Fill-196" points="56.2085106 6.1506383 77.0966809 6.1506383 77.0966809 5.35097872 56.2085106 5.35097872"></polygon>
                    <polygon id="Fill-197" points="58.4711489 9.04902128 74.0839149 9.04902128 74.0839149 8.18655319 58.4711489 8.18655319"></polygon>
                    <polygon id="Fill-198" points="58.5084255 12.0587234 74.1211915 12.0587234 74.1211915 11.2580426 58.5084255 11.2580426"></polygon>
                    <polygon id="Fill-199" points="58.4711489 14.8973617 74.0839149 14.8973617 74.0839149 14.0966809 58.4711489 14.0966809"></polygon>
                    <polygon id="Fill-200" points="58.4711489 17.8131064 74.0839149 17.8131064 74.0839149 17.0129362 58.4711489 17.0129362"></polygon>
                    <polygon id="Fill-201" points="44.6522553 12.4187234 52.6289362 12.4187234 52.6289362 11.6180426 44.6522553 11.6180426"></polygon>
                    <polygon id="Fill-202" points="50.4454468 18.5085957 53.0588936 18.5085957 53.0588936 11.5644255 50.4454468 11.5644255"></polygon>
                    <path d="M73.940834,5.34638298 C73.940834,5.34638298 74.8502809,4.94297872 75.0775149,3.95744681 L77.0970894,3.95744681 L77.0970894,5.65021277 L73.8387064,5.65021277 L73.940834,5.34638298 Z" id="Fill-203"></path>
                    <path d="M49.9014128,11.5877617 C49.9014128,11.5877617 50.8108596,11.1833362 51.0380936,10.1978043 L53.0571574,10.1978043 L53.0571574,11.8910809 L49.7992851,11.8910809 L49.9014128,11.5877617 Z" id="Fill-204"></path>
                    <polygon id="Fill-205" points="46.6345532 25.7989787 76.2173617 25.7989787 76.2173617 24.9988085 46.6345532 24.9988085"></polygon>
                    <path d="M73.0339915,24.9945191 C73.0339915,24.9945191 73.9434383,24.5911149 74.1706723,23.605583 L76.1912681,23.605583 L76.1912681,25.2988596 L72.9318638,25.2988596 L73.0339915,24.9945191 Z" id="Fill-206"></path>
                    <path d="M71.5329702,8.23720851 C71.5329702,8.23720851 72.4853106,7.81491064 72.7237787,6.78291064 L74.8393532,6.78291064 L74.8393532,8.55533617 L71.4267574,8.55533617 L71.5329702,8.23720851 Z" id="Fill-207"></path>
                    <path d="M50.4112851,11.6112 C50.4112851,11.6112 51.1736681,11.2711149 51.3646468,10.4449021 L53.0589447,10.4449021 L53.0589447,11.8654979 L50.3260085,11.8654979 L50.4112851,11.6112 Z" id="Fill-208"></path>
                    <path d="M47.1644426,2.81565957 L47.5811234,2.17174468 C47.5811234,2.17174468 51.3695489,3.08119149 53.0745702,6.37685106 L51.104017,7.77906383 C51.104017,7.77906383 48.944017,3.68782979 47.1644426,2.81565957" id="Fill-209"></path>
                    <path d="M59.0981617,0.596578723 L59.4612255,0.153855319 C59.4612255,0.153855319 61.9618213,0.43572766 63.7352681,3.09666383 L61.5589277,4.26602553 C61.5589277,4.26602553 60.7526298,1.84713191 59.0981617,0.596578723" id="Fill-210"></path>
                    <path d="M68.574383,0.931659574 C68.574383,0.931659574 67.374383,4.90034043 66.9194043,5.64485106 L67.6220426,5.64485106 C67.6220426,5.64485106 70.0210213,3.16417021 71.6325957,1.0133617 L68.574383,0.931659574 Z" id="Fill-211"></path>
                    <polygon id="Fill-212" points="45.4976681 20.0601702 50.6494979 17.7107234 51.0289021 18.3556596 47.1643915 22.9013617"></polygon>
                    <path d="M52.9231149,17.0337191 C52.9231149,17.0337191 54.1226043,19.9765277 61.4967319,20.1532085 C61.4967319,20.1532085 71.1334979,20.6587404 75.9957957,19.7998468 L75.9957957,21.8822298 C75.9957957,21.8822298 55.5370723,24.1555915 52.5825191,17.7149106 L52.9231149,17.0337191 Z" id="Fill-213"></path>
                    <polygon id="Fill-214" points="57.3400851 18.827234 59.8779574 18.827234 59.8779574 7.07029787 57.3400851 7.07029787"></polygon>
                    <polygon id="Fill-215" points="72.258383 18.8706383 74.8330213 18.8706383 74.8330213 8.22842553 72.258383 8.22842553"></polygon>
                    <path d="M55.3715745,27.9541277 L55.787234,27.5369362 C55.787234,27.5369362 58.7438298,28.2181277 60.4861277,30.7953191 L58.5165957,32.4993191 C58.5165957,32.4993191 56.1661277,28.2181277 55.3715745,27.9541277" id="Fill-216"></path>
                    <path d="M66.7824,23.0402043 L69.3529532,23.0402043 L69.3529532,31.5709277 C69.3529532,32.4139915 69.1512511,33.2299915 68.4613787,33.736034 C68.0743149,34.0209702 67.297634,34.4075234 66.7987404,34.2635234 C66.1451234,34.0745872 66.2661447,33.239183 65.9153362,32.8036085 C65.545634,32.3450553 64.6612085,32.2327149 64.1086979,32.2327149 L64.129634,31.6945021 L65.7049532,31.6945021 C65.7049532,31.6945021 66.8135489,31.8599489 66.8135489,30.7825021 C66.8135489,29.705566 66.7824,23.0402043 66.7824,23.0402043" id="Fill-217"></path>
                    <polygon id="Fill-218" points="1.70297872 7.19795745 17.820766 7.19795745 17.820766 6.40493617 1.70297872 6.40493617"></polygon>
                    <polygon id="Fill-219" points="20.4107234 4.05702128 30.2379574 4.05702128 30.2379574 3.264 20.4107234 3.264"></polygon>
                    <polygon id="Fill-220" points="21.011234 17.2074894 32.3918298 17.2074894 32.3918298 16.4757447 21.011234 16.4757447"></polygon>
                    <polygon id="Fill-221" points="7.82910638 12.8006809 10.4185532 12.8006809 10.4185532 1.06365957 7.82910638 1.06365957"></polygon>
                    <polygon id="Fill-222" points="19.4461277 33.8098723 21.851234 33.8098723 21.851234 1.42365957 19.4461277 1.42365957"></polygon>
                    <polygon id="Fill-223" points="7.82910638 34.002383 10.4185532 34.002383 10.4185532 18.8726809 7.82910638 18.8726809"></polygon>
                    <path d="M13.8725106,6.39860426 C13.8725106,6.39860426 15.0107234,5.89205106 15.2956596,4.65937021 L17.8258723,4.65937021 L17.8258723,6.77800851 L13.7453617,6.77800851 L13.8725106,6.39860426 Z" id="Fill-224"></path>
                    <path d="M13.8725106,24.5866213 C13.8725106,24.5866213 15.0107234,24.0805787 15.2956596,22.846366 L17.8258723,22.846366 L17.8258723,24.9665362 L13.7453617,24.9665362 L13.8725106,24.5866213 Z" id="Fill-225"></path>
                    <path d="M27.66,3.3467234 C27.66,3.3467234 28.7997447,2.84017021 29.0857021,1.60595745 L31.6148936,1.60595745 L31.6148936,3.72561702 L27.5333617,3.72561702 L27.66,3.3467234 Z" id="Fill-226"></path>
                    <path d="M13.9944,18.4429787 C13.9944,18.4429787 15.1326128,17.9364255 15.4175489,16.7011915 L17.9482723,16.7011915 L17.9482723,18.8228936 L13.8677617,18.8228936 L13.9944,18.4429787 Z" id="Fill-227"></path>
                    <path d="M13.9418043,12.3193021 C13.9418043,12.3193021 15.0805277,11.8132596 15.3659745,10.5795574 L17.8956766,10.5795574 L17.8956766,12.6976851 L13.8146553,12.6976851 L13.9418043,12.3193021 Z" id="Fill-228"></path>
                    <polygon id="Fill-229" points="0.421787234 13.1228936 17.8922553 13.1228936 17.8922553 12.330383 0.421787234 12.330383"></polygon>
                    <polygon id="Fill-230" points="0.520340426 19.2086809 17.9331064 19.2086809 17.9331064 18.4161702 0.520340426 18.4161702"></polygon>
                    <path d="M14.8035064,18.3771574 C14.8035064,18.3771574 15.7042723,17.9757957 15.9279319,17.0009872 L17.9286128,17.0009872 L17.9286128,18.6758809 L14.7029106,18.6758809 L14.8035064,18.3771574 Z" id="Fill-231"></path>
                    <polygon id="Fill-232" points="1.71421277 25.2316596 17.8299574 25.2316596 17.8299574 24.437617 1.71421277 24.437617"></polygon>
                    <path d="M4.11676596,14.0053277 L4.66723404,13.6805617 C4.66723404,13.6805617 6.74297872,15.7813277 7.66774468,17.6819234 L5.64255319,18.5571574 C5.64255319,18.5571574 4.61770213,14.5307745 4.11676596,14.0053277" id="Fill-233"></path>
                    <path d="M11.8204596,13.4298383 L14.8965447,14.6569021 C14.8965447,14.6569021 12.0196085,17.7324766 11.0698213,18.4820936 L10.6694809,18.2318809 C10.6694809,18.2318809 11.4701617,15.780817 11.8204596,13.4298383" id="Fill-234"></path>
                    <path d="M29.1033702,3.25945532 L29.1033702,11.4480511 L29.1033702,12.0306894 C29.1033702,12.0306894 29.2376681,13.1980085 28.2500936,13.1980085 L27.2191149,13.1980085 L27.2191149,13.7786043 C27.2191149,13.7786043 28.6989447,13.8700085 28.6989447,14.7232851 C28.6989447,15.5740085 31.6152,16.2026043 31.6152,12.0306894 L31.6152,3.16958298 L29.1033702,3.25945532 Z" id="Fill-235"></path>
                    <path d="M29.8005447,16.4467915 C29.8005447,16.4467915 28.9237787,26.8377702 22.5443745,34.0627915 L22.8124596,34.5014298 C22.8124596,34.5014298 31.1072681,27.344834 32.4528,16.6735149 L29.8005447,16.4467915 Z" id="Fill-236"></path>
                    <path d="M23.3472511,18.1816851 C23.3472511,18.1816851 25.1477617,27.7357277 34.0012085,31.6747915 L31.9755064,34.2621957 C31.9755064,34.2621957 24.4344,30.5600681 22.7845277,18.2935149 L23.3472511,18.1816851 Z" id="Fill-237"></path>
                </g>
                <g id="Group" transform="translate(2.042553, 39.829787)">
                    <polygon id="Fill-238" points="2.12706383 6.81400851 3.07021277 6.81400851 3.07021277 1.02796596 1.31106383 1.02796596 1.31106383 2.19324255 0.389361702 2.19324255 0.389361702 0.158348936 6.8106383 0.158348936 6.8106383 2.19324255 5.88893617 2.19324255 5.88893617 1.02796596 4.12978723 1.02796596 4.12978723 6.81400851 5.07293617 6.81400851 5.07293617 7.64022128 2.12706383 7.64022128"></polygon>
                    <polygon id="Fill-239" points="9.7973617 6.81400851 10.7297872 6.81400851 10.7297872 0.974859574 9.7973617 0.974859574 9.7973617 0.158348936 12.7325106 0.158348936 12.7325106 0.974859574 11.7893617 0.974859574 11.7893617 3.46524255 15.6681702 3.46524255 15.6681702 0.974859574 14.7250213 0.974859574 14.7250213 0.158348936 17.6606809 0.158348936 17.6606809 0.974859574 16.7277447 0.974859574 16.7277447 6.81400851 17.6606809 6.81400851 17.6606809 7.64022128 14.7250213 7.64022128 14.7250213 6.81400851 15.6681702 6.81400851 15.6681702 4.3338383 11.7893617 4.3338383 11.7893617 6.81400851 12.7325106 6.81400851 12.7325106 7.64022128 9.7973617 7.64022128"></polygon>
                    <polygon id="Fill-240" points="20.9012426 6.81400851 21.8336681 6.81400851 21.8336681 0.974859574 20.9012426 0.974859574 20.9012426 0.158348936 26.3160511 0.158348936 26.3160511 1.8965617 25.3943489 1.8965617 25.3943489 1.02796596 22.8932426 1.02796596 22.8932426 3.4325617 25.542434 3.4325617 25.542434 4.30217872 22.8932426 4.30217872 22.8932426 6.77162553 25.5746043 6.77162553 25.5746043 5.8698383 26.496817 5.8698383 26.496817 7.64022128 20.9012426 7.64022128"></polygon>
                    <path d="M46.0803574,3.75017872 C46.8963574,3.75017872 47.4371234,3.22115745 47.4371234,2.34132766 C47.4371234,1.75868936 47.2037617,1.35579574 46.7375489,1.16532766 C46.4939745,1.07034894 46.1758468,1.02796596 45.8153362,1.02796596 L44.5755064,1.02796596 L44.5755064,3.75017872 L46.0803574,3.75017872 Z M42.5835064,6.81400851 L43.5159319,6.81400851 L43.5159319,0.974859574 L42.5835064,0.974859574 L42.5835064,0.158348936 L45.8260596,0.158348936 C46.3561021,0.158348936 46.7906553,0.179285106 47.2037617,0.317157447 C47.9881021,0.582689362 48.5069106,1.23988085 48.5069106,2.2565617 C48.5069106,3.33809362 47.9140596,4.11068936 46.9596766,4.35477447 L46.9596766,4.37673191 C46.9596766,4.37673191 47.1506553,4.48243404 47.2778043,4.72600851 L48.3373787,6.56941277 C48.4543149,6.77162553 48.5921872,6.81400851 48.8566979,6.81400851 L49.0793362,6.81400851 L49.0793362,7.64022128 L48.4435915,7.64022128 C47.8078468,7.64022128 47.6592511,7.52430638 47.4054638,7.07851915 L46.2498894,5.03341277 C46.0594213,4.71579574 45.9210383,4.61979574 45.4655489,4.61979574 L44.5755064,4.61979574 L44.5755064,6.81400851 L45.4977191,6.81400851 L45.4977191,7.64022128 L42.5835064,7.64022128 L42.5835064,6.81400851 Z" id="Fill-241"></path>
                    <polygon id="Fill-242" points="52.0873532 6.81400851 53.0197787 6.81400851 53.0197787 0.974859574 52.0873532 0.974859574 52.0873532 0.158348936 57.5021617 0.158348936 57.5021617 1.8965617 56.5804596 1.8965617 56.5804596 1.02796596 54.0793532 1.02796596 54.0793532 3.4325617 56.7290553 3.4325617 56.7290553 4.30217872 54.0793532 4.30217872 54.0793532 6.77162553 56.7607149 6.77162553 56.7607149 5.8698383 57.6829277 5.8698383 57.6829277 7.64022128 52.0873532 7.64022128"></polygon>
                    <path d="M64.2828255,3.96311489 C64.6218894,3.96311489 64.8874213,3.90949787 65.1197617,3.81502979 C65.5966979,3.60311489 65.8724426,3.12515745 65.8724426,2.4792 C65.8724426,1.87460426 65.6288681,1.43034894 65.2045277,1.20771064 C64.9721872,1.0805617 64.6540596,1.02796596 64.2935489,1.02796596 L62.8944,1.02796596 L62.8944,3.96311489 L64.2828255,3.96311489 Z M60.9024,6.81400851 L61.8348255,6.81400851 L61.8348255,0.974859574 L60.9024,0.974859574 L60.9024,0.158348936 L64.3890383,0.158348936 C64.8445277,0.158348936 65.3005277,0.191029787 65.6712511,0.359029787 C66.4448681,0.687880851 66.9427404,1.48345532 66.9427404,2.4792 C66.9427404,3.52754043 66.3912511,4.37673191 65.5333787,4.67290213 C65.1835915,4.80005106 64.8235915,4.83171064 64.4099745,4.83171064 L62.8944,4.83171064 L62.8944,6.81400851 L63.8380596,6.81400851 L63.8380596,7.64022128 L60.9024,7.64022128 L60.9024,6.81400851 Z" id="Fill-243"></path>
                    <path d="M73.733617,6.82396596 C75.2486809,6.82396596 76.4782979,5.53102979 76.4782979,3.8459234 C76.4782979,2.21443404 75.2486809,0.963880851 73.733617,0.963880851 C72.2073191,0.963880851 70.9782128,2.21443404 70.9782128,3.8459234 C70.9782128,5.53102979 72.2073191,6.82396596 73.733617,6.82396596 M73.733617,0.0314553191 C75.8951489,0.0314553191 77.580766,1.69511489 77.580766,3.8459234 C77.580766,6.05034894 75.8951489,7.76762553 73.733617,7.76762553 C71.5613617,7.76762553 69.8869787,6.05034894 69.8869787,3.8459234 C69.8869787,1.69511489 71.5613617,0.0314553191 73.733617,0.0314553191" id="Fill-244"></path>
                    <path d="M84.1909787,3.75017872 C85.0069787,3.75017872 85.547234,3.22115745 85.547234,2.34132766 C85.547234,1.75868936 85.314383,1.35579574 84.8481702,1.16532766 C84.6045957,1.07034894 84.2864681,1.02796596 83.9259574,1.02796596 L82.6861277,1.02796596 L82.6861277,3.75017872 L84.1909787,3.75017872 Z M80.6941277,6.81400851 L81.6265532,6.81400851 L81.6265532,0.974859574 L80.6941277,0.974859574 L80.6941277,0.158348936 L83.9366809,0.158348936 C84.4662128,0.158348936 84.900766,0.179285106 85.314383,0.317157447 C86.0987234,0.582689362 86.6175319,1.23988085 86.6175319,2.2565617 C86.6175319,3.33809362 86.0246809,4.11068936 85.0708085,4.35477447 L85.0708085,4.37673191 C85.0708085,4.37673191 85.2612766,4.48243404 85.3884255,4.72600851 L86.448,6.56941277 C86.5649362,6.77162553 86.7028085,6.81400851 86.9673191,6.81400851 L87.1899574,6.81400851 L87.1899574,7.64022128 L86.5542128,7.64022128 C85.9179574,7.64022128 85.7693617,7.52430638 85.5155745,7.07851915 L84.3605106,5.03341277 C84.1700426,4.71579574 84.0321702,4.61979574 83.5761702,4.61979574 L82.6861277,4.61979574 L82.6861277,6.81400851 L83.6083404,6.81400851 L83.6083404,7.64022128 L80.6941277,7.64022128 L80.6941277,6.81400851 Z" id="Fill-245"></path>
                    <polygon id="Fill-246" points="91.6388936 6.81400851 92.5820426 6.81400851 92.5820426 1.02796596 90.8228936 1.02796596 90.8228936 2.19324255 89.9011915 2.19324255 89.9011915 0.158348936 96.3229787 0.158348936 96.3229787 2.19324255 95.4012766 2.19324255 95.4012766 1.02796596 93.6421277 1.02796596 93.6421277 6.81400851 94.5852766 6.81400851 94.5852766 7.64022128 91.6388936 7.64022128"></polygon>
                    <polygon id="Fill-247" points="99.3093957 6.81400851 100.241821 6.81400851 100.241821 0.974859574 99.3093957 0.974859574 99.3093957 0.158348936 104.724715 0.158348936 104.724715 1.8965617 103.802502 1.8965617 103.802502 1.02796596 101.301906 1.02796596 101.301906 3.4325617 103.950587 3.4325617 103.950587 4.30217872 101.301906 4.30217872 101.301906 6.77162553 103.982757 6.77162553 103.982757 5.8698383 104.90497 5.8698383 104.90497 7.64022128 99.3093957 7.64022128"></polygon>
                    <path d="M111.621345,3.75017872 C112.437345,3.75017872 112.9776,3.22115745 112.9776,2.34132766 C112.9776,1.75868936 112.744749,1.35579574 112.278536,1.16532766 C112.034962,1.07034894 111.716834,1.02796596 111.356323,1.02796596 L110.116494,1.02796596 L110.116494,3.75017872 L111.621345,3.75017872 Z M108.124494,6.81400851 L109.05743,6.81400851 L109.05743,0.974859574 L108.124494,0.974859574 L108.124494,0.158348936 L111.367047,0.158348936 C111.897089,0.158348936 112.331643,0.179285106 112.744749,0.317157447 C113.528579,0.582689362 114.047898,1.23988085 114.047898,2.2565617 C114.047898,3.33809362 113.454536,4.11068936 112.501174,4.35477447 L112.501174,4.37673191 C112.501174,4.37673191 112.691643,4.48243404 112.818791,4.72600851 L113.878366,6.56941277 C113.995302,6.77162553 114.132664,6.81400851 114.398196,6.81400851 L114.620834,6.81400851 L114.620834,7.64022128 L113.984579,7.64022128 C113.348323,7.64022128 113.200238,7.52430638 112.94594,7.07851915 L111.790877,5.03341277 C111.599898,4.71579574 111.462536,4.61979574 111.007047,4.61979574 L110.116494,4.61979574 L110.116494,6.81400851 L111.038196,6.81400851 L111.038196,7.64022128 L108.124494,7.64022128 L108.124494,6.81400851 Z" id="Fill-248"></path>
                </g>
            </g>
        </g>
    </g>
</svg>