<svg width="309" height="56" xmlns="http://www.w3.org/2000/svg"><g fill="none" fill-rule="evenodd"><g fill="#231816"><path d="M174.918 14.542s1.264-.562 1.58-1.931h2.806v2.353h-4.526l.14-.422zM183.73 22.075s1.264-.562 1.58-1.932h2.808v2.353h-4.527l.14-.42zM178.428 28.74s1.262-.564 1.58-1.933h2.806v2.354h-4.527l.141-.421z"/><path d="M159.723 15.397h19.571v-.88h-19.57zM155.814 22.906h32.314v-.879h-32.314zM166.283 29.604h15.235v-.947h-15.235zM164.613 36.233h17.028v-.88h-17.028zM164.613 42.266h17.028v-.88h-17.028z"/><path d="M163.232 45.897h2.746v-15.7h-2.746zM180 45.959h2.828V28.853H180zM168.646 22.874h2.866V9.353h-2.866z"/><path d="M182.47 11.545S175.09 26.21 153.232 34.93l.279.778s21.3-6.054 31.566-22.55l-2.607-1.612zM140.716 14.714s1.262-.562 1.578-1.932h2.807v2.354h-4.527l.142-.422zM139.734 36.493s1.263-.563 1.58-1.933h2.807v2.354h-4.528l.141-.42z"/><path d="M122.146 15.606h22.94v-.88h-22.94zM124.63 18.793h17.147v-.947H124.63zM124.67 22.102h17.148v-.88h-17.147zM124.63 25.223h17.147v-.88H124.63zM124.63 28.43h17.147v-.88H124.63zM109.454 22.498h8.76v-.88h-8.76z"/><path d="M115.816 29.195h2.87v-7.636h-2.87zM141.62 14.723s.998-.445 1.248-1.528h2.218v1.86h-3.579l.112-.332z"/><path d="M115.218 21.584s1-.444 1.249-1.527h2.217v1.86h-3.577l.111-.333zM111.631 37.21h32.489v-.88h-32.489z"/><path d="M140.624 36.326s.998-.443 1.248-1.528h2.219v1.862h-3.58l.113-.334zM138.975 17.901s1.045-.465 1.308-1.599h2.324v1.948h-3.748l.116-.349zM115.779 21.61s.836-.374 1.046-1.282h1.862v1.562h-3.003l.095-.28zM112.213 11.94l.457-.708s4.16 1 6.034 4.623l-2.164 1.542s-2.372-4.499-4.327-5.457M125.319 9.5l.398-.488s2.747.31 4.695 3.237l-2.39 1.285s-.887-2.66-2.703-4.034M135.726 9.868s-1.318 4.364-1.818 5.183h.772s2.634-2.728 4.405-5.093l-3.36-.09zM110.383 30.9l5.658-2.583.416.71-4.244 4.998zM118.537 27.572s1.317 3.237 9.416 3.431c0 0 10.584.556 15.924-.39v2.29s-22.47 2.5-25.714-4.581l.374-.75z"/><path d="M123.388 29.545h2.787V16.618h-2.787zM139.772 29.592h2.827v-11.7h-2.827zM121.226 39.58l.457-.458s3.246.748 5.16 3.582l-2.163 1.873s-2.581-4.707-3.454-4.997M133.758 34.177h2.823v9.379c0 .927-.222 1.825-.979 2.381-.425.314-1.278.739-1.826.58-.718-.208-.585-1.126-.97-1.605-.407-.505-1.378-.628-1.985-.628l.023-.591h1.73s1.218.182 1.218-1.004c0-1.184-.034-8.512-.034-8.512M65 16.758h17.702v-.871H65zM85.546 13.304h10.792v-.872H85.546zM86.205 27.763h12.499v-.804H86.205z"/><path d="M71.729 22.918h2.843V10.013H71.73zM84.486 46.018h2.642v-35.61h-2.642zM71.729 46.23h2.843V29.595H71.73zM78.365 15.879s1.25-.557 1.563-1.913h2.78v2.33h-4.483l.14-.417zM78.365 35.877s1.25-.557 1.563-1.914h2.78v2.332h-4.483l.14-.418zM93.508 12.523s1.25-.557 1.565-1.913h2.778v2.33h-4.483l.14-.417zM78.5 29.122s1.25-.557 1.562-1.915h2.78v2.333H78.36l.14-.418zM78.441 22.389s1.251-.557 1.564-1.913h2.779v2.329h-4.482l.14-.416z"/><path d="M63.593 23.273H82.78V22.4H63.593zM63.701 29.964h19.124v-.872H63.701z"/><path d="M79.388 29.05s.99-.442 1.235-1.514h2.197v1.842h-3.543l.11-.329zM65.013 36.586h17.699v-.873h-17.7zM67.651 24.243l.604-.357s2.28 2.31 3.296 4.4l-2.224.962s-1.125-4.427-1.676-5.005M76.112 23.61l3.378 1.35s-3.16 3.38-4.203 4.205l-.44-.275s.88-2.696 1.265-5.28M95.092 12.428v9.643s.148 1.284-.936 1.284h-1.133v.639s1.625.1 1.625 1.038c0 .936 3.203 1.626 3.203-2.96v-9.743l-2.759.099zM95.858 26.927s-.962 11.425-7.969 19.369l.295.483s9.11-7.87 10.587-19.603l-2.913-.249z"/><path d="M88.77 28.834s1.978 10.505 11.701 14.836l-2.225 2.846s-8.28-4.07-10.093-17.558l.618-.124z"/><g><path d="M202.388 23.182h1.426V14.42h-2.66v1.765h-1.395v-3.081h9.714v3.081h-1.394v-1.765h-2.66v8.763h1.425v1.252h-4.456zM213.991 23.182h1.411V14.34h-1.41v-1.236h4.44v1.236h-1.427v3.772h5.868v-3.772h-1.427v-1.236h4.44v1.236h-1.41v8.843h1.41v1.252h-4.44v-1.252h1.427v-3.755h-5.868v3.755h1.427v1.252h-4.44zM230.789 23.182h1.41V14.34h-1.41v-1.236h8.191v2.632h-1.394v-1.316h-3.784v3.642h4.008v1.317h-4.008v3.74h4.057v-1.364h1.394v2.68h-8.464zM204.98 38.116c1.234 0 2.052-.802 2.052-2.134 0-.882-.353-1.492-1.058-1.781-.37-.144-.85-.209-1.395-.209h-1.876v4.124h2.276zm-5.291 4.64h1.411v-8.844h-1.411v-1.236h4.906c.802 0 1.459.032 2.084.24 1.186.402 1.971 1.397 1.971 2.938 0 1.637-.897 2.807-2.34 3.178v.032s.288.16.48.53l1.604 2.792c.177.306.385.37.785.37h.337v1.251h-.962c-.961 0-1.186-.176-1.57-.851l-1.748-3.097c-.289-.482-.497-.626-1.186-.626h-1.347v3.322h1.395v1.252h-4.409v-1.252zM214.066 42.755h1.411v-8.843h-1.41v-1.236h8.19v2.632h-1.393v-1.316h-3.784v3.642h4.008v1.317h-4.008v3.74h4.056v-1.364h1.395v2.68h-8.465zM232.515 38.438c.513 0 .915-.081 1.267-.224.721-.322 1.138-1.045 1.138-2.023 0-.915-.369-1.589-1.01-1.925-.352-.193-.833-.274-1.378-.274h-2.117v4.446h2.1zm-5.114 4.317h1.412v-8.843H227.4v-1.236h5.275c.69 0 1.378.049 1.94.305 1.17.497 1.923 1.702 1.923 3.21 0 1.588-.834 2.873-2.132 3.322-.53.193-1.074.241-1.7.241h-2.292v3.001h1.427v1.252h-4.44v-1.252zM246.812 42.77c2.293 0 4.153-1.957 4.153-4.51 0-2.471-1.86-4.364-4.153-4.364-2.308 0-4.168 1.893-4.168 4.365 0 2.552 1.86 4.51 4.168 4.51m0-10.287c3.27 0 5.82 2.52 5.82 5.777 0 3.339-2.55 5.938-5.82 5.938-3.286 0-5.819-2.6-5.819-5.938 0-3.258 2.533-5.777 5.82-5.777M262.632 38.116c1.234 0 2.052-.802 2.052-2.134 0-.882-.353-1.492-1.058-1.781-.369-.144-.85-.209-1.395-.209h-1.876v4.124h2.277zm-5.29 4.64h1.41v-8.844h-1.41v-1.236h4.905c.801 0 1.459.032 2.084.24 1.187.402 1.972 1.397 1.972 2.938 0 1.637-.898 2.807-2.34 3.178v.032s.288.16.48.53l1.603 2.792c.177.306.386.37.786.37h.337v1.251h-.962c-.962 0-1.187-.176-1.571-.851l-1.747-3.097c-.29-.482-.497-.626-1.187-.626h-1.347v3.322h1.395v1.252h-4.408v-1.252zM273.899 42.755h1.427v-8.763h-2.661v1.765h-1.395v-3.081h9.714v3.081h-1.394v-1.765h-2.66v8.763h1.426v1.253h-4.457zM285.503 42.755h1.41v-8.843h-1.41v-1.236h8.192v2.632H292.3v-1.316h-3.783v3.642h4.007v1.317h-4.007v3.74h4.056v-1.364h1.394v2.68h-8.464zM304.128 38.116c1.234 0 2.052-.802 2.052-2.134 0-.882-.353-1.492-1.058-1.781-.37-.144-.85-.209-1.395-.209h-1.876v4.124h2.277zm-5.29 4.64h1.41v-8.844h-1.41v-1.236h4.905c.802 0 1.458.032 2.084.24 1.186.402 1.972 1.397 1.972 2.938 0 1.637-.898 2.807-2.341 3.178v.032s.288.16.481.53l1.603 2.792c.177.306.385.37.786.37h.336v1.251h-.961c-.963 0-1.187-.176-1.572-.851l-1.746-3.097c-.29-.482-.498-.626-1.187-.626h-1.347v3.322h1.395v1.252h-4.408v-1.252z"/></g></g><path fill="#C71B0A" d="M52.677 45.67L32.04 40.777V15.223l20.637-5.98z"/><path fill="#E62112" d="M0 56l32.583-15.223V15.223L0 0z"/></g></svg>