<?xml version="1.0" encoding="utf-8"?>
<!-- Generator: Adobe Illustrator 19.2.1, SVG Export Plug-In . SVG Version: 6.00 Build 0)  -->
<svg version="1.1" id="圖層_1" xmlns="http://www.w3.org/2000/svg" xmlns:xlink="http://www.w3.org/1999/xlink" x="0px" y="0px"
	 viewBox="0 0 196.7 35.7" style="enable-background:new 0 0 196.7 35.7;" xml:space="preserve">
<style type="text/css">
	.st0{display:none;}
	.st1{fill:#C3000B;}
	.st2{fill:#E20012;}
	.st3{fill:#FFFFFF;}
</style>
<g id="圖層_2" class="st0">
</g>
<g id="圖層_1_1_">
	<g>
		<polygon class="st1" points="33.7,29.3 20.4,26.1 20.4,9.5 33.7,5.8 		"/>
		<polygon class="st2" points="0,35.7 20.8,26.1 20.8,9.5 0,0 		"/>
		<g>
			<path class="st3" d="M111.1,8.8c0,0,0.8-0.4,1-1.2h1.8v1.5H111L111.1,8.8z"/>
			<path class="st3" d="M116.8,13.6c0,0,0.8-0.4,1-1.2h1.8v1.5h-2.9L116.8,13.6z"/>
			<path class="st3" d="M113.4,17.9c0,0,0.8-0.4,1-1.2h1.8v1.5h-2.9L113.4,17.9z"/>
			<rect x="101.4" y="8.8" class="st3" width="12.5" height="0.6"/>
			<rect x="98.9" y="13.6" class="st3" width="20.7" height="0.6"/>
			<rect x="105.6" y="17.8" class="st3" width="9.8" height="0.6"/>
			<rect x="104.5" y="22.1" class="st3" width="10.9" height="0.6"/>
			<rect x="104.5" y="25.9" class="st3" width="10.9" height="0.6"/>
			<rect x="103.6" y="18.8" class="st3" width="1.8" height="10"/>
			<rect x="114.4" y="17.9" class="st3" width="1.8" height="10.9"/>
			<rect x="107.1" y="5.5" class="st3" width="1.8" height="8.6"/>
			<path class="st3" d="M116,6.9c0,0-4.7,9.4-18.7,15l0.2,0.5c0,0,13.6-3.9,20.2-14.4L116,6.9z"/>
		</g>
		<g>
			<path class="st3" d="M89.2,8.9c0,0,0.8-0.4,1-1.2H92v1.5h-2.9L89.2,8.9z"/>
			<path class="st3" d="M88.6,22.8c0,0,0.8-0.4,1-1.2h1.8v1.5h-2.9L88.6,22.8z"/>
			<rect x="77.3" y="8.9" class="st3" width="14.7" height="0.6"/>
			<rect x="78.9" y="10.9" class="st3" width="11" height="0.6"/>
			<rect x="79" y="13.1" class="st3" width="11" height="0.6"/>
			<rect x="78.9" y="15" class="st3" width="11" height="0.6"/>
			<rect x="78.9" y="17.1" class="st3" width="11" height="0.6"/>
			<rect x="69.2" y="13.3" class="st3" width="5.6" height="0.6"/>
			<rect x="73.3" y="13.3" class="st3" width="1.8" height="4.9"/>
			<path class="st3" d="M89.8,8.9c0,0,0.6-0.3,0.8-1H92v1.2h-2.3L89.8,8.9z"/>
			<path class="st3" d="M72.9,13.3c0,0,0.6-0.3,0.8-1h1.4v1.2h-2.3L72.9,13.3z"/>
			<rect x="70.6" y="22.7" class="st3" width="20.8" height="0.6"/>
			<path class="st3" d="M89.2,22.7c0,0,0.6-0.3,0.8-1h1.4v1.2h-2.3L89.2,22.7z"/>
			<path class="st3" d="M88.1,10.9c0,0,0.7-0.3,0.8-1h1.5v1.2H88L88.1,10.9z"/>
			<path class="st3" d="M73.3,13.3c0,0,0.5-0.2,0.7-0.8h1.2v1h-1.9L73.3,13.3z"/>
			<path class="st3" d="M71,7.1l0.3-0.5c0,0,2.7,0.6,3.9,3l-1.4,1C73.8,10.6,72.2,7.7,71,7.1z"/>
			<path class="st3" d="M79.4,5.6l0.3-0.3c0,0,1.8,0.2,3,2.1l-1.5,0.8C81.1,8.1,80.5,6.4,79.4,5.6z"/>
			<path class="st3" d="M86,5.8c0,0-0.8,2.8-1.2,3.3h0.5c0,0,1.7-1.7,2.8-3.3H86z"/>
			<polygon class="st3" points="69.8,19.2 73.4,17.6 73.7,18 71,21.2 			"/>
			<path class="st3" d="M75,17.1c0,0,0.8,2.1,6,2.2c0,0,6.8,0.4,10.2-0.2v1.5c0,0-14.4,1.6-16.5-2.9L75,17.1z"/>
			<rect x="78.1" y="10.1" class="st3" width="1.8" height="8.3"/>
			<rect x="88.6" y="10.9" class="st3" width="1.8" height="7.5"/>
			<path class="st3" d="M76.8,24.8l0.3-0.3c0,0,2.1,0.5,3.3,2.3L79,28C79,28,77.3,25,76.8,24.8z"/>
			<path class="st3" d="M84.8,21.3h1.8v6c0,0.6-0.1,1.2-0.6,1.5c-0.3,0.2-0.8,0.5-1.2,0.4c-0.5-0.1-0.4-0.7-0.6-1
				c-0.3-0.3-0.9-0.4-1.3-0.4v-0.4H84c0,0,0.8,0.1,0.8-0.6C84.8,26,84.8,21.3,84.8,21.3z"/>
		</g>
		<g>
			<rect x="40.8" y="9.6" class="st3" width="11.3" height="0.6"/>
			<rect x="53.9" y="7.4" class="st3" width="6.9" height="0.6"/>
			<rect x="54.3" y="16.7" class="st3" width="8" height="0.5"/>
			<rect x="45.1" y="5.9" class="st3" width="1.8" height="8.3"/>
			<rect x="53.2" y="6.1" class="st3" width="1.7" height="22.8"/>
			<rect x="45.1" y="18.4" class="st3" width="1.8" height="10.6"/>
			<path class="st3" d="M49.3,9.6c0,0,0.8-0.4,1-1.2h1.8v1.5h-2.9L49.3,9.6z"/>
			<path class="st3" d="M49.3,22.4c0,0,0.8-0.4,1-1.2h1.8v1.5h-2.9L49.3,22.4z"/>
			<path class="st3" d="M59,7.5c0,0,0.8-0.4,1-1.2h1.8v1.5h-2.9L59,7.5z"/>
			<path class="st3" d="M49.4,18.1c0,0,0.8-0.4,1-1.2h1.8v1.5h-2.9L49.4,18.1z"/>
			<path class="st3" d="M49.4,13.8c0,0,0.8-0.4,1-1.2h1.8v1.5h-2.9L49.4,13.8z"/>
			<rect x="39.9" y="13.8" class="st3" width="12.3" height="0.6"/>
			<rect x="39.9" y="18.1" class="st3" width="12.2" height="0.6"/>
			<path class="st3" d="M50,18.1c0,0,0.6-0.3,0.8-1h1.4v1.2h-2.3L50,18.1z"/>
			<rect x="40.8" y="22.3" class="st3" width="11.3" height="0.6"/>
			<path class="st3" d="M42.5,15l0.4-0.2c0,0,1.5,1.5,2.1,2.8l-1.4,0.6C43.5,18.2,42.8,15.4,42.5,15z"/>
			<path class="st3" d="M47.9,14.6l2.2,0.9c0,0-2,2.2-2.7,2.7L47.1,18C47.1,18,47.6,16.2,47.9,14.6z"/>
			<path class="st3" d="M60,7.4v5.8v0.4c0,0,0.1,0.8-0.6,0.8h-0.7v0.4c0,0,1,0.1,1,0.7c0,0.6,2.1,1,2.1-1.9s0-6.2,0-6.2L60,7.4z"/>
			<path class="st3" d="M60.5,16.7c0,0-0.6,7.3-5.1,12.4l0.2,0.3c0,0,5.8-5,6.8-12.5L60.5,16.7z"/>
			<path class="st3" d="M56,17.9c0,0,1.3,6.7,7.5,9.5L62,29.2c0,0-5.3-2.6-6.5-11.2L56,17.9z"/>
		</g>
		<g>
			<path class="st3" d="M128.7,14.3h0.9V8.7h-1.7v1.1H127v-2h6.2v2h-0.9V8.7h-1.7v5.6h0.9v0.8h-2.9L128.7,14.3L128.7,14.3z"/>
			<path class="st3" d="M136.1,14.3h0.9V8.7h-0.9V7.9h2.8v0.8H138v2.4h3.8V8.7h-0.9V7.9h2.8v0.8h-0.9v5.7h0.9v0.8h-2.8v-0.8h0.9V12
				H138v2.4h0.9v0.8h-2.8V14.3z"/>
			<path class="st3" d="M146.9,14.3h0.9V8.7h-0.9V7.9h5.2v1.7h-0.9V8.7h-2.4V11h2.6v0.8h-2.6v2.4h2.6v-0.9h0.9V15h-5.4L146.9,14.3
				L146.9,14.3z"/>
			<path class="st3" d="M127,26.8h0.9v-5.7H127v-0.8h3.1c0.5,0,0.9,0,1.3,0.2c0.8,0.3,1.3,0.9,1.3,1.9s-0.6,1.8-1.5,2l0,0
				c0,0,0.2,0.1,0.3,0.3l1,1.8c0.1,0.2,0.2,0.2,0.5,0.2h0.2v0.8h-0.6c-0.6,0-0.8-0.1-1-0.5l-1.1-2c-0.2-0.3-0.3-0.4-0.8-0.4h-0.9
				v2.1h0.9v0.8H127V26.8z M130.4,23.9c0.8,0,1.3-0.5,1.3-1.4c0-0.6-0.2-1-0.7-1.1c-0.2-0.1-0.5-0.1-0.9-0.1h-1.2v2.6H130.4z"/>
			<path class="st3" d="M136.2,26.8h0.9v-5.7h-0.9v-0.8h5.2V22h-0.9v-0.8h-2.4v2.3h2.6v0.8h-2.6v2.4h2.6v-0.9h0.9v1.7h-5.4
				L136.2,26.8L136.2,26.8z"/>
			<path class="st3" d="M144.7,26.8h0.9v-5.7h-0.9v-0.8h3.4c0.4,0,0.9,0,1.2,0.2c0.7,0.3,1.2,1.1,1.2,2.1s-0.5,1.8-1.4,2.1
				c-0.3,0.1-0.7,0.2-1.1,0.2h-1.5v1.9h0.9v0.8h-2.8v-0.8H144.7z M148,24.1c0.3,0,0.6-0.1,0.8-0.1c0.5-0.2,0.7-0.7,0.7-1.3
				c0-0.6-0.2-1-0.6-1.2c-0.2-0.1-0.5-0.2-0.9-0.2h-1.4v2.8C146.6,24.1,148,24.1,148,24.1z"/>
			<path class="st3" d="M157.2,20.3c2.1,0,3.7,1.6,3.7,3.7s-1.6,3.8-3.7,3.8c-2.1,0-3.7-1.7-3.7-3.8C153.4,21.9,155,20.3,157.2,20.3
				z M157.2,26.8c1.5,0,2.7-1.3,2.7-2.9s-1.2-2.8-2.7-2.8s-2.7,1.2-2.7,2.8C154.5,25.6,155.7,26.8,157.2,26.8z"/>
			<path class="st3" d="M163.9,26.8h0.9v-5.7h-0.9v-0.8h3.1c0.5,0,0.9,0,1.3,0.2c0.8,0.3,1.3,0.9,1.3,1.9s-0.6,1.8-1.5,2l0,0
				c0,0,0.2,0.1,0.3,0.3l1,1.8c0.1,0.2,0.2,0.2,0.5,0.2h0.2v0.8h-0.6c-0.6,0-0.8-0.1-1-0.5l-1.1-2c-0.2-0.3-0.3-0.4-0.8-0.4h-0.9
				v2.1h0.9v0.8h-2.8v-0.7H163.9z M167.3,23.9c0.8,0,1.3-0.5,1.3-1.4c0-0.6-0.2-1-0.7-1.1c-0.2-0.1-0.5-0.1-0.9-0.1h-1.2v2.6H167.3z
				"/>
			<path class="st3" d="M174.5,26.8h0.9v-5.6h-1.7v1.1h-0.9v-2h6.2v2h-0.9v-1.1h-1.7v5.6h0.9v0.8h-2.9L174.5,26.8L174.5,26.8z"/>
			<path class="st3" d="M181.9,26.8h0.9v-5.7h-0.9v-0.8h5.2V22h-0.9v-0.8h-2.4v2.3h2.6v0.8h-2.6v2.4h2.6v-0.9h0.9v1.7h-5.4
				L181.9,26.8L181.9,26.8z"/>
			<path class="st3" d="M190.5,26.8h0.9v-5.7h-0.9v-0.8h3.1c0.5,0,0.9,0,1.3,0.2c0.8,0.3,1.3,0.9,1.3,1.9s-0.6,1.8-1.5,2l0,0
				c0,0,0.2,0.1,0.3,0.3l1,1.8c0.1,0.2,0.2,0.2,0.5,0.2h0.2v0.8h-0.6c-0.6,0-0.8-0.1-1-0.5l-1.1-2c-0.2-0.3-0.3-0.4-0.8-0.4h-0.9
				v2.1h0.9v0.8h-2.8v-0.7H190.5z M193.8,23.9c0.8,0,1.3-0.5,1.3-1.4c0-0.6-0.2-1-0.7-1.1c-0.2-0.1-0.5-0.1-0.9-0.1h-1.2v2.6H193.8z
				"/>
		</g>
	</g>
</g>
</svg>
