<svg id="Layer_1" xmlns="http://www.w3.org/2000/svg" width="26" height="24"><style>.st1{fill:#7f7f7f}</style><g id="Page-1"><g id="Article-_x28_Text-Style-Revised_x29_-_x2013_-Desktop" transform="translate(-263 -355)"><g id="print" transform="translate(263 355)"><circle cx="18.5" cy="8.5" r="1.5" fill="none"/><path class="st1" d="M23 5H3C1.3 5 0 6.3 0 8v8c0 1.7 1.3 3 3 3h1v-7h18v7h1c1.7 0 3-1.3 3-3V8c0-1.7-1.3-3-3-3zm-4.5 5c-.8 0-1.5-.7-1.5-1.5S17.7 7 18.5 7s1.5.7 1.5 1.5-.7 1.5-1.5 1.5z"/><path id="Combined-Shape_1_" class="st1" d="M6 14h14v10H6V14zm2.5 5h9v-1h-9v1zm0 3h9v-1h-9v1z"/><path id="Rectangle-3-Copy" class="st1" d="M6 0h14v3H6z"/></g></g></g></svg>