<?xml version="1.0" encoding="utf-8"?>
<!-- Generator: Adobe Illustrator 18.0.0, SVG Export Plug-In . SVG Version: 6.00 Build 0)  -->
<!DOCTYPE svg PUBLIC "-//W3C//DTD SVG 1.1//EN" "http://www.w3.org/Graphics/SVG/1.1/DTD/svg11.dtd">
<svg version="1.1" xmlns="http://www.w3.org/2000/svg" xmlns:xlink="http://www.w3.org/1999/xlink" x="0px" y="0px"
	 viewBox="0 0 30 30" style="enable-background:new 0 0 30 30;" xml:space="preserve">
<style type="text/css">
	.st0{fill:#F7F7F7;}
	.st1{fill:none;stroke:#C94223;stroke-miterlimit:10;}
	.st2{fill:#C94223;}
	.st3{fill:#242423;}
	.st4{fill:#ACACB1;}
	.st5{fill:#FFFFFF;}
	.st6{fill:#C6000B;}
	.st7{fill:#666666;}
	.st8{fill:#D6D6D8;}
	.st9{fill:#FFFFFF;stroke:#4D4D4D;stroke-miterlimit:10;}
	.st10{fill:#4D4D4D;}
	.st11{fill:#666674;}
	.st12{fill:none;stroke:#666674;stroke-miterlimit:10;}
	.st13{fill:#DAE1E5;}
	.st14{fill:none;stroke:#000000;stroke-miterlimit:10;}
</style>
<g id="圖層_2">
</g>
<g id="圖層_1">
	<g>
		<g>
			<g>
				
					<ellipse transform="matrix(-0.727 -0.6866 0.6866 -0.727 30.9118 35.9527)" class="st8" cx="22.6" cy="11.8" rx="4.5" ry="4.4"/>
				<path class="st6" d="M26.1,8.1c2.1,2,2.2,5.2,0.3,7.3c-1.9,2-5.2,2.1-7.3,0.1s-2.2-5.2-0.3-7.3C20.7,6.2,24,6.2,26.1,8.1z
					 M20,14.6c1.5,1.5,4,1.4,5.4-0.1c1.4-1.5,1.3-3.9-0.2-5.4c-1.5-1.5-4-1.4-5.4,0.1C18.4,10.7,18.5,13.1,20,14.6z"/>
			</g>
			<g>
				<polygon class="st6" points="25.4,14.7 26.3,15.5 18.9,23.5 17.9,22.6 				"/>
			</g>
		</g>
		<g>
			<g>
				<ellipse transform="matrix(-0.727 -0.6866 0.6866 -0.727 4.9326 25.624)" class="st8" cx="7.6" cy="11.8" rx="4.5" ry="4.4"/>
				<path class="st6" d="M11.1,8.1c2.1,2,2.2,5.2,0.3,7.3c-1.9,2-5.2,2.1-7.3,0.1s-2.2-5.2-0.3-7.3C5.7,6.2,9,6.2,11.1,8.1z M5,14.6
					c1.5,1.5,4,1.4,5.4-0.1c1.4-1.5,1.3-3.9-0.2-5.4c-1.5-1.5-4-1.4-5.4,0.1C3.3,10.7,3.4,13.1,5,14.6z"/>
			</g>
			<g>
				<polygon class="st6" points="10.4,14.7 11.2,15.5 3.9,23.5 2.9,22.6 				"/>
			</g>
		</g>
	</g>
</g>
<g id="圖層_4">
</g>
</svg>
