<svg xmlns="http://www.w3.org/2000/svg" viewBox="0 0 30 30"><style>.st6{fill:#c6000b}.st8{fill:#d6d6d8}</style><g id="圖層_1"><ellipse transform="scale(-1) rotate(43.363 29.76 -56.853)" class="st8" cx="22.6" cy="11.8" rx="4.5" ry="4.4"/><path class="st6" d="M26.1 8.1c2.1 2 2.2 5.2.3 7.3-1.9 2-5.2 2.1-7.3.1s-2.2-5.2-.3-7.3c1.9-2 5.2-2 7.3-.1zM20 14.6c1.5 1.5 4 1.4 5.4-.1 1.4-1.5 1.3-3.9-.2-5.4-1.5-1.5-4-1.4-5.4.1-1.4 1.5-1.3 3.9.2 5.4z"/><g><path class="st6" d="M25.4 14.7l.9.8-7.4 8-1-.9z"/></g><g><ellipse transform="scale(-1) rotate(43.363 29.76 -19.016)" class="st8" cx="7.6" cy="11.8" rx="4.5" ry="4.4"/><path class="st6" d="M11.1 8.1c2.1 2 2.2 5.2.3 7.3-1.9 2-5.2 2.1-7.3.1s-2.2-5.2-.3-7.3c1.9-2 5.2-2 7.3-.1zM5 14.6c1.5 1.5 4 1.4 5.4-.1 1.4-1.5 1.3-3.9-.2-5.4-1.5-1.5-4-1.4-5.4.1-1.5 1.5-1.4 3.9.2 5.4z"/><g><path class="st6" d="M10.4 14.7l.8.8-7.3 8-1-.9z"/></g></g></g></svg>