<?xml version="1.0" encoding="utf-8"?>
<!-- Generator: Adobe Illustrator 18.0.0, SVG Export Plug-In . SVG Version: 6.00 Build 0)  -->
<!DOCTYPE svg PUBLIC "-//W3C//DTD SVG 1.1//EN" "http://www.w3.org/Graphics/SVG/1.1/DTD/svg11.dtd">
<svg version="1.1" xmlns="http://www.w3.org/2000/svg" xmlns:xlink="http://www.w3.org/1999/xlink" x="0px" y="0px"
	 viewBox="0 0 19.7 20.2" style="enable-background:new 0 0 19.7 20.2;" xml:space="preserve">
<style type="text/css">
	.st0{display:none;}
	.st1{display:inline;}
	.st2{fill:#FFFFFF;}
	.st3{fill:#666674;}
	.st4{fill:none;stroke:#666674;stroke-miterlimit:10;}
	.st5{fill:none;stroke:#666674;stroke-width:3;stroke-miterlimit:10;}
	.st6{opacity:0.35;fill:#666674;}
	.st7{fill:#C3000B;}
	.st8{fill:#E20012;}
	.st9{fill:none;stroke:#666674;stroke-linecap:round;stroke-linejoin:round;stroke-miterlimit:10;}
	.st10{fill:#39AD4A;}
	.st11{fill:#476399;}
	.st12{fill:#41A6DC;}
	.st13{fill:#C6000B;}
	.st14{fill:#231815;}
	.st15{fill:#DAE1E5;}
	.st16{fill:none;stroke:#000000;stroke-miterlimit:10;}
	.st17{fill:none;stroke:#C94223;stroke-miterlimit:10;}
	.st18{fill:#C94223;}
	.st19{fill:#363484;}
	.st20{fill:none;stroke:#FFFFFF;stroke-miterlimit:10;}
</style>
<g id="圖層_2" class="st0">
</g>
<g id="圖層_1">
	<path class="st3" d="M17.8,15.9l-4.4-4.4C14.8,9.1,14.5,6,12.5,4c-1.2-1.2-2.7-1.8-4.4-1.8C6.4,2.2,4.9,2.8,3.7,4
		c-2.4,2.4-2.4,6.3,0,8.7c1.2,1.2,2.7,1.8,4.4,1.8c1.1,0,2.2-0.3,3.2-0.9l4.4,4.4L17.8,15.9z M5.1,11.3C3.5,9.7,3.5,7,5.1,5.4
		c0.8-0.8,1.8-1.2,3-1.2c1.1,0,2.2,0.4,3,1.2c1.6,1.6,1.6,4.3,0,5.9c-0.8,0.8-1.8,1.2-3,1.2C7,12.5,5.9,12.1,5.1,11.3z"/>
</g>
<g id="圖層_3" class="st0">
</g>
</svg>
