<svg width="28" height="24" xmlns="http://www.w3.org/2000/svg"><path d="M28 3c-1.029.323-2.137.649-2.947.75.835-.704 1.746-1.892 2.21-3a36.76 36.76 0 0 0-3.684 1.5C22.532.735 21.039 0 19.158 0 16.215 0 13.643 2.713 14 6c-.357.533-.308.995 0 1.5C9.016 7.185 4.784 4.776 2.21.75c-.756 1.254-1.038 2.296-.736 3.75-.302 1.756.712 3.61 2.21 4.5-.897.168-1.784-.107-2.21-.75-.35 3.203 1.63 5.652 4.42 6-.641.35-1.15.42-1.473.75-.57-.33-.932-.366-1.474-.75.923 2.719 3.043 4.472 5.895 4.5C6.54 20.394 4.061 21.363 1.474 21c-.567.363-1.025.336-1.474 0 2.542 1.996 5.563 3 8.842 3 10.531 0 16.308-9.23 16.21-17.25a1.021 1.021 0 0 0 0-.75c1.206-.878 2.18-1.944 2.948-3" fill="#7F7F7F" fill-rule="evenodd"/></svg>