<?xml version="1.0" encoding="UTF-8" standalone="no"?>
<svg width="28px" height="24px" viewBox="0 0 28 24" version="1.1" xmlns="http://www.w3.org/2000/svg" xmlns:xlink="http://www.w3.org/1999/xlink">
    <!-- Generator: sketchtool 39.1 (31720) - http://www.bohemiancoding.com/sketch -->
    <title>DFFFDA27-4D62-4417-BD40-A3DFBD32E614</title>
    <desc>Created with sketchtool.</desc>
    <defs></defs>
    <g id="Mobile" stroke="none" stroke-width="1" fill="none" fill-rule="evenodd">
        <g id="Article-–-Mobile" transform="translate(-64.000000, -331.000000)" fill="#7F7F7F">
            <g id="Share" transform="translate(24.000000, 331.000000)">
                <path d="M68,3 C66.9711804,3.32307692 65.8634736,3.64897075 65.0526316,3.75 C65.8881258,3.04572048 66.7986148,1.85828819 67.2631579,0.75 C66.1165698,1.13716143 64.8888889,1.64160347 63.5789474,2.25 C62.5321359,0.734994583 61.038211,0 59.1578947,0 C56.2145918,0 53.6425427,2.71289274 54,6 C53.6425427,6.53347779 53.6918472,6.99458288 54,7.5 C49.0161413,7.18526544 44.7841756,4.77573131 42.2105263,0.75 C41.4544814,2.00390033 41.1718025,3.04572048 41.4736842,4.5 C41.1718025,6.25612134 42.1858308,8.11094258 43.6842105,9 C42.7873452,9.16836403 41.899865,8.89274106 41.4736842,8.25 L41.4736842,8.25 C41.1241416,11.4530878 43.1045372,13.9024919 45.8947368,14.25 C45.2525679,14.5993499 44.7447321,14.6704225 44.4210526,15 C43.8506779,14.6704225 43.4891119,14.6340195 42.9473684,14.25 C43.8703997,16.9690141 45.9904913,18.7215601 48.8421053,18.75 C46.5394142,20.3943662 44.0610436,21.3633803 41.4736842,21 C40.907202,21.3633803 40.4486705,21.3356446 40,21 C42.5424664,22.9963164 45.563186,24 48.8421053,24 C59.3733639,24 65.1502025,14.7692308 65.0526316,6.75 C65.1502025,6.49880823 65.1452721,6.23531961 65.0526316,6 C66.2579093,5.12242687 67.232494,4.05633803 68,3" id="icon-share-twitter"></path>
            </g>
        </g>
    </g>
</svg>