<?xml version="1.0" encoding="utf-8"?>
<!-- Generator: Adobe Illustrator 18.0.0, SVG Export Plug-In . SVG Version: 6.00 Build 0)  -->
<!DOCTYPE svg PUBLIC "-//W3C//DTD SVG 1.1//EN" "http://www.w3.org/Graphics/SVG/1.1/DTD/svg11.dtd">
<svg version="1.1" xmlns="http://www.w3.org/2000/svg" xmlns:xlink="http://www.w3.org/1999/xlink" x="0px" y="0px"
	 viewBox="0 0 35 35" style="enable-background:new 0 0 35 35;" xml:space="preserve">
<style type="text/css">
	.st0{display:none;}
	.st1{display:inline;}
	.st2{fill:#FFFFFF;}
	.st3{fill:#666674;}
	.st4{fill:none;stroke:#666674;stroke-miterlimit:10;}
	.st5{fill:none;stroke:#666674;stroke-width:3;stroke-miterlimit:10;}
	.st6{opacity:0.35;fill:#666674;}
	.st7{fill:#C3000B;}
	.st8{fill:#E20012;}
	.st9{fill:none;stroke:#666674;stroke-linecap:round;stroke-linejoin:round;stroke-miterlimit:10;}
	.st10{fill:#39AD4A;}
	.st11{fill:#476399;}
	.st12{fill:#41A6DC;}
	.st13{fill:#C6000B;}
	.st14{fill:#231815;}
	.st15{fill:#DAE1E5;}
	.st16{fill:none;stroke:#000000;stroke-miterlimit:10;}
	.st17{fill:none;stroke:#C94223;stroke-miterlimit:10;}
	.st18{fill:#C94223;}
	.st19{fill:#363484;}
	.st20{fill:none;stroke:#FFFFFF;stroke-miterlimit:10;}
</style>
<g id="圖層_2" class="st0">
</g>
<g id="圖層_1">
	<g>
		<circle class="st12" cx="17.7" cy="17.5" r="13.4"/>
		<g>
			<path class="st2" d="M26.1,13c-0.6,0.3-1.2,0.4-1.9,0.5c0.7-0.4,1.2-1,1.4-1.8c-0.6,0.4-1.3,0.6-2,0.8c-0.6-0.6-1.4-1-2.4-1
				c-1.8,0-3.2,1.4-3.2,3.2c0,0.3,0,0.5,0.1,0.7c-2.7-0.1-5.1-1.4-6.6-3.4c-0.3,0.5-0.4,1-0.4,1.6c0,1.1,0.6,2.1,1.4,2.7
				c-0.5,0-1-0.2-1.5-0.4c0,0,0,0,0,0c0,1.6,1.1,2.9,2.6,3.2c-0.3,0.1-0.6,0.1-0.8,0.1c-0.2,0-0.4,0-0.6-0.1c0.4,1.3,1.6,2.2,3,2.2
				c-1.1,0.9-2.5,1.4-4,1.4c-0.3,0-0.5,0-0.8,0c1.4,0.9,3.1,1.4,4.9,1.4c5.9,0,9.2-4.9,9.2-9.2c0-0.1,0-0.3,0-0.4
				C25.2,14.2,25.7,13.7,26.1,13z"/>
		</g>
	</g>
</g>
<g id="圖層_3" class="st0">
</g>
</svg>
