<svg width="24" height="22" xmlns="http://www.w3.org/2000/svg"><path d="M11.485 2.485C10.285.962 8.517 0 6.545 0 3.115 0 .3 2.915.022 6.625H0v1.204C0 15.147 11.156 21.75 11.156 21.75c.466.295 1.23.295 1.688 0 0 0 11.156-6.603 11.156-13.92V6.624h-.022C23.7 2.915 20.886 0 17.455 0c-1.728 0-3.299.739-4.469 1.946l.022.011a.48.48 0 0 1 .276.447 6.2 6.2 0 0 1-.064.853c-.042.305-.078.59-.106.854.297.066.608.149.934.248.325.1.64.218.944.357.304.14.587.308.849.506.262.199.47.43.626.695.042.08.078.155.106.228a.624.624 0 0 1 .042.228.7.7 0 0 1-.159.467c-.106.126-.24.231-.403.317a2.017 2.017 0 0 1-.52.189 2.274 2.274 0 0 1-1.21-.05 43.34 43.34 0 0 1-.689-.228c-.233-.08-.485-.155-.753-.228a3.406 3.406 0 0 0-.892-.11c-.127 0-.279.014-.456.04a2.041 2.041 0 0 0-.499.14 1.229 1.229 0 0 0-.392.257.538.538 0 0 0-.16.397c0 .239.15.454.446.645.297.192.672.39 1.125.596.453.205.937.43 1.454.675.516.244 1 .526 1.453.843.453.318.828.685 1.125 1.102.297.417.446.91.446 1.479 0 .49-.092.88-.276 1.17a2.155 2.155 0 0 1-.722.705 3.838 3.838 0 0 1-1.018.417c-.382.1-.764.195-1.146.288-.071.013-.11.09-.117.228-.007.139-.01.304-.01.496s-.004.397-.011.616c-.007.218-.046.42-.117.605a1.09 1.09 0 0 1-.34.466c-.155.126-.381.189-.679.189a1.28 1.28 0 0 1-.753-.248c-.233-.166-.35-.38-.35-.645 0-.106.004-.209.01-.308.008-.1.011-.202.011-.308v-.218c0-.106-.007-.218-.021-.337a1.832 1.832 0 0 0-.064-.318c-.028-.093-.063-.145-.106-.159a24.086 24.086 0 0 0-.997-.218 6.956 6.956 0 0 1-1.135-.328 3.267 3.267 0 0 1-.923-.525 1.01 1.01 0 0 1-.382-.814c0-.305.123-.556.371-.754.248-.199.527-.298.838-.298.269 0 .534.04.796.119.262.08.53.165.806.258s.56.179.85.258a3.4 3.4 0 0 0 1.325.09c.17-.02.333-.06.488-.12.156-.06.29-.139.404-.238a.49.49 0 0 0 .17-.387c0-.146-.071-.278-.213-.397a2.388 2.388 0 0 0-.499-.318 6.376 6.376 0 0 0-.583-.248 35.613 35.613 0 0 0-.467-.168 20.847 20.847 0 0 1-1.422-.606 7.844 7.844 0 0 1-1.368-.814 4.426 4.426 0 0 1-1.04-1.081c-.276-.41-.414-.887-.414-1.43 0-.476.103-.909.308-1.3a3.15 3.15 0 0 1 .827-1.002c.347-.278.743-.5 1.189-.665a4.761 4.761 0 0 1 1.41-.287c.057-.305.107-.612.15-.923.039-.29.097-.578.174-.862z" fill="#FFF" fill-rule="evenodd"/></svg>