<?xml version="1.0" encoding="UTF-8"?>
<svg width="20px" height="20px" viewBox="0 0 20 20" version="1.1" xmlns="http://www.w3.org/2000/svg" xmlns:xlink="http://www.w3.org/1999/xlink">
    <!-- Generator: sketchtool 41.2 (35397) - http://www.bohemiancoding.com/sketch -->
    <title>A9DC3330-1084-4F00-ABFD-C85182E1ECF3</title>
    <desc>Created with sketchtool.</desc>
    <defs></defs>
    <g id="Ocean-v2" stroke="none" stroke-width="1" fill="none" fill-rule="evenodd">
        <g id="Ocean" transform="translate(-966.000000, -44.000000)" fill="#FFFFFF">
            <g id="Nav-Bar" transform="translate(40.000000, 30.000000)">
                <path d="M946,31.4 L940.666275,26.105 C941.447066,24.8841667 941.897909,23.4383333 941.897909,21.8891667 C941.898749,17.54 938.332298,14 933.948955,14 C929.565612,14 926,17.54 926,21.89 C926,26.2408333 929.565612,29.7808333 933.948955,29.7808333 C935.433297,29.7808333 936.82109,29.375 938.011586,28.67 L943.381412,34 L946,31.4 L946,31.4 Z M928.961968,21.89 C928.961968,19.1625 931.199396,16.9416667 933.948115,16.9416667 C936.697674,16.9416667 938.935102,19.1616667 938.935102,21.89 C938.935102,24.6191667 936.697674,26.8391667 933.948115,26.8391667 C931.199396,26.8391667 928.961968,24.6191667 928.961968,21.89 L928.961968,21.89 Z" id="Shape"></path>
            </g>
        </g>
    </g>
</svg>