<?xml version="1.0" encoding="UTF-8"?>
<svg width="24px" height="22px" viewBox="0 0 24 22" version="1.1" xmlns="http://www.w3.org/2000/svg" xmlns:xlink="http://www.w3.org/1999/xlink">
    <!-- Generator: sketchtool 41.2 (35397) - http://www.bohemiancoding.com/sketch -->
    <title>AAD73FD2-2F5A-47E1-80BD-77AB284888AF</title>
    <desc>Created with sketchtool.</desc>
    <defs></defs>
    <g id="Ocean-v2" stroke="none" stroke-width="1" fill="none" fill-rule="evenodd">
        <g id="Ocean" transform="translate(-40.000000, -44.000000)" fill="#FFFFFF">
            <g id="Nav-Bar" transform="translate(40.000000, 30.000000)">
                <g id="Donation" transform="translate(0.000000, 12.000000)">
                    <path d="M11.484642,4.48455999 C10.2846385,2.96224934 8.51682229,2 6.54545455,2 C3.1141834,2 0.299577097,4.91516006 0.0224038784,8.62472117 L0,8.62472117 L0,9.82921593 C0,17.1466809 11.1561833,23.7501567 11.1561833,23.7501567 C11.6222104,24.0445225 12.3856704,24.0447219 12.8438167,23.7501567 C12.8438167,23.7501567 24,17.1466809 24,9.82921593 L24,8.62472117 L23.9775961,8.62472117 C23.7004229,4.91516006 20.8858166,2 17.4545455,2 C15.727169,2 14.1560761,2.73879901 12.9863257,3.94582234 C12.9935472,3.9495554 13.0007578,3.95336451 13.0079576,3.95724966 C13.1918665,4.05649099 13.2838196,4.20535074 13.2838196,4.40383339 C13.2838196,4.66847692 13.2625997,4.95296445 13.2201592,5.25730451 C13.1777186,5.56164457 13.142352,5.8461321 13.1140584,6.11077563 C13.4111421,6.17693651 13.722368,6.25963638 14.0477454,6.3588777 C14.3731228,6.45811902 14.6878853,6.57720683 14.9920424,6.71614468 C15.2961996,6.85508253 15.5791322,7.02379026 15.8408488,7.2222729 C16.1025654,7.42075555 16.3112282,7.65231517 16.4668435,7.9169587 C16.509284,7.99635176 16.5446506,8.07243563 16.5729443,8.1452126 C16.601238,8.21798957 16.6153846,8.29407345 16.6153846,8.37346651 C16.6153846,8.55871698 16.5623347,8.71419272 16.4562334,8.8398984 C16.3501321,8.96560408 16.2157391,9.0714599 16.0530504,9.15746905 C15.8903617,9.2434782 15.7170655,9.30633009 15.5331565,9.34602662 C15.3492475,9.38572315 15.179488,9.40557112 15.0238727,9.40557112 C14.7833763,9.40557112 14.5499569,9.36918318 14.3236074,9.29640621 C14.0972579,9.22362924 13.8673752,9.14754536 13.6339523,9.0681523 C13.4005293,8.98875924 13.1494266,8.91267537 12.8806366,8.8398984 C12.6118466,8.76712143 12.3147673,8.73073349 11.9893899,8.73073349 C11.8620683,8.73073349 11.709992,8.74396547 11.5331565,8.77042982 C11.356321,8.79689417 11.190098,8.8432061 11.0344828,8.90936698 C10.8788675,8.97552786 10.7480111,9.06153572 10.6419098,9.16739313 C10.5358085,9.27325054 10.4827586,9.40557033 10.4827586,9.56435644 C10.4827586,9.80253562 10.6312982,10.0175553 10.928382,10.2094218 C11.2254657,10.4012884 11.6003514,10.5997681 12.0530504,10.8048668 C12.5057494,11.0099655 12.9902715,11.2349092 13.5066313,11.4797044 C14.0229911,11.7244997 14.5075132,12.0056792 14.9602122,12.3232515 C15.4129112,12.6408237 15.7877969,13.0080111 16.0848806,13.4248247 C16.3819644,13.8416382 16.530504,14.3345294 16.530504,14.903513 C16.530504,15.3931035 16.4385509,15.7834469 16.2546419,16.0745548 C16.0707329,16.3656626 15.8302402,16.6005303 15.5331565,16.7791646 C15.2360728,16.957799 14.8965536,17.0967348 14.5145889,17.1959761 C14.1326241,17.2952174 13.750665,17.3911493 13.3687003,17.4837745 C13.297966,17.4970067 13.2590628,17.5730906 13.2519894,17.7120284 C13.244916,17.8509663 13.2413793,18.016366 13.2413793,18.2082326 C13.2413793,18.4000991 13.2378427,18.6051948 13.2307692,18.8235257 C13.2236958,19.0418566 13.1847926,19.2436443 13.1140584,19.4288947 C13.0433241,19.6141452 12.9301511,19.769621 12.7745358,19.8953266 C12.6189205,20.0210323 12.3925744,20.0838842 12.0954907,20.0838842 C11.8267007,20.0838842 11.575598,20.0011843 11.3421751,19.8357821 C11.1087521,19.6703799 10.9920424,19.4553603 10.9920424,19.1907168 C10.9920424,19.0848593 10.9955791,18.9823115 11.0026525,18.8830702 C11.0097259,18.7838289 11.0132626,18.681281 11.0132626,18.5754236 L11.0132626,18.3570938 C11.0132626,18.2512364 11.0061893,18.1387646 10.9920424,18.019675 C10.9778956,17.9005854 10.9566756,17.7947296 10.928382,17.7021043 C10.9000883,17.6094791 10.8647217,17.5565512 10.8222812,17.543319 C10.5534911,17.4771581 10.2210453,17.4043823 9.82493369,17.3249892 C9.42882207,17.2455961 9.05039968,17.1364323 8.68965517,16.9974945 C8.32891066,16.8585566 8.02122143,16.6832329 7.76657825,16.4715181 C7.51193507,16.2598032 7.38461538,15.9885477 7.38461538,15.6577433 C7.38461538,15.3534032 7.50839841,15.1019956 7.75596817,14.903513 C8.00353793,14.7050303 8.2829339,14.6057905 8.59416446,14.6057905 C8.86295448,14.6057905 9.12820382,14.6454864 9.38992042,14.7248795 C9.65163703,14.8042726 9.92042302,14.8902804 10.1962865,14.9829057 C10.4721499,15.0755309 10.7550825,15.1615387 11.0450928,15.2409318 C11.3351031,15.3203249 11.635719,15.3600208 11.9469496,15.3600208 C12.0601244,15.3600208 12.2015907,15.3500968 12.3713528,15.3302485 C12.5411149,15.3104003 12.7038012,15.2707044 12.8594164,15.2111596 C13.0150317,15.1516148 13.1494247,15.0722229 13.2625995,14.9729816 C13.3757742,14.8737402 13.4323607,14.7447285 13.4323607,14.5859423 C13.4323607,14.4403884 13.3616276,14.3080686 13.2201592,14.188979 C13.0786907,14.0698894 12.9124678,13.9640336 12.7214854,13.8714084 C12.530503,13.7787831 12.3359868,13.6960833 12.137931,13.6233063 C11.9398752,13.5505293 11.7842623,13.4942934 11.6710875,13.4545969 C11.2183885,13.2825786 10.7444764,13.0807909 10.2493369,12.8492279 C9.75419735,12.6176648 9.29796849,12.3464092 8.8806366,12.0354531 C8.46330472,11.7244969 8.11671225,11.3639255 7.84084881,10.953728 C7.56498536,10.5435306 7.4270557,10.0671794 7.4270557,9.52466011 C7.4270557,9.04830176 7.52961878,8.61495447 7.73474801,8.22460527 C7.93987724,7.83425606 8.21573655,7.50014861 8.56233422,7.2222729 C8.90893188,6.9443972 9.30503756,6.72276156 9.75066313,6.55735936 C10.1962887,6.39195715 10.6666642,6.29602531 11.1618037,6.26956095 C11.2183911,5.96522089 11.2679043,5.6575774 11.3103448,5.34662125 C11.3499576,5.05638408 11.4080561,4.76903283 11.484642,4.48455999 Z" id="icon-donation"></path>
                </g>
            </g>
        </g>
    </g>
</svg>