<?xml version="1.0" encoding="UTF-8" standalone="no"?><!DOCTYPE svg PUBLIC "-//W3C//DTD SVG 1.1//EN" "http://www.w3.org/Graphics/SVG/1.1/DTD/svg11.dtd"><svg width="100%" height="100%" viewBox="0 0 24 22" version="1.1" xmlns="http://www.w3.org/2000/svg" xmlns:xlink="http://www.w3.org/1999/xlink" xml:space="preserve" xmlns:serif="http://www.serif.com/" style="fill-rule:evenodd;clip-rule:evenodd;stroke-linejoin:round;stroke-miterlimit:2;"><path d="M11.485,2.485c-1.2,-1.523 -2.968,-2.485 -4.94,-2.485c-3.43,0 -6.245,2.915 -6.523,6.625l-0.022,0l0,1.204c0,7.318 11.156,13.921 11.156,13.921c0.466,0.295 1.23,0.295 1.688,0c0,0 11.156,-6.603 11.156,-13.92l0,-1.206l-0.022,0c-0.278,-3.709 -3.092,-6.624 -6.523,-6.624c-1.728,0 -3.299,0.739 -4.469,1.946l0.022,0.011c0.172,0.081 0.281,0.257 0.276,0.447c-0.002,0.285 -0.023,0.57 -0.064,0.853c-0.042,0.305 -0.078,0.59 -0.106,0.854c0.297,0.066 0.608,0.149 0.934,0.248c0.325,0.1 0.64,0.218 0.944,0.357c0.304,0.14 0.587,0.308 0.849,0.506c0.262,0.199 0.47,0.43 0.626,0.695c0.042,0.08 0.078,0.155 0.106,0.228c0.028,0.073 0.042,0.15 0.042,0.228c0.005,0.17 -0.051,0.336 -0.159,0.467c-0.106,0.126 -0.24,0.231 -0.403,0.317c-0.164,0.087 -0.339,0.15 -0.52,0.189c-0.4,0.093 -0.819,0.076 -1.21,-0.05c-0.23,-0.074 -0.46,-0.15 -0.689,-0.228c-0.233,-0.08 -0.485,-0.155 -0.753,-0.228c-0.291,-0.076 -0.591,-0.113 -0.892,-0.11c-0.127,0 -0.279,0.014 -0.456,0.04c-0.172,0.025 -0.339,0.072 -0.499,0.14c-0.146,0.06 -0.279,0.147 -0.392,0.257c-0.106,0.104 -0.164,0.248 -0.16,0.397c0,0.239 0.15,0.454 0.446,0.645c0.297,0.192 0.672,0.39 1.125,0.596c0.453,0.205 0.937,0.43 1.454,0.675c0.516,0.244 1,0.526 1.453,0.843c0.453,0.318 0.828,0.685 1.125,1.102c0.297,0.417 0.446,0.91 0.446,1.479c0,0.49 -0.092,0.88 -0.276,1.17c-0.181,0.289 -0.429,0.53 -0.722,0.705c-0.318,0.187 -0.66,0.328 -1.018,0.417c-0.382,0.1 -0.764,0.195 -1.146,0.288c-0.071,0.013 -0.11,0.09 -0.117,0.228c-0.007,0.139 -0.01,0.304 -0.01,0.496c0,0.192 -0.004,0.397 -0.011,0.616c-0.007,0.218 -0.046,0.42 -0.117,0.605c-0.069,0.183 -0.187,0.344 -0.34,0.466c-0.155,0.126 -0.381,0.189 -0.679,0.189c-0.271,-0.001 -0.535,-0.088 -0.753,-0.248c-0.233,-0.166 -0.35,-0.38 -0.35,-0.645c0,-0.106 0.004,-0.209 0.01,-0.308c0.008,-0.1 0.011,-0.202 0.011,-0.308l0,-0.218c0,-0.106 -0.007,-0.218 -0.021,-0.337c-0.012,-0.108 -0.033,-0.214 -0.064,-0.318c-0.028,-0.093 -0.063,-0.145 -0.106,-0.159c-0.331,-0.08 -0.663,-0.152 -0.997,-0.218c-0.387,-0.077 -0.767,-0.187 -1.135,-0.328c-0.334,-0.123 -0.646,-0.301 -0.923,-0.525c-0.248,-0.196 -0.389,-0.498 -0.382,-0.814c0,-0.305 0.123,-0.556 0.371,-0.754c0.248,-0.199 0.527,-0.298 0.838,-0.298c0.269,0 0.534,0.04 0.796,0.119c0.262,0.08 0.53,0.165 0.806,0.258c0.276,0.093 0.56,0.179 0.85,0.258c0.431,0.117 0.882,0.147 1.325,0.09c0.17,-0.02 0.333,-0.06 0.488,-0.12c0.156,-0.06 0.29,-0.139 0.404,-0.238c0.112,-0.097 0.175,-0.239 0.17,-0.387c0,-0.146 -0.071,-0.278 -0.213,-0.397c-0.153,-0.126 -0.32,-0.233 -0.499,-0.318c-0.19,-0.092 -0.385,-0.175 -0.583,-0.248c-0.155,-0.057 -0.311,-0.113 -0.467,-0.168c-0.481,-0.184 -0.956,-0.386 -1.422,-0.606c-0.482,-0.224 -0.941,-0.497 -1.368,-0.814c-0.406,-0.299 -0.757,-0.664 -1.04,-1.081c-0.276,-0.41 -0.414,-0.887 -0.414,-1.43c0,-0.476 0.103,-0.909 0.308,-1.3c0.203,-0.388 0.485,-0.729 0.827,-1.002c0.347,-0.278 0.743,-0.5 1.189,-0.665c0.453,-0.167 0.928,-0.263 1.41,-0.287c0.057,-0.305 0.107,-0.612 0.15,-0.923c0.039,-0.29 0.097,-0.578 0.174,-0.862Z" style="fill:#fff;"/></svg>