<?xml version="1.0" encoding="UTF-8" standalone="no"?><!DOCTYPE svg PUBLIC "-//W3C//DTD SVG 1.1//EN" "http://www.w3.org/Graphics/SVG/1.1/DTD/svg11.dtd"><svg width="100%" height="100%" viewBox="0 0 20 20" version="1.1" xmlns="http://www.w3.org/2000/svg" xmlns:xlink="http://www.w3.org/1999/xlink" xml:space="preserve" xmlns:serif="http://www.serif.com/" style="fill-rule:evenodd;clip-rule:evenodd;stroke-linejoin:round;stroke-miterlimit:2;"><path d="M20,17.4l-5.334,-5.295c0.806,-1.258 1.234,-2.722 1.232,-4.216c0,-4.349 -3.566,-7.889 -7.949,-7.889c-4.383,0 -7.949,3.54 -7.949,7.89c0,4.35 3.566,7.89 7.949,7.89c1.429,0.002 2.833,-0.381 4.063,-1.11l5.37,5.33l2.618,-2.6Zm-17.038,-9.51c0,-2.727 2.237,-4.948 4.986,-4.948c2.75,0 4.987,2.22 4.987,4.948c0,2.73 -2.237,4.95 -4.987,4.95c-2.749,0 -4.986,-2.22 -4.986,-4.95Z" style="fill:#fff;"/></svg>