<svg xmlns="http://www.w3.org/2000/svg" viewBox="0 0 30 30"><defs><style>.cls-fb-hover-1{fill:none}</style><clipPath id="clip-path-fb-hover"><path class="cls-fb-hover-1" d="M24.34 4.5H5.66A1.16 1.16 0 0 0 4.5 5.66v18.68a1.16 1.16 0 0 0 1.16 1.16h10.06v-8.12H13V14.2h2.73v-2.34a3.82 3.82 0 0 1 4.07-4.19c.82 0 1.63 0 2.44.12v2.84h-1.66c-1.32 0-1.58.62-1.58 1.54v2h3.15l-.41 3.18H19v8.15h5.36a1.16 1.16 0 0 0 1.16-1.16V5.66a1.16 1.16 0 0 0-1.18-1.16z"/></clipPath><clipPath id="clip-path-fb-hover-2"><path class="cls-fb-hover-1" d="M19 25.5v-8.12h2.74l.41-3.18H19v-2c0-.92.26-1.55 1.58-1.55h1.68V7.79c-.81-.08-1.63-.12-2.44-.12a3.82 3.82 0 0 0-4.08 4.19v2.34H13v3.18h2.73v8.12z"/></clipPath></defs><g id="icon-fb-hover"><g clip-path="url(#clip-path-fb-hover)"><path fill="#4267b2" d="M-.5-.5h31v31h-31z"/></g><g clip-path="url(#clip-path-fb-hover-2)"><path fill="#fff" d="M7.99 2.67h19.25V30.5H7.99z"/></g></g></svg>