<svg xmlns="http://www.w3.org/2000/svg" viewBox="0 0 30 30"><path d="M15 3.3a12 12 0 0 0-3.79 23.38c.6.11.82-.26.82-.58v-2c-3.34.73-4-1.6-4-1.6a3.19 3.19 0 0 0-1.4-1.8c-1.08-.7.09-.7.09-.7a2.55 2.55 0 0 1 1.84 1.24 2.55 2.55 0 0 0 3.49 1 2.59 2.59 0 0 1 .76-1.6c-2.67-.3-5.47-1.33-5.47-5.93a4.63 4.63 0 0 1 1.24-3.22 4.31 4.31 0 0 1 .12-3.22S9.7 8 12 9.5a11.45 11.45 0 0 1 6 0c2.3-1.5 3.3-1.23 3.3-1.23a4.31 4.31 0 0 1 .12 3.18 4.63 4.63 0 0 1 1.23 3.22c0 4.61-2.8 5.62-5.47 5.92a2.86 2.86 0 0 1 .82 2.22v3.29c0 .39.21.7.82.58A12 12 0 0 0 15 3.3z" fill="#9c9c9c" fill-rule="evenodd"/></svg>