<svg xmlns="http://www.w3.org/2000/svg" xmlns:xlink="http://www.w3.org/1999/xlink" viewBox="0 0 30 30"><defs><style>.cls-line-default-1,.cls-line-default-2{fill:none;}.cls-line-default-2{clip-rule:evenodd;}.cls-line-default-3{clip-path:url(#clip-path-line-default);}.cls-line-default-4{isolation:isolate;}.cls-line-default-5{clip-path:url(#clip-path-line-default-2);}.cls-line-default-6{clip-path:url(#clip-path-line-default-3);}.cls-line-default-7{fill:#9c9c9c;}.cls-line-default-8{clip-path:url(#clip-path-line-default-5);}.cls-line-default-9{fill:#fff;}.cls-line-default-10{clip-path:url(#clip-path-line-default-6);}.cls-line-default-11{clip-path:url(#clip-path-line-default-7);}.cls-line-default-12{clip-path:url(#clip-path-line-default-8);}.cls-line-default-13{clip-path:url(#clip-path-line-default-9);}</style><clipPath id="clip-path-line-default"><rect class="cls-line-default-1" x="4" y="4" width="22" height="22"/></clipPath><clipPath id="clip-path-line-default-2"><rect class="cls-line-default-1" x="3.5" y="4" width="23" height="22"/></clipPath><clipPath id="clip-path-line-default-3"><path class="cls-line-default-2" d="M21.23,26H8.77A4.76,4.76,0,0,1,4,21.23V8.77A4.76,4.76,0,0,1,8.77,4H21.23A4.76,4.76,0,0,1,26,8.77V21.23A4.76,4.76,0,0,1,21.23,26"/></clipPath><clipPath id="clip-path-line-default-5"><path class="cls-line-default-2" d="M23,14c0-3.58-3.59-6.5-8-6.5S7,10.45,7,14c0,3.22,2.85,5.91,6.7,6.42.26.05.62.17.71.39a1.63,1.63,0,0,1,0,.73l-.11.68c0,.2-.16.79.69.43A25.6,25.6,0,0,0,21.26,18h0A5.76,5.76,0,0,0,23,14"/></clipPath><clipPath id="clip-path-line-default-6"><path class="cls-line-default-2" d="M13.34,12.3h-.57a.16.16,0,0,0-.15.16V16a.15.15,0,0,0,.15.15h.57a.15.15,0,0,0,.15-.15V12.46a.16.16,0,0,0-.15-.16"/></clipPath><clipPath id="clip-path-line-default-7"><path class="cls-line-default-2" d="M17.2,12.3h-.56a.16.16,0,0,0-.15.16v2.07l-1.6-2.16,0,0H14.2a.16.16,0,0,0-.16.16V16a.16.16,0,0,0,.16.15h.56a.15.15,0,0,0,.15-.15V13.87L16.51,16l0,0h.65a.16.16,0,0,0,.16-.15V12.46a.16.16,0,0,0-.16-.16"/></clipPath><clipPath id="clip-path-line-default-8"><path class="cls-line-default-2" d="M12,15.23H10.46V12.46a.16.16,0,0,0-.16-.16H9.74a.16.16,0,0,0-.16.16V16h0a.12.12,0,0,0,.05.1h0a.15.15,0,0,0,.11,0H12a.16.16,0,0,0,.16-.15v-.57a.16.16,0,0,0-.16-.15"/></clipPath><clipPath id="clip-path-line-default-9"><path class="cls-line-default-2" d="M20.31,13.17a.15.15,0,0,0,.15-.15v-.56a.16.16,0,0,0-.15-.16H18.06a.21.21,0,0,0-.11,0h0a.14.14,0,0,0,0,.11h0V16h0a.12.12,0,0,0,0,.1h0a.15.15,0,0,0,.11,0h2.25a.15.15,0,0,0,.15-.15v-.57a.15.15,0,0,0-.15-.15H18.78v-.59h1.53a.16.16,0,0,0,.15-.16v-.56a.16.16,0,0,0-.15-.16H18.78v-.59Z"/></clipPath></defs><title>line-icon_default</title><g id="icon"><g class="cls-line-default-3"><g class="cls-line-default-4"><g class="cls-line-default-5"><g class="cls-line-default-6"><g class="cls-line-default-5"><rect class="cls-line-default-7" x="-1" y="-1" width="32" height="32"/></g></g></g></g></g><g class="cls-line-default-8"><rect class="cls-line-default-9" x="1.95" y="2.53" width="26.02" height="25.26"/></g><g class="cls-line-default-10"><rect class="cls-line-default-7" x="7.62" y="7.3" width="10.87" height="13.8"/></g><g class="cls-line-default-11"><rect class="cls-line-default-7" x="9.04" y="7.3" width="13.32" height="13.8"/></g><g class="cls-line-default-12"><rect class="cls-line-default-7" x="4.58" y="7.3" width="12.56" height="13.8"/></g><g class="cls-line-default-13"><rect class="cls-line-default-7" x="12.91" y="7.3" width="12.56" height="13.8"/></g></g></svg>