<svg xmlns="http://www.w3.org/2000/svg" viewBox="0 0 504.42 93.08"><defs><style>.cls-1{fill:#231815}</style></defs><g id="logo"><path class="cls-1" d="M251.21 52.38h1.89v-11.6h-3.53v2.34h-1.85V39h12.88v4.08h-1.85v-2.3h-3.52v11.6h1.89V54h-5.91zM266.59 52.38h1.87V40.67h-1.87V39h5.89v1.63h-1.89v5h7.78v-5h-1.9V39h5.89v1.63h-1.87v11.75h1.87V54h-5.89v-1.62h1.9v-5h-7.78v5h1.89V54h-5.89zM288.86 52.38h1.87V40.67h-1.87V39h10.86v3.48h-1.85v-1.7h-5v4.82h5.31v1.75h-5.31v4.95h5.37v-1.81h1.85V54h-11.23zM319.62 52.38h1.87V40.67h-1.87V39h6.51a8.48 8.48 0 0 1 2.76.32 3.8 3.8 0 0 1 2.61 3.88 4.07 4.07 0 0 1-3.1 4.21 1.81 1.81 0 0 1 .64.7l2.12 3.69c.24.41.51.49 1 .49h.45V54h-1.27c-1.28 0-1.58-.23-2.09-1.13L327 48.81a1.47 1.47 0 0 0-1.6-.81h-1.78v4.4h1.85V54h-5.85zm7-6.14a2.59 2.59 0 0 0 2.72-2.83 2.3 2.3 0 0 0-1.34-2.35 5.18 5.18 0 0 0-1.85-.28h-2.48v5.46zM338.68 52.38h1.87V40.67h-1.87V39h10.86v3.48h-1.85v-1.7h-5v4.82H348v1.75h-5.31v4.95h5.38v-1.81h1.84V54h-11.23zM356.36 52.38h1.87V40.67h-1.87V39h7a6.26 6.26 0 0 1 2.57.4 4.41 4.41 0 0 1 2.55 4.25 4.44 4.44 0 0 1-2.82 4.4 6.56 6.56 0 0 1-2.25.32h-3v4h1.89V54h-5.89zm6.78-5.71a4.35 4.35 0 0 0 1.68-.3 2.72 2.72 0 0 0 1.51-2.68 2.7 2.7 0 0 0-1.33-2.55 4 4 0 0 0-1.83-.36h-2.8v5.89zM382.09 38.78a7.58 7.58 0 0 1 7.72 7.65 7.72 7.72 0 1 1-15.43 0 7.57 7.57 0 0 1 7.71-7.65zm0 13.62a5.7 5.7 0 0 0 5.51-6 5.52 5.52 0 1 0-11 0 5.7 5.7 0 0 0 5.49 6zM396.05 52.38h1.87V40.67h-1.87V39h6.5a8.51 8.51 0 0 1 2.77.32 3.8 3.8 0 0 1 2.61 3.88 4.07 4.07 0 0 1-3.1 4.21 1.81 1.81 0 0 1 .64.7l2.12 3.69c.24.41.51.49 1 .49h.45V54h-1.24c-1.27 0-1.57-.23-2.08-1.13l-2.32-4.1a1.44 1.44 0 0 0-1.57-.83h-1.78v4.4h1.85V54h-5.85zm7-6.14a2.58 2.58 0 0 0 2.72-2.83 2.29 2.29 0 0 0-1.4-2.35 5.22 5.22 0 0 0-1.85-.28h-2.48v5.46zM418 52.38h1.89v-11.6h-3.53v2.34h-1.84V39h12.87v4.08h-1.84v-2.3H422v11.6h1.89V54H418zM433.38 52.38h1.87V40.67h-1.87V39h10.86v3.48h-1.85v-1.7h-5v4.82h5.31v1.75h-5.31v4.95h5.38v-1.81h1.84V54h-11.23zM451.06 52.38h1.87V40.67h-1.87V39h6.5a8.51 8.51 0 0 1 2.77.32 3.8 3.8 0 0 1 2.61 3.88 4.07 4.07 0 0 1-3.1 4.21 1.81 1.81 0 0 1 .64.7l2.12 3.69c.23.41.51.49 1 .49h.45V54h-1.28c-1.27 0-1.57-.23-2.08-1.13l-2.32-4.1a1.45 1.45 0 0 0-1.57-.83h-1.78v4.4h1.84V54h-5.84zm7-6.14a2.58 2.58 0 0 0 2.72-2.83 2.29 2.29 0 0 0-1.4-2.35 5.22 5.22 0 0 0-1.85-.28h-2.48v5.46z"/><path fill="#c7000b" d="M84.88 61.84L67.5 57.76V36.04l17.38-4.8v30.6z"/><path fill="#e60012" d="M40.34 70.17L67.5 57.76V36.04L40.34 23.63v46.54z"/><path class="cls-1" d="M216.94 41.66h11.24V39h-2.75a2.87 2.87 0 0 1-1.43 1.79h-6.1a42 42 0 0 0 7.29-8.68l-2.55-1.58a41.47 41.47 0 0 1-8.35 10.26h-2.39V34.3h7.62v-2.72h-2.75a2.89 2.89 0 0 1-1.49 1.86h-3.38v-5h-2.81v5h-8.75v.86h8.75v6.49h-12.58v.87h16.84A65.09 65.09 0 0 1 194 53.42l.28.77a62.73 62.73 0 0 0 9.52-3.86v13.83h2.69v-3.55h13.75v3.61H223V45.47h-2.75a2.88 2.88 0 0 1-1.39 1.81h-9.56a57.6 57.6 0 0 0 7.64-5.62zm-10.47 18.08v-5h13.75v5zm13.75-11.53v5.63h-13.75v-4.93l1.25-.7zM152.51 30.92l.45-.69a9.86 9.86 0 0 1 5.91 4.52l-2.12 1.51s-2.33-4.4-4.24-5.34zM165.35 28.53l.39-.48a7 7 0 0 1 4.6 3.17L168 32.48a9.4 9.4 0 0 0-2.65-3.95z"/><path class="cls-1" d="M184.74 31.74H182a3 3 0 0 1-1.55 1.9h-5.61a58.42 58.42 0 0 0 4-4.67l-3.29-.09s-1.06 3.51-1.62 4.76h-11.69v.86h22.49zM167.93 49.58c-6.57-.16-8.58-2.35-9.08-3.1v-7.61h-2.17a2.33 2.33 0 0 1-1.23 1.49h-5.65v.87h6.2v5.79l-5.33 2.43 1.8 3.06 4-4.73h2.32c4.5 5.9 24.69 3.66 24.69 3.66V49.2c-5.17.93-15.55.38-15.55.38z"/><path class="cls-1" d="M182.3 35.19H180a2.4 2.4 0 0 1-1.18 1.51h-12.63v-1.2h-2.73v12.65h2.73v-1.09h13.33v1.14h2.77zm-2.78 2.44V40h-13.33v-2.37zm-13.33 3.24h13.33v2.19h-13.33zm0 5.33v-2.28h13.33v2.28zM161.34 58l.45-.45a9.23 9.23 0 0 1 5.06 3.5l-2.12 1.84s-2.53-4.63-3.39-4.89z"/><path class="cls-1" d="M183.78 53.06H181a2.92 2.92 0 0 1-1.27 1.74h-3.37v-2.11h-2.77v2.11h-21.65v.86h21.7v5.36c0 1.16-1.2 1-1.2 1h-1.69v.58a2.69 2.69 0 0 1 1.94.62c.38.46.25 1.36.95 1.57a2.57 2.57 0 0 0 1.79-.57 2.72 2.72 0 0 0 1-2.33v-6.23h7.39zM123.23 39.28h-2.73a2.92 2.92 0 0 1-1.5 1.87h-3.79v-5.51h8V32.9h-2.72a3 3 0 0 1-1.53 1.88h-3.72V29h-2.79v5.75h-6.65v.86h6.59v5.52h-8V42h18.8zM123.28 45.87h-2.72a2.94 2.94 0 0 1-1.47 1.84H116c1.1-.9 4-4.05 4-4.05l-3.31-1.32a37.25 37.25 0 0 1-1.24 5.17l.32.2h-5.38l1.83-.79a20.74 20.74 0 0 0-3.22-4.31l-.59.35c.48.51 1.4 4 1.6 4.75h-5.47v.85h7.86v5.63h-6.58v.86h6.58v9.44h2.79v-9.44h8v-2.57h-2.72a2.86 2.86 0 0 1-1.25 1.71h-4v-5.63h8.09zM134.52 57.68a29.8 29.8 0 0 0 4.28-11.27v-.79h-11.32V32.26h7.81v8.58s.14 1.25-.92 1.25h-1.11v.63s1.6.1 1.6 1 3.13 1.59 3.13-2.9v-11.2h-2.72a2.84 2.84 0 0 1-1.37 1.78h-6.42v-2h-2.58v34.88h2.58V46.41H136a41.66 41.66 0 0 1-2.67 9.83 22.93 22.93 0 0 1-4.19-8.78l-.6.12a27.48 27.48 0 0 0 3.74 11 27.7 27.7 0 0 1-4 6l.29.47a33 33 0 0 0 4.58-5.19 16.47 16.47 0 0 0 5.28 4.94l2.13-2.8a18.75 18.75 0 0 1-6.04-4.32z"/><path fill="none" d="M.55 0h503.87v93.08H.55z"/></g></svg>