<svg xmlns="http://www.w3.org/2000/svg" viewBox="0 0 30 30"><defs><style>.cls-med-default-1{fill:none}</style><clipPath id="clip-path-med-default"><path class="cls-med-default-1" d="M4.6 4.6h20.8v20.8H4.6z"/></clipPath><clipPath id="clip-path-med-default-2"><path class="cls-med-default-1" d="M9.56 11.56a.53.53 0 0 0-.17-.46L8.08 9.53v-.24h4.05l3.14 6.87L18 9.29h3.86v.24l-1.1 1.07a.33.33 0 0 0-.12.31v7.86a.33.33 0 0 0 .12.31l1.09 1.07v.24h-5.48v-.24l1.13-1.09c.11-.11.11-.15.11-.32v-6.35l-3.13 8h-.43l-3.65-8v5.34a.75.75 0 0 0 .2.62l1.47 1.78v.23H7.91v-.23l1.46-1.78a.71.71 0 0 0 .19-.62z"/></clipPath></defs><g id="icon"><g clip-path="url(#clip-path-med-default)"><path fill="#9c9c9c" d="M-.4-.4h30.8v30.8H-.4z"/></g><g clip-path="url(#clip-path-med-default-2)"><path fill="#fff" d="M2.91 4.29h23.97v21.09H2.91z"/></g></g></svg>