<?xml version="1.0" encoding="UTF-8"?>
<svg width="29px" height="26px" viewBox="0 0 29 26" version="1.1" xmlns="http://www.w3.org/2000/svg" xmlns:xlink="http://www.w3.org/1999/xlink">
    <!-- Generator: Sketch 46.1 (44463) - http://www.bohemiancoding.com/sketch -->
    <title>Social icon</title>
    <desc>Created with Sketch.</desc>
    <defs></defs>
    <g id="Working" stroke="none" stroke-width="1" fill="none" fill-rule="evenodd">
        <g id="Desktop-071917" transform="translate(-527.000000, -8172.000000)">
            <g id="Footer" transform="translate(47.000000, 8172.000000)">
                <g id="Social-icon" transform="translate(480.000000, 0.000000)">
                    <path d="M15.9794258,6.22009569 C15.9794258,9.65533014 13.1945646,12.4401914 9.75933014,12.4401914 C6.32409569,12.4401914 3.53923445,9.65533014 3.53923445,6.22009569 C3.53923445,2.78486124 6.32409569,0 9.75933014,0 C13.1945646,0 15.9794258,2.78486124 15.9794258,6.22009569" id="Fill-1" fill="#C3000B"></path>
                    <polygon id="Fill-3" fill="#C3000B" points="19.4626794 25.9506124 14.2289665 14.6110048 5.17910048 14.6110048 0 25.9506124"></polygon>
                    <polygon id="Fill-5" fill="#E20012" points="28.2952153 11.569378 23.6301435 11.569378 23.6301435 6.90430622 20.5200957 6.90430622 20.5200957 11.569378 15.8550239 11.569378 15.8550239 14.6794258 20.5200957 14.6794258 20.5200957 19.3444976 23.6301435 19.3444976 23.6301435 14.6794258 28.2952153 14.6794258"></polygon>
                </g>
            </g>
        </g>
    </g>
</svg>